<?xml version="1.0" encoding="utf-8" ?>
<svg baseProfile="full" height="200mm" version="1.1" viewBox="0,0,200,200" width="200mm" xmlns="http://www.w3.org/2000/svg" xmlns:ev="http://www.w3.org/2001/xml-events" xmlns:xlink="http://www.w3.org/1999/xlink"><defs /><rect fill="#1a1a1a" height="200" width="200" x="0" y="0" /><text alignment-baseline="middle" fill="#e1ed5e" style="dominant-baseline: central; font-size:9.0px; font-family:Arial;" text-anchor="middle" x="100.0" y="100.0">2025</text><line stroke="#e1ed5e" stroke-width="0.3" x1="100.0" x2="100.0" y1="15.0" y2="10.0" /><path d="M 100.0 14.0 a86.0,86.0 0 0,1 42.46469731375804,11.215312516191453" fill="none" id="id109" stroke="none" /><text fill="#e1ed5e" style="font-size:6.75px; font-family:Arial;" text-anchor="middle"><textPath startOffset="22.20632615414155" xlink:href="#id109">January</textPath></text><path d="M 100.36148047927253 79.00311137660856 l 0.2821627624147134 -16.389654312767334 a37.3920829767454,37.3920829767454 0 0,0 0.6434525163037709,0.016618480126290497 l -0.5642419139133521 16.382369040498684" fill="#ffbe11" stroke="none" /><path d="M 101.80526077348638 79.07773832637324 l 1.2667263108174773 -14.680859260353913 a35.73540715992729,35.73540715992729 0 0,0 0.6123940528598673,0.05815419434375795 l -1.5192454907675887 14.656879521494977" fill="#ffa80f" stroke="none" /><path d="M 102.16513564639614 79.11191278185805 l 1.914463596352798 -18.469735438117898 a39.5686913382669,39.5686913382669 0 0,0 0.6768757822500857,0.07605488087072569 l -2.232106082112609 18.434044603776574" fill="#ffda14" stroke="none" /><path d="M 102.52436894288641 79.15227682838746 l 1.8424584511112139 -15.216105336823208 a36.32724746213001,36.32724746213001 0 0,0 0.6201325318583016,0.08051100055804239 l -2.1041057114773616 15.18213601310103" fill="#ffb010" stroke="none" /><path d="M 105.71112130821622 79.79150937346287 l 4.024559629951037 -14.240684301487468 a35.79845159432781,35.79845159432781 0 0,0 0.5915434711231489,0.17268776041087192 l -4.269093318797613 14.169298212157893" fill="#ffa80f" stroke="none" /><path d="M 106.0581310904928 79.89281104454417 l 4.255858533179463 -14.12537140845655 a35.752574327258216,35.752574327258216 0 0,0 0.5877291248103232,0.18261029999735115 l -4.498373030700505 14.050020973576679" fill="#ffa80f" stroke="none" /><path d="M 107.08798089147638 80.2323363322302 l 6.991190369933932 -19.497724667457305 a41.71323272684952,41.71323272684952 0 0,0 0.6738031328623402,0.24816738029175478 l -7.325775828568848 19.374494019359226" fill="#fff617" stroke="none" /><line stroke="#e1ed5e" stroke-width="0.3" x1="143.23703022742887" x2="145.7803849466894" y1="26.81831364943548" y2="22.513508569990506" /><path d="M 143.74570117128098 25.957352633546492 a86.0,86.0 0 0,1 28.547481713284135,27.462654790039103" fill="none" id="id110" stroke="none" /><text fill="#e1ed5e" style="font-size:6.75px; font-family:Arial;" text-anchor="middle"><textPath startOffset="19.985693538727396" xlink:href="#id110">February</textPath></text><path d="M 111.2981086023043 82.29822771554956 l 7.934030467521981 -12.43096571096169 a35.7471267698719,35.7471267698719 0 0,0 0.5158361021305076,0.33551414974035654 l -8.14683359543677 12.292552637061805" fill="#ffa80f" stroke="none" /><path d="M 113.6212207817346 84.01681056812373 l 6.698421864715367 -7.8599522960477 a31.327037599129888,31.327037599129888 0 0,0 0.4074099161118265,0.3533018645681968 l -6.832725579473958 7.743485438059832" fill="#ff6b09" stroke="none" /><path d="M 115.4437574822437 85.77008943001954 l 10.83506677514174 -9.983453276011545 a35.73322813697277,35.73322813697277 0 0,0 0.41289976422640245,0.45593423243634185 l -11.005310179984178 9.795466256305653" fill="#ffa80f" stroke="none" /><line stroke="#e1ed5e" stroke-width="0.3" x1="172.23445277983987" x2="176.4835382374775" y1="55.19839476539836" y2="52.563006222186495" /><path d="M 173.08426987136738 54.67131705675599 a86.0,86.0 0 0,1 12.851231095245387,41.99856678651699" fill="none" id="id111" stroke="none" /><text fill="#e1ed5e" style="font-size:6.75px; font-family:Arial;" text-anchor="middle"><textPath startOffset="22.20632615414155" xlink:href="#id111">March</textPath></text><path d="M 118.21658344932153 89.55222093294921 l 10.220989503337757 -5.862056431964762 a32.782713271521125,32.782713271521125 0 0,0 0.2765336739881482,0.4919225495683708 l -10.320380818618338 5.685250372461597" fill="#ff7f0b" stroke="none" /><path d="M 118.3937258080291 89.86733742301442 l 12.908529491434585 -7.110999428113639 a35.73758618288181,35.73758618288181 0 0,0 0.29218352862299557,0.5413717035509463 l -13.029021119276045 6.8877467412302344" fill="#ffa80f" stroke="none" /><path d="M 118.56541770881063 90.18545643968196 l 13.159053348608413 -6.9564878274284805 a35.88467023231227,35.88467023231227 0 0,0 0.2839854136557274,0.5485694284411641 l -13.276848195424257 6.728945676726971" fill="#ffaa0f" stroke="none" /><path d="M 120.28053869075195 94.5502522615342 l 14.280080749866139 -3.837316106755076 a35.78667309187092,35.78667309187092 0 0,0 0.15474100890001027,0.5962802301219241 l -14.344018090636453 3.590939451084301" fill="#ffa80f" stroke="none" /><path d="M 120.37134235888165 94.90015583598534 l 14.340704579553263 -3.5901099333302766 a35.78325732615842,35.78325732615842 0 0,0 0.14444031052785558,0.5987983373211343 l -14.400377690341937 3.342726364349736" fill="#ffa80f" stroke="none" /><path d="M 120.53481517161879 95.60439243477599 l 14.416883001274117 -3.086025340755693 a35.743475434110266,35.743475434110266 0 0,0 0.12360554059381425,0.6027445135496908 l -14.467867837782928 2.83740517104259" fill="#ffa80f" stroke="none" /><path d="M 120.73433829027371 96.67025291283417 l 14.583332135154643 -2.3419511642183206 a35.77018318843127,35.77018318843127 0 0,0 0.09239626802709663,0.6087759629258646 l -14.621484296621041 2.0905760889003737" fill="#ffa80f" stroke="none" /><path d="M 120.91429891909075 98.10471618934814 l 14.678321819463918 -1.3301706081370968 a35.73846957056608,35.73846957056608 0 0,0 0.050247464836773496,0.6131463431699337 l -14.699043768120186 1.0773103477593944" fill="#ffa80f" stroke="none" /><line stroke="#e1ed5e" stroke-width="0.3" x1="184.98032266829074" x2="189.97916517819016" y1="98.17113171792111" y2="98.06355123074" /><path d="M 185.9800911702706 98.14961562048488 a86.0,86.0 0 0,1 -9.607161424134198,41.387399972396054" fill="none" id="id112" stroke="none" /><text fill="#e1ed5e" style="font-size:6.75px; font-family:Arial;" text-anchor="middle"><textPath startOffset="21.466115282336823" xlink:href="#id112">April</textPath></text><path d="M 120.99513854157772 99.54816195383933 l 14.749424090464471 -0.31742352877704527 a35.752839343563494,35.752839343563494 0 0,0 0.007945630797041438,0.6153978616232176 l -14.752702728379228 0.06348940909336495" fill="#ffa80f" stroke="none" /><path d="M 120.99980553446 99.90962569577887 l 17.69188301363538 -0.07613840114353433 a38.69204684665652,38.69204684665652 0 0,0 -0.002866348674000949,0.6660384859031114 l -17.690572367671876 -0.22840956296326181" fill="#ffcf13" stroke="none" /><path d="M 120.9904718944345 100.63252640178507 l 29.474837683660375 0.8881940871557031 a50.48821705723464,50.48821705723464 0 0,0 -0.033653683568894636,0.8684520361318433 l -29.455181867240277 -1.3954233703015526" fill="#9fff22" stroke="none" /><path d="M 120.9764740272857 100.99374915477107 l 12.02061435005493 0.5694701280423782 a33.03409596020736,33.03409596020736 0 0,0 -0.031797124975586545,0.5677590265394556 l -12.009030874191813 -0.7763008709172572" fill="#ff830c" stroke="none" /><path d="M 120.92983693683757 101.71520430193887 l 14.698354084336277 1.204533042132893 a35.74762735622632,35.74762735622632 0 0,0 -0.05553717974445474,0.6128481506415111 l -14.675442308314746 -1.4573625813229747" fill="#ffa80f" stroke="none" /><path d="M 120.8583938346157 102.4346265915055 l 20.47882699036953 2.3903229150296164 a41.61785630320483,41.61785630320483 0 0,0 -0.08917812962027458,0.7108374362180002 l -20.434647351502406 -2.7424781055350116" fill="#fff517" stroke="none" /><path d="M 120.81339534386255 102.79330883721812 l 23.369654878357473 3.1363774346266236 a44.57917794466067,44.57917794466067 0 0,0 -0.10861599735420754,0.7596600325184709 l -23.312204829986662 -3.5381829391255035" fill="#e5ff1a" stroke="none" /><path d="M 120.5718875245553 104.21870165774334 l 14.438093123094015 2.960837080231222 a35.73855790933451,35.73855790933451 0 0,0 -0.12877106375295017,0.6015755397592724 l -14.384988020616623 -3.208926439406663" fill="#ffa80f" stroke="none" /><path d="M 120.32669344350535 105.2749913415812 l 34.78464344889932 9.026981861211688 a56.93685881361501,56.93685881361501 0 0,0 -0.2543502977315171,0.9465320784922236 l -34.62410507482602 -9.62440487287946" fill="#58ff2a" stroke="none" /><path d="M 120.02730092923936 106.31721596034902 l 60.08190278771807 18.951647881047055 a84.0,84.0 0 0,0 -0.4468309959350121,1.375204400088819 l -59.746779540766816 -19.98305118111367" fill="#4dd2ff" stroke="none" /><path d="M 119.79798401119884 107.00284435728193 l 13.891719455341464 4.913709857819547 a35.735142143622014,35.735142143622014 0 0,0 -0.21011538496509496,0.578147298456887 l -13.805079809371144 -5.1521049532825645" fill="#ffa80f" stroke="none" /><path d="M 119.67450827220406 107.3425965602758 l 13.81691491040514 5.156521855140565 a35.74777458750703,35.74777458750703 0 0,0 -0.22011389266507278,0.5746479161382574 l -13.72610673814656 -5.393593338111966" fill="#ffa80f" stroke="none" /><path d="M 118.81262510543309 109.33194174019688 l 13.198631023574501 6.547138162381238 a35.733257583228905,35.733257583228905 0 0,0 -0.27807507081529315,0.5486684957073772 l -13.08397728297294 -6.7733608697913095" fill="#ffa80f" stroke="none" /><path d="M 118.64920377521936 109.65438752849418 l 23.763256232424087 12.301848774454088 a47.75869634413044,47.75869634413044 0 0,0 -0.38422437894237177,0.7268077262211818 l -23.547979345256824 -12.709071515761403" fill="#beff1e" stroke="none" /><line stroke="#e1ed5e" stroke-width="0.3" x1="174.80103733775053" x2="179.2010983576182" y1="140.37084112569926" y2="142.7455964860345" /><path d="M 175.68104954172406 140.8457921977663 a86.0,86.0 0 0,1 -30.038265399797805,32.042727171017184" fill="none" id="id113" stroke="none" /><text fill="#e1ed5e" style="font-size:6.75px; font-family:Arial;" text-anchor="middle"><textPath startOffset="22.206326154141568" xlink:href="#id113">May</textPath></text><path d="M 118.48025628344425 109.97397251340804 l 15.56240200229566 8.399178422247205 a38.68430248129111,38.68430248129111 0 0,0 -0.3213073779357464,0.5832662209901766 l -15.415518214908403 -8.665815161635187" fill="#ffcf13" stroke="none" /><path d="M 118.12598468904814 110.60418214915192 l 12.71122746766139 7.43640545431041 a35.72669106810919,35.72669106810919 0 0,0 -0.3151079254207215,0.5281390079791354 l -12.581338666542441 -7.65410655617565" fill="#ffa80f" stroke="none" /><path d="M 117.94076556474637 110.91462005526583 l 25.165318774975916 15.309820085840512 a50.45647399311331,50.45647399311331 0 0,0 -0.4577972596839002,0.7381149484312893 l -24.898056875624054 -15.740731365637075" fill="#9fff22" stroke="none" /><path d="M 117.75023020441432 111.22182372390056 l 12.467508832345278 7.882049121704231 a35.75010084174227,35.75010084174227 0 0,0 -0.3333188513615788,0.5173182593540647 l -12.329985117606649 -8.095488980979749" fill="#ffa80f" stroke="none" /><path d="M 117.55443506779139 111.5257021239791 l 12.34002798692602 8.102082820075005 a35.76211491424829,35.76211491424829 0 0,0 -0.34228924008137357,0.5116759715076942 l -12.198735641433924 -8.313295705788505" fill="#ffa80f" stroke="none" /><path d="M 117.14729908036423 112.12312394758627 l 14.445051302816752 10.212637369451553 a38.69060398010555,38.69060398010555 0 0,0 -0.3891541621805344,0.5405010948838894 l -14.267117348260616 -10.459772069786574" fill="#ffcf13" stroke="none" /><path d="M 116.93607887273984 112.41649034213515 l 14.325251999559171 10.50239281699824 a38.76268841514173,38.76268841514173 0 0,0 -0.3991426020182418,0.5347167423552401 l -14.142348130845837 -10.747422438862795" fill="#ffd013" stroke="none" /><path d="M 116.498646956653 112.99209946851258 l 11.578721255472386 9.117832429805226 a35.73776286041867,35.73776286041867 0 0,0 -0.38474609742723564,0.48002991395738287 l -11.420057245990296 -9.315790177340858" fill="#ffa80f" stroke="none" /><path d="M 116.27256486870786 113.27417163493432 l 11.43618917180187 9.328949624161478 a35.758581363511226,35.758581363511226 0 0,0 -0.3931809273793778,0.4736117556115223 l -11.273912244528947 -9.52442263688677" fill="#ffa80f" stroke="none" /><path d="M 116.0416608686014 113.55231037782055 l 11.266151931913003 9.517866572270915 a35.74842240514216,35.74842240514216 0 0,0 -0.40116111956188316,0.4666410119093617 l -11.10064830278034 -9.710384683341804" fill="#ffa80f" stroke="none" /><path d="M 115.80600337817218 113.82643327865902 l 11.123276950597669 9.730179281745132 a35.77848703266338,35.77848703266338 0 0,0 -0.4094782252986823,0.46005312697193196 l -10.954139875650649 -9.92020657845793" fill="#ffa80f" stroke="none" /><path d="M 115.32070863581623 114.36230785411682 l 17.22475240230636 16.147242441157637 a44.609860943560875,44.609860943560875 0 0,0 -0.5299937166339925,0.5556962930037852 l -16.944252134293404 -16.44134585074393" fill="#e4ff1a" stroke="none" /><path d="M 115.07121518719521 114.62390073753431 l 23.70109481746026 22.99764509207645 a54.024741866172846,54.024741866172846 0 0,0 -0.6533376036128236,0.6618275431101777 l -23.301716588791898 -23.402213129167293" fill="#77ff27" stroke="none" /><path d="M 114.81725581225074 114.88116024355365 l 10.404956962671589 10.449831861631022 a35.74659673726134,35.74659673726134 0 0,0 -0.43976833187974984,0.43040587170880257 l -10.223538678416045 -10.627387836262397" fill="#ffa80f" stroke="none" /><path d="M 114.29624159901734 115.38237550388516 l 10.098387681994895 10.86559640394795 a35.83369876293006,35.83369876293006 0 0,0 -0.45543001638546254,0.4160245218266554 l -9.90985811614257 -11.037813692361189" fill="#ffa90f" stroke="none" /><path d="M 114.0293411484842 115.62618273729858 l 9.844527471675102 10.965047011589125 a35.73590774628171,35.73590774628171 0 0,0 -0.46126147954544605,0.40700962574623745 l -9.654323639223067 -11.13287977910765" fill="#ffa80f" stroke="none" /><path d="M 113.75828350139079 115.86535959552629 l 9.66198252428038 11.1417116196147 a35.747597909970175,35.747597909970175 0 0,0 -0.468352300689285,0.3991399913335794 l -9.468764747014047 -11.306376001171227" fill="#ffa80f" stroke="none" /><path d="M 113.48314897796784 116.09983520530334 l 9.482679642165909 11.322991371898802 a35.76927035449086,35.76927035449086 0 0,0 -0.47544151600472495,0.391255999778275 l -9.286367997616493 -11.484542490534254" fill="#ffa80f" stroke="none" /><path d="M 112.92097659922987 116.55440617244103 l 19.027940781343315 24.37867276520621 a51.9254299270247,51.9254299270247 0 0,0 -0.7093292431755985,0.5438834163164313 l -18.60548280967422 -24.702595523350013" fill="#8eff24" stroke="none" /><path d="M 112.63410532772338 116.77436683061366 l 8.872403483946032 11.779935883734154 a35.747421232433325,35.747421232433325 0 0,0 -0.4947018037582692,0.36596856777056713 l -8.668316709769199 -11.93091440024449" fill="#ffa80f" stroke="none" /><path d="M 112.34349029814194 116.9893568818739 l 8.728341114200845 12.013530905291258 a35.849540848734584,35.849540848734584 0 0,0 -0.5023590562356044,0.3584198481638992 l -8.520254730116356 -12.161995015299377" fill="#ffa90f" stroke="none" /><path d="M 112.04921762599082 117.19931262002967 l 8.527975948558142 12.173016448716044 a35.862997787791585,35.862997787791585 0 0,0 -0.5086450946608805,0.34985073418135043 l -8.317173969274378 -12.318007972262489" fill="#ffa90f" stroke="none" /><path d="M 111.7513745106137 117.40417183066458 l 8.297829021795568 12.289357469321553 a35.8284278830806,35.8284278830806 0 0,0 -0.5140958012163205,0.340714664258961 l -8.085058521839283 -12.430370154671833" fill="#ffa90f" stroke="none" /><path d="M 111.45004920935366 117.60387380957326 l 11.24626477006705 17.290565500764796 a41.62624848620536,41.62624848620536 0 0,0 -0.6040131155363422,0.38550974822674816 l -10.946969852483777 -17.481589677815354" fill="#fff517" stroke="none" /><path d="M 111.1453310114006 117.79835938074945 l 17.20244147623871 27.47116575606583 a53.41278977102498,53.41278977102498 0 0,0 -0.783440487577072,0.4812531354071028 l -16.727021788729328 -27.76320735830131" fill="#7eff26" stroke="none" /><line stroke="#e1ed5e" stroke-width="0.3" x1="143.8653032363475" x2="146.44561519142675" y1="172.8068346515853" y2="177.08958963109032" /><path d="M 144.38136562736335 173.6633856474863 a86.0,86.0 0 0,1 -40.68145358897372,12.25698825130547" fill="none" id="id114" stroke="none" /><text fill="#e1ed5e" style="font-size:6.75px; font-family:Arial;" text-anchor="middle"><textPath startOffset="21.466115282336833" xlink:href="#id114">June</textPath></text><path d="M 109.89434966115114 118.52300852407294 l 6.940743217498077 12.993622641607832 a35.731196345298954,35.731196345298954 0 0,0 -0.5450012977624422,0.28511892063724564 l -6.716051017209139 -13.111170981189796" fill="#ffa80f" stroke="none" /><path d="M 109.57404056367764 118.69057910512821 l 9.402557342462545 18.35580710473764 a41.62386333945784,41.62386333945784 0 0,0 -0.6405042278710764,0.32116211650421433 l -9.085199206908708 -18.514937062151155" fill="#fff517" stroke="none" /><path d="M 108.92500713936063 119.00905698771935 l 6.265831895803169 13.345373703681389 a35.74312207903655,35.74312207903655 0 0,0 -0.5591790254359847,0.2566916645783968 l -6.035184874599764 -13.451252438593862" fill="#ffa80f" stroke="none" /><path d="M 108.59647513512805 119.15986991738527 l 12.080929053564503 26.92603951142685 a50.51203907845371,50.51203907845371 0 0,0 -0.7963567533216966,0.3490993978885404 l -11.615651625585054 -27.130003462609846" fill="#9eff22" stroke="none" /><path d="M 108.2653958097858 119.30500536409082 l 9.28572738309653 21.68813461152432 a44.59236986741239,44.59236986741239 0 0,0 -0.7082299066394022,0.2960401584144163 l -8.911026016959667 -21.84475981295871" fill="#e4ff1a" stroke="none" /><path d="M 107.93186726928326 119.44442032107085 l 13.359504306366853 32.749894595453334 a56.36993004410863,56.36993004410863 0 0,0 -0.9015938784195466,0.3587628110002029 l -12.79378935190544 -32.975004250859605" fill="#5eff2a" stroke="none" /><path d="M 106.57524785965236 119.94407469862006 l 10.145574830757887 30.7736083268765 a53.40289582896119,53.40289582896119 0 0,0 -0.8754989116306376,0.28030710415974386 l -9.614354574036309 -30.943688277695948" fill="#7eff26" stroke="none" /><path d="M 105.88484417918355 120.15858648285463 l 2.478353620522627 8.489622541090391 a29.843976908526372,29.843976908526372 0 0,0 -0.49437092315629466,0.13971416102164771 l -2.3318515292617263 -8.531025495450558" fill="#ff5607" stroke="none" /><path d="M 105.53697534728816 120.25689768951611 l 4.66749963576284 17.07594068191198 a38.7023530363063,38.7023530363063 0 0,0 -0.6441353462796434,0.17012199940751307 l -4.372873846671699 -17.153754030623077" fill="#ffcf13" stroke="none" /><path d="M 104.83641907484287 120.43548508189849 l 3.4124600907728846 14.418783029018005 a35.81709107446584,35.81709107446584 0 0,0 -0.6011810910052369,0.1368268590352007 l -3.1637588503747858 -14.475386621630891" fill="#ffa90f" stroke="none" /><path d="M 103.7750983002368 120.6578951692458 l 2.65483603443207 14.527654680513525 a35.76823973552588,35.76823973552588 0 0,0 -0.606614065259135,0.10546763086786631 l -2.4043729977008854 -14.571200889902398" fill="#ffa80f" stroke="none" /><path d="M 103.06178313531738 120.77559828337769 l 2.151372866148282 14.59804840822683 a35.75572507666543,35.75572507666543 0 0,0 -0.6096715643494268,0.0844949234788842 l -1.8997727106120246 -14.632917897198316" fill="#ffa80f" stroke="none" /><line stroke="#e1ed5e" stroke-width="0.3" x1="102.19456741930631" x2="102.32365962044197" y1="184.97166512339345" y2="189.96999836594603" /><path d="M 102.22038585953345 185.97133177190398 a86.0,86.0 0 0,1 -42.740103519485714,-10.115201625700543" fill="none" id="id115" stroke="none" /><text fill="#e1ed5e" style="font-size:6.75px; font-family:Arial;" text-anchor="middle"><textPath startOffset="22.20632615414155" xlink:href="#id115">July</textPath></text><path d="M 100.54218724476979 120.99299961872073 l 0.38086641102893454 14.746802877866944 a35.75172038583008,35.75172038583008 0 0,0 -0.6153387096726215,0.010593613924283736 l -0.12696801146364517 -14.751173969070388" fill="#ffa80f" stroke="none" /><path d="M 100.18074693466247 120.99922214144158 l 0.1523106208567723 17.695484395600584 a38.69613987626029,38.69613987626029 0 0,0 -0.6661151110384433,0.0 l 0.15231062085676011 -17.695484395600584" fill="#ffcf13" stroke="none" /><path d="M 98.01472825383883 120.90594882070398 l -1.6792156957697113 17.683018691303293 a38.76257063011717,38.76257063011717 0 0,0 -0.6637027081125486,-0.06879549941250701 l 1.9833510004878532 -17.651493823435025" fill="#ffd013" stroke="none" /><path d="M 97.2962882734958 120.8252237178851 l -1.14630403506393 8.829357710330479 a29.903458345933682,29.903458345933682 0 0,0 -0.5098844503959232,-0.07066533874717854 l 1.2981170766466843 -8.808317806090695" fill="#ff5708" stroke="none" /><path d="M 96.58105272829116 120.7198165907248 l -2.4035628020670745 14.566290868307782 a35.76326331823785,35.76326331823785 0 0,0 -0.6065296673479199,-0.10545295720918309 l 2.6539414408870443 -14.522759332577593" fill="#ffa80f" stroke="none" /><path d="M 95.86986931433489 120.58985236759428 l -2.906742028861496 14.490919004734044 a35.77957654414064,35.77957654414064 0 0,0 -0.6028152232265616,-0.12632579108975994 l 3.1557487135174442 -14.438737232917743" fill="#ffa80f" stroke="none" /><path d="M 95.51606077576429 120.51570834832081 l -5.77288174099081 26.413105130277746 a48.03661010960083,48.03661010960083 0 0,0 -0.8062827216716859,-0.1835073224212997 l 6.226684612055358 -26.309821074278762" fill="#bbff1f" stroke="none" /><path d="M 94.11515582081647 120.15858648285463 l -4.151922876981652 14.22244902963418 a35.816089901757,35.816089901757 0 0,0 -0.5903259539379093,-0.17786036740385136 l 4.3961238053598075 -14.148873293124604" fill="#ffa90f" stroke="none" /><path d="M 93.42475214034765 119.94407469862007 l -3.176940385685064 9.636311469559692 a31.146499344727935,31.146499344727935 0 0,0 -0.5077328304167255,-0.1722505429750605 l 3.3423429490390153 -9.580197939686508" fill="#ff6809" stroke="none" /><path d="M 93.08242187328487 119.8279376855182 l -4.855277586795424 13.91674075426562 a35.73938240450649,35.73938240450649 0 0,0 -0.5791148927346518,-0.20764999661367156 l 5.094112040159803 -13.831103216611991" fill="#ffa80f" stroke="none" /><path d="M 92.7421414339146 119.70592522655815 l -5.095323101813295 13.834391389035188 a35.74288650898742,35.74288650898742 0 0,0 -0.575511158317818,-0.21760907554352635 l 5.332704480891396 -13.744634063385028" fill="#ffa80f" stroke="none" /><path d="M 91.7346041902142 119.30500536409082 l -6.962316585785062 16.26147883637316 a38.68924945232301,38.68924945232301 0 0,0 -0.6099624098415893,-0.26738959533167955 l 7.241199670284394 -16.139224687747028" fill="#ffcf13" stroke="none" /><path d="M 91.40352486487194 119.15986991738527 l -6.037125568666846 13.455577867946028 a35.74786292627545,35.74786292627545 0 0,0 -0.5592531930571827,-0.2567257112955967 l 6.267846757491448 -13.349665086316357" fill="#ffa80f" stroke="none" /><path d="M 91.07499286063937 119.00905698771935 l -6.2635291967308575 13.340469266384286 a35.737703967906384,35.737703967906384 0 0,0 -0.5545935713284845,-0.2662386168335035 l 6.492235436059584 -13.230676373051221" fill="#ffa80f" stroke="none" /><path d="M 90.7491055286396 118.85261126421891 l -6.500511335335712 13.247542019113629 a35.756490679325125,35.756490679325125 0 0,0 -0.5502176303810339,-0.2758905422036888 l 6.727582873399506 -13.133683636000638" fill="#ffa80f" stroke="none" /><path d="M 90.42595943632237 118.69057910512821 l -6.722709690865041 13.124170139264505 a35.745801688345495,35.745801688345495 0 0,0 -0.545224070345753,-0.28523546472395134 l 6.947624663737289 -13.006505255595837" fill="#ffa80f" stroke="none" /><line stroke="#e1ed5e" stroke-width="0.3" x1="58.666819895761336" x2="56.23545636021788" y1="174.27360380694188" y2="178.64263932499728" /><path d="M 58.180547188652646 175.14741091055294 a86.0,86.0 0 0,1 -31.652253787137756,-30.449443065178592" fill="none" id="id116" stroke="none" /><text fill="#e1ed5e" style="font-size:6.75px; font-family:Arial;" text-anchor="middle"><textPath startOffset="22.20632615414155" xlink:href="#id116">August</textPath></text><path d="M 89.4739219176387 118.17145234162733 l -25.102506699502417 43.33513399542085 a71.08063179513258,71.08063179513258 0 0,0 -1.0534560172498468,-0.6224003836548229 l 25.84473058778065 -42.89661503947228" fill="#3cffa8" stroke="none" /><path d="M 89.1626897886671 117.98757091392108 l -7.622351248069341 12.651440341911089 a35.77021263468741,35.77021263468741 0 0,0 -0.5246652149679931,-0.3222922273563869 l 7.838995662969643 -12.518359647726324" fill="#ffa80f" stroke="none" /><path d="M 88.54995079064634 117.60387380957326 l -9.654495192027763 14.84329996737037 a38.706858313496056,38.706858313496056 0 0,0 -0.5553978924830387,-0.3680874382163388 l 9.908567783250763 -14.674914508062713" fill="#ffcf13" stroke="none" /><path d="M 88.24862548938628 117.40417183066458 l -8.252531525527054 12.222270388755435 a35.74748012494561,35.74748012494561 0 0,0 -0.5070067070140529,-0.34872383621824254 l 8.461695117163998 -12.078405763172091" fill="#ffa80f" stroke="none" /><path d="M 87.07902340077011 116.55440617244103 l -9.096019277047901 11.653855767649887 a35.78343400369527,35.78343400369527 0 0,0 -0.48229680378994544,-0.38316574989841296 l 9.295273573555203 -11.495556103746344" fill="#ffa80f" stroke="none" /><path d="M 86.79598089348748 116.32954008644616 l -9.281887437580794 11.479001337941064 a35.762144360504436,35.762144360504436 0 0,0 -0.47534679801494695,-0.3911780533210484 l 9.47810436414043 -11.317528165762836" fill="#ffa80f" stroke="none" /><path d="M 86.51685102203217 116.09983520530335 l -17.039942386015504 20.346898545065343 a47.53970453720067,47.53970453720067 0 0,0 -0.6228482834052499,-0.5308048195228975 l 17.38765614599781 -20.050569335319494" fill="#c1ff1e" stroke="none" /><path d="M 86.24171649860922 115.8653595955263 l -9.662021108084186 11.141756112513988 a35.74765680248246,35.74765680248246 0 0,0 -0.46141313057065286,-0.4071434401438201 l 9.852376591561427 -10.973789530597879" fill="#ffa80f" stroke="none" /><path d="M 85.97065885151581 115.62618273729859 l -13.788641362629795 15.358086124722032 a41.63970542526236,41.63970542526236 0 0,0 -0.5292217208604754,-0.4834314942801505 l 14.050962632957123 -15.118461863855305" fill="#fff517" stroke="none" /><path d="M 85.44109423537348 115.13401014063109 l -10.22282416963554 10.626645103030635 a35.74556611829636,35.74556611829636 0 0,0 -0.4397556528102886,-0.43039346257074834 l 10.404229774821625 -10.449101537537317" fill="#ffa80f" stroke="none" /><path d="M 85.18274418774928 114.88116024355367 l -14.562186016881082 14.62499037335085 a41.63849812876053,41.63849812876053 0 0,0 -0.5035469980193511,-0.5100904504758073 l 14.811773639955966 -14.372159428894378" fill="#fff517" stroke="none" /><path d="M 84.19399662182784 113.82643327865904 l -11.129327509710421 9.735472058791276 a35.7865258605902,35.7865258605902 0 0,0 -0.40158870835652927,-0.46713839427789994 l 11.29525872763773 -9.542456565351845" fill="#ffa80f" stroke="none" /><path d="M 83.06392112726016 112.41649034213515 l -11.921806879472133 8.740334825555696 a35.782521169754865,35.782521169754865 0 0,0 -0.3599043595618973,-0.4998756773066336 l 12.070491031409636 -8.533825542797924" fill="#ffa80f" stroke="none" /><path d="M 82.6465618267979 111.8261652097733 l -17.064953792802143 11.629566477637473 a41.650895002596414,41.650895002596414 0 0,0 -0.3986524072564575,-0.5959312589794987 l 17.262609305469333 -11.334098304452153" fill="#fff517" stroke="none" /><line stroke="#e1ed5e" stroke-width="0.3" x1="26.63291911575756" x2="22.317208475507996" y1="142.92168965132927" y2="145.44649492493687" /><path d="M 25.769776987707644 143.4266507060508 a86.0,86.0 0 0,1 -11.730757126820373,-40.83630448921669" fill="none" id="id117" stroke="none" /><text fill="#e1ed5e" style="font-size:6.75px; font-family:Arial;" text-anchor="middle"><textPath startOffset="21.46611528233685" xlink:href="#id117">September</textPath></text><path d="M 81.87401531095188 110.60418214915194 l -13.064895340461186 7.643310547071431 a36.13643572232835,36.13643572232835 0 0,0 -0.30947932527755634,-0.539603289711386 l 13.19452666189112 -7.417287411501738" fill="#ffad10" stroke="none" /><path d="M 81.69416730710424 110.29060199501025 l -20.565001843049785 11.560591235798128 a44.591663157264975,44.591663157264975 0 0,0 -0.37037323792469906,-0.6723350090125584 l 20.760951490426 -11.204885708387748" fill="#e4ff1a" stroke="none" /><path d="M 81.51974371655577 109.97397251340807 l -18.169930057488948 9.806486456916495 a41.64736145185934,41.64736145185934 0 0,0 -0.33505796458777154,-0.6338033991092913 l 18.336040530301606 -9.492268042721077" fill="#fff517" stroke="none" /><path d="M 81.18737489456691 109.33194174019688 l -13.223137219753333 6.559294381608117 a35.76061315518504,35.76061315518504 0 0,0 -0.26879506323841895,-0.5537974447390143 l 13.33408553960647 -6.330707980903819" fill="#ffa80f" stroke="none" /><path d="M 81.02952815118164 109.00673069616217 l -29.80739615391499 14.151845671084587 a53.99629678273945,53.99629678273945 0 0,0 -0.39140985557061647,-0.8430620074436712 l 30.046580626325433 -13.636663596362087" fill="#77ff26" stroke="none" /><path d="M 79.58551787078972 104.9243191809786 l -2.9234959060677226 0.7051967752423514 a24.00734613980615,24.00734613980615 0 0,0 -0.09344508985604885,-0.40255900141464107 l 2.9352015618543263 -0.654769116479136" fill="#ff0000" stroke="none" /><path d="M 79.35854240842038 103.8639653848113 l -13.048427608154874 2.442592650273595 a34.27507897906558,34.27507897906558 0 0,0 -0.1035655095393809,-0.5808503774184585 l 13.088539560033444 -2.2176235221219227" fill="#ff940d" stroke="none" /><path d="M 79.23777060512086 103.15116336523772 l -14.605685730263472 2.216761067514905 a35.77295113650864,35.77295113650864 0 0,0 -0.08715985680172844,-0.6095958354677853 l 14.6416796380818 -1.9650197600667192" fill="#ffa80f" stroke="none" /><path d="M 79.10278846688536 102.07522291339032 l -14.724933598924657 1.4622773739078325 a35.79736208285055,35.79736208285055 0 0,0 -0.05561444715089116,-0.6137007900329553 l 14.747922642352625 -1.208595195326311" fill="#ffa80f" stroke="none" /><path d="M 79.07016306316243 101.71520430193888 l -32.97844001861173 2.7025897221205453 a54.088993597075195,54.088993597075195 0 0,0 -0.06805796901035512,-0.9285969148381104 l 33.020074546286416 -2.134519670785674" fill="#76ff27" stroke="none" /><line stroke="#e1ed5e" stroke-width="0.3" x1="15.007084014347285" x2="10.007500721073583" y1="101.09737516637583" y2="101.16192664675087" /><path d="M 14.007167355692545 101.11028546245083 a86.0,86.0 0 0,1 10.666146001902534,-42.60595125391555" fill="none" id="id118" stroke="none" /><text fill="#e1ed5e" style="font-size:6.75px; font-family:Arial;" text-anchor="middle"><textPath startOffset="22.20632615414155" xlink:href="#id118">October</textPath></text><path d="M 79.01574976396665 99.18683210126434 l -15.324049815249092 -0.5938275253212998 a36.33555130636212,36.33555130636212 0 0,0 0.029598579795163556,-0.6247792386408179 l 15.311557627220429 0.8575178705851267" fill="#ffb010" stroke="none" /><path d="M 79.03285615573316 98.82574320788736 l -15.146387387031869 -0.8482675750829415 a36.17012223935507,36.17012223935507 0 0,0 0.040165041615232926,-0.6213354163194236 l 15.129541754412223 1.1088620556553768" fill="#ffad10" stroke="none" /><path d="M 79.16333360222342 97.38593545837743 l -16.113009802391982 -2.021458076794098 a37.239315799879506,37.239315799879506 0 0,0 0.08526739504795373,-0.6353411335789787 l 16.075826408286193 2.2985175524377364" fill="#ffbc11" stroke="none" /><path d="M 79.32604984820605 96.31383870115002 l -26.269980545942175 -4.683932431828531 a47.68428565485903,47.68428565485903 0 0,0 0.15103265434325328,-0.8068224787480179 l 26.18546216768906 5.135432988039121" fill="#bfff1e" stroke="none" /><path d="M 79.62865764111835 94.90015583598534 l -8.62315551125228 -2.158755595714458 a29.889265250473127,29.889265250473127 0 0,0 0.12924071059258652,-0.49801717851708005 l 8.584718468789386 2.306869199780402" fill="#ff5608" stroke="none" /><path d="M 79.81627453868168 94.20196356495316 l -28.78744373096645 -8.269565890790831 a50.95167168265723,50.95167168265723 0 0,0 0.24940625625131402,-0.8408739095879766 l 28.640831577603432 8.763869187125348" fill="#99ff23" stroke="none" /><path d="M 80.2630227832202 92.82701384747504 l -8.346465599854954 -3.033346064735107 a29.88057860491117,29.88057860491117 0 0,0 0.17984609659891476,-0.48189812503140445 l 8.29301491475441 3.176567326795853" fill="#ff5608" stroke="none" /><path d="M 80.38941819471856 92.48833698450439 l -8.788226581077817 -3.3662538539830105 a30.410876231776623,30.410876231776623 0 0,0 0.19145304721859246,-0.4872271223891915 l 8.728979983977533 3.517029981267965" fill="#ff5e08" stroke="none" /><path d="M 80.65960295795068 91.81776055985345 l -8.18288002521237 -3.461887753943724 a29.885054435844786,29.885054435844786 0 0,0 0.20451237901371902,-0.47204276764027436 l 8.12207693635597 3.6022296661705973" fill="#ff5608" stroke="none" /><path d="M 80.95270993114464 91.15688171328213 l -13.056461562905827 -6.061745980104143 a35.39499749464883,35.39499749464883 0 0,0 0.26131925431128733,-0.5504049942981875 l 12.950184114752789 6.285593390042862" fill="#ffa30f" stroke="none" /><path d="M 81.10775173730289 90.83032412892265 l -13.277990637436575 -6.444699893389551 a35.75937641242707,35.75937641242707 0 0,0 0.27354217922315816,-0.551444341543853 l 13.165088445260006 6.672303823432365" fill="#ffa80f" stroke="none" /><path d="M 81.26839172434947 90.50648371742162 l -7.936439395800843 -4.0223303584494365 a29.897539648449094,29.897539648449094 0 0,0 0.23660424101398667,-0.4570440840216809 l 7.866025721626742 4.158347164731453" fill="#ff5708" stroke="none" /><path d="M 81.43458229118936 90.18545643968196 l -13.029229379102809 -6.8878568370639845 a35.737821752930955,35.737821752930955 0 0,0 0.29218545459772194,-0.5413752720896077 l 12.908735825286616 7.1111130924860655" fill="#ffa80f" stroke="none" /><line stroke="#e1ed5e" stroke-width="0.3" x1="26.266209847984243" x2="21.928928074336255" y1="57.711370442889674" y2="55.22380399835377" /><path d="M 25.398753493254645 57.213857153982495 a86.0,86.0 0 0,1 29.58750427330803,-30.492523968695096" fill="none" id="id119" stroke="none" /><text fill="#e1ed5e" style="font-size:6.75px; font-family:Arial;" text-anchor="middle"><textPath startOffset="21.46611528233685" xlink:href="#id119">November</textPath></text><path d="M 82.15384107792192 88.93136811851018 l -7.519341156180918 -4.663682510757957 a29.848187723154716,29.848187723154716 0 0,0 0.2745641033420735,-0.4342944747751237 l 7.437949456592882 4.792424633247297" fill="#ff5607" stroke="none" /><path d="M 82.54541684631803 88.32363383020206 l -7.496699536206175 -5.0149698837828 a30.019447148877937,30.019447148877937 0 0,0 0.2910107139838969,-0.427022313935338 l 7.409264356553537 5.143270220988554" fill="#ff5808" stroke="none" /><path d="M 82.7489923806493 88.02491185347247 l -7.389622556442789 -5.129635522490198 a29.99553678889044,29.99553678889044 0 0,0 0.29808047571666363,-0.4216136937334975 l 7.300229460922247 5.256075716555482" fill="#ff5808" stroke="none" /><path d="M 83.17141714833178 87.43820079747576 l -26.793167291794497 -19.999924562025633 a54.43457485916043,54.43457485916043 0 0,0 0.5669595812081061,-0.7460523506147759 l 26.444931770362285 20.458161688521436" fill="#73ff27" stroke="none" /><path d="M 83.39014120810768 87.1503855733568 l -7.1181016654147635 -5.506661013570615 a29.9994825872135,29.9994825872135 0 0,0 0.3194886602344057,-0.4057181539162732 l 7.022258924586387 5.628371561439936" fill="#ff5808" stroke="none" /><path d="M 83.84228863543731 86.58626213691792 l -11.367524522248829 -9.437041586720413 a35.77424677177889,35.77424677177889 0 0,0 0.39741676582612023,-0.47041609903743964 l 11.203397142935584 9.631316635386968" fill="#ffa80f" stroke="none" /><path d="M 84.07557802195018 86.31012108654704 l -6.7475695697298805 -5.8007386702656625 a29.898216912340366,29.898216912340366 0 0,0 0.3388580423643586,-0.3873733199579947 l 6.646719663787678 5.9160275464266" fill="#ff5708" stroke="none" /><path d="M 85.05521093208273 85.24692304244772 l -2.1481399770737046 -2.1205835862479367 a24.018506270884057,24.018506270884057 0 0,0 0.29298483047892304,-0.2917266605065741 l 2.1113193464274684 2.15724609740462" fill="#ff0000" stroke="none" /><line stroke="#e1ed5e" stroke-width="0.3" x1="56.762969772571076" x2="54.21961505331055" y1="26.818313649435495" y2="22.513508569990535" /><path d="M 56.25429882871897 25.957352633546506 a86.0,86.0 0 0,1 42.265352541879196,-11.944610805530505" fill="none" id="id120" stroke="none" /><text fill="#e1ed5e" style="font-size:6.75px; font-family:Arial;" text-anchor="middle"><textPath startOffset="22.20632615414155" xlink:href="#id120">December</textPath></text><path d="M 91.90106846888425 80.62456947434976 l -5.705722211664875 -13.650050489504764 a35.794564688517035,35.794564688517035 0 0,0 0.570524675348039,-0.2327313400959402 l 5.469913666728456 13.746242715784282" fill="#ffa80f" stroke="none" /><path d="M 93.59665428221793 80.00007090966166 l -3.7756613668000805 -11.792735069017471 a33.38241572411382,33.38241572411382 0 0,0 0.5487665810578791,-0.17050444799351985 l 3.572109413031473 11.855979651893517" fill="#ff880c" stroke="none" /></svg>