<?xml version="1.0" encoding="utf-8" ?>
<svg baseProfile="full" height="200mm" version="1.1" viewBox="0,0,200,200" width="200mm" xmlns="http://www.w3.org/2000/svg" xmlns:ev="http://www.w3.org/2001/xml-events" xmlns:xlink="http://www.w3.org/1999/xlink"><defs /><rect fill="#1a1a1a" height="200" width="200" x="0" y="0" /><text alignment-baseline="middle" fill="#e1ed5e" style="dominant-baseline: central; font-size:9.0px; font-family:Arial;" text-anchor="middle" x="100.0" y="100.0">2019</text><line stroke="#e1ed5e" stroke-width="0.3" x1="100.0" x2="100.0" y1="15.0" y2="10.0" /><path d="M 100.0 14.0 a86.0,86.0 0 0,1 42.46469731375804,11.215312516191453" fill="none" id="id37" stroke="none" /><text fill="#e1ed5e" style="font-size:6.75px; font-family:Arial;" text-anchor="middle"><textPath startOffset="22.20632615414155" xlink:href="#id37">January</textPath></text><line stroke="#e1ed5e" stroke-width="0.3" x1="143.23703022742887" x2="145.7803849466894" y1="26.81831364943548" y2="22.513508569990506" /><path d="M 143.74570117128098 25.957352633546492 a86.0,86.0 0 0,1 28.547481713284135,27.462654790039103" fill="none" id="id38" stroke="none" /><text fill="#e1ed5e" style="font-size:6.75px; font-family:Arial;" text-anchor="middle"><textPath startOffset="19.985693538727396" xlink:href="#id38">February</textPath></text><line stroke="#e1ed5e" stroke-width="0.3" x1="172.23445277983987" x2="176.4835382374775" y1="55.19839476539836" y2="52.563006222186495" /><path d="M 173.08426987136738 54.67131705675599 a86.0,86.0 0 0,1 12.851231095245387,41.99856678651699" fill="none" id="id39" stroke="none" /><text fill="#e1ed5e" style="font-size:6.75px; font-family:Arial;" text-anchor="middle"><textPath startOffset="22.20632615414155" xlink:href="#id39">March</textPath></text><line stroke="#e1ed5e" stroke-width="0.3" x1="184.98032266829074" x2="189.97916517819016" y1="98.17113171792111" y2="98.06355123074" /><path d="M 185.9800911702706 98.14961562048488 a86.0,86.0 0 0,1 -9.607161424134198,41.387399972396054" fill="none" id="id40" stroke="none" /><text fill="#e1ed5e" style="font-size:6.75px; font-family:Arial;" text-anchor="middle"><textPath startOffset="21.466115282336823" xlink:href="#id40">April</textPath></text><line stroke="#e1ed5e" stroke-width="0.3" x1="174.80103733775053" x2="179.2010983576182" y1="140.37084112569926" y2="142.7455964860345" /><path d="M 175.68104954172406 140.8457921977663 a86.0,86.0 0 0,1 -30.038265399797805,32.042727171017184" fill="none" id="id41" stroke="none" /><text fill="#e1ed5e" style="font-size:6.75px; font-family:Arial;" text-anchor="middle"><textPath startOffset="22.206326154141568" xlink:href="#id41">May</textPath></text><line stroke="#e1ed5e" stroke-width="0.3" x1="143.8653032363475" x2="146.44561519142675" y1="172.8068346515853" y2="177.08958963109032" /><path d="M 144.38136562736335 173.6633856474863 a86.0,86.0 0 0,1 -40.68145358897372,12.25698825130547" fill="none" id="id42" stroke="none" /><text fill="#e1ed5e" style="font-size:6.75px; font-family:Arial;" text-anchor="middle"><textPath startOffset="21.466115282336833" xlink:href="#id42">June</textPath></text><line stroke="#e1ed5e" stroke-width="0.3" x1="102.19456741930631" x2="102.32365962044197" y1="184.97166512339345" y2="189.96999836594603" /><path d="M 102.22038585953345 185.97133177190398 a86.0,86.0 0 0,1 -42.740103519485714,-10.115201625700543" fill="none" id="id43" stroke="none" /><text fill="#e1ed5e" style="font-size:6.75px; font-family:Arial;" text-anchor="middle"><textPath startOffset="22.20632615414155" xlink:href="#id43">July</textPath></text><path d="M 91.40352486487194 119.15986991738527 l -7.771435162453911 17.321016398402325 a39.98454143659907,39.98454143659907 0 0,0 -0.62553340649936,-0.2871517064477193 l 8.06843656472069 -17.18467762162053" fill="#ffc011" stroke="none" /><path d="M 90.42595943632237 118.69057910512821 l -6.397809060633074 12.489894475790196 a35.03315448474409,35.03315448474409 0 0,0 -0.5343541949837253,-0.27954885967657467 l 6.611854158143295 -12.377916197168904" fill="#ff790b" stroke="none" /><line stroke="#e1ed5e" stroke-width="0.3" x1="58.666819895761336" x2="56.23545636021788" y1="174.27360380694188" y2="178.64263932499728" /><path d="M 58.180547188652646 175.14741091055294 a86.0,86.0 0 0,1 -31.652253787137756,-30.449443065178592" fill="none" id="id44" stroke="none" /><text fill="#e1ed5e" style="font-size:6.75px; font-family:Arial;" text-anchor="middle"><textPath startOffset="22.20632615414155" xlink:href="#id44">August</textPath></text><path d="M 89.1626897886671 117.98757091392108 l -10.482743612038211 17.39906770379319 a41.31293850226764,41.31293850226764 0 0,0 -0.6059640176483717,-0.37223259208757087 l 10.780686829618892 -17.216046644877242" fill="#ffd213" stroke="none" /><path d="M 87.65650970185807 116.9893568818739 l -9.93132800552968 13.669300313080097 a37.896184391826154,37.896184391826154 0 0,0 -0.524438130859719,-0.3879667916650456 l 10.165151106807963 -13.496323572675283" fill="#ffa20f" stroke="none" /><path d="M 87.07902340077011 116.55440617244103 l -24.810486239565233 31.787292809585455 a61.323593733768064,61.323593733768064 0 0,0 -0.8265325583803724,-0.6566474524786629 l 25.353976290662963 -31.355511443101662" fill="#38ff2e" stroke="none" /><path d="M 85.18274418774928 114.88116024355367 l -23.434247399463654 23.53531552382153 a54.212573341809936,54.212573341809936 0 0,0 -0.6556091066674815,-0.664128563711953 l 23.83589713118667 -23.128446466128914" fill="#87ff25" stroke="none" /><path d="M 84.67929136418377 114.36230785411682 l -8.971808367083003 8.410568782370312 a33.29760190519447,33.29760190519447 0 0,0 -0.38839843770503063,-0.42152979450572964 l 9.115253212783763 -8.254887733063239" fill="#ff5f08" stroke="none" /><path d="M 83.95833913139862 113.55231037782056 l -13.090936666816138 11.059480579865419 a38.13723237605803,38.13723237605803 0 0,0 -0.4193352146962634,-0.5051162795351023 l 13.279367881405937 -10.832503043216555" fill="#ffa60f" stroke="none" /><path d="M 82.05923443525364 110.91462005526583 l -51.02975113572848 31.04495976780913 a80.73127345000498,80.73127345000498 0 0,0 -0.7120464653417383,-1.1934308327489207 l 51.55657847676845 -30.161966841174095" fill="#49f3ff" stroke="none" /><line stroke="#e1ed5e" stroke-width="0.3" x1="26.63291911575756" x2="22.317208475507996" y1="142.92168965132927" y2="145.44649492493687" /><path d="M 25.769776987707644 143.4266507060508 a86.0,86.0 0 0,1 -11.730757126820373,-40.83630448921669" fill="none" id="id45" stroke="none" /><text fill="#e1ed5e" style="font-size:6.75px; font-family:Arial;" text-anchor="middle"><textPath startOffset="21.46611528233685" xlink:href="#id45">September</textPath></text><path d="M 80.87730276802145 108.67885076344099 l -38.70176816043967 17.564827078057306 a63.50117656049626,63.50117656049626 0 0,0 -0.4431744549997051,-0.9992414013850962 l 38.998383700170656 -16.896037340179515" fill="#31ff42" stroke="none" /><path d="M 79.50377843672027 104.57218783832718 l -10.255167649529358 2.2876681276313007 a31.50723031926747,31.50723031926747 0 0,0 -0.11352499377322946,-0.5303509764920524 l 10.293026682027028 -2.1108033317230843" fill="#ff4406" stroke="none" /><path d="M 79.18660465613746 102.79330883721812 l -13.321627506602537 1.7878591755714577 a34.44106394063894,34.44106394063894 0 0,0 -0.07379980463150257,-0.5882570551885394 l 13.35042882048089 -1.5582843660955097" fill="#ff700a" stroke="none" /><path d="M 79.07016306316243 101.71520430193888 l -13.694774861211851 1.1222895250890648 a34.74068383587239,34.74068383587239 0 0,0 -0.04371278196657369,-0.5964261799668933 l 13.712064201842761 -0.8863902086254108" fill="#ff740a" stroke="none" /><path d="M 79.04373962182676 101.35467743843564 l -40.29129901988541 2.6045540932652185 a61.37539447156601,61.37539447156601 0 0,0 -0.05907717561845554,-1.0548626564694186 l 40.33016254639139 -1.9106197204603623" fill="#37ff2e" stroke="none" /><line stroke="#e1ed5e" stroke-width="0.3" x1="15.007084014347285" x2="10.007500721073583" y1="101.09737516637583" y2="101.16192664675087" /><path d="M 14.007167355692545 101.11028546245083 a86.0,86.0 0 0,1 10.666146001902534,-42.60595125391555" fill="none" id="id46" stroke="none" /><text fill="#e1ed5e" style="font-size:6.75px; font-family:Arial;" text-anchor="middle"><textPath startOffset="22.20632615414155" xlink:href="#id46">October</textPath></text><path d="M 79.3925641242962 95.95851677861259 l -39.327365142281025 -7.712792960879545 a61.07653707958927,61.07653707958927 0 0,0 0.21121052979970067,-1.0299375531962462 l 39.188775316566336 8.388606170239195" fill="#3aff2e" stroke="none" /><path d="M 79.81627453868168 94.20196356495316 l -11.781024613053956 -3.3842518359447102 a33.25747532824269,33.25747532824269 0 0,0 0.16279392098553555,-0.5488601723700434 l 11.721024794956714 3.586541395061293" fill="#ff5e08" stroke="none" /><path d="M 80.02781315780177 93.51064311812611 l -37.823004621625934 -12.289439172274502 a60.76946056682906,60.76946056682906 0 0,0 0.3318090859343896,-0.9920669334862051 l 37.60585824191977 12.938679208683029" fill="#3eff2e" stroke="none" /><path d="M 80.2630227832202 92.82701384747504 l -13.719300322277537 -4.985988996854291 a35.597235615334725,35.597235615334725 0 0,0 0.2142536782764167,-0.5740933375537602 l 13.631442055499491 5.221405471437393" fill="#ff810b" stroke="none" /><path d="M 80.65960295795068 91.81776055985345 l -5.680339894942371 -2.403151342797381 a27.16777088569791,27.16777088569791 0 0,0 0.1859171937685872,-0.42912251630768 l 5.638131991331103 2.5005730036916605" fill="#ff0000" stroke="none" /><path d="M 80.95270993114464 91.15688171328213 l -39.61921139185107 -18.39407976137751 a64.68093498976526,64.68093498976526 0 0,0 0.47753566594368846,-1.0058118992556915 l 39.29671753206563 19.073334076273735" fill="#33ff51" stroke="none" /><path d="M 81.6062741919709 89.86733742301443 l -15.963730558827436 -8.794036450837133 a39.225689848493886,39.225689848493886 0 0,0 0.33088243912827453,-0.5886029383544831 l 15.80999047840673 9.067522899126402" fill="#ffb510" stroke="none" /><line stroke="#e1ed5e" stroke-width="0.3" x1="26.266209847984243" x2="21.928928074336255" y1="57.711370442889674" y2="55.22380399835377" /><path d="M 25.398753493254645 57.213857153982495 a86.0,86.0 0 0,1 29.58750427330803,-30.492523968695096" fill="none" id="id47" stroke="none" /><text fill="#e1ed5e" style="font-size:6.75px; font-family:Arial;" text-anchor="middle"><textPath startOffset="21.46611528233685" xlink:href="#id47">November</textPath></text><path d="M 82.7489923806493 88.02491185347247 l -13.839720108911449 -9.607083359094934 a37.8473708145101,37.8473708145101 0 0,0 0.3761080315519653,-0.5319781379314077 l 13.672299457555605 9.843887997358127" fill="#ffa10e" stroke="none" /><path d="M 83.39014120810768 87.1503855733568 l -49.82957637567698 -38.54884327992962 a84.0,84.0 0 0,0 0.8945836776241158,-1.1360304241878092 l 49.15863861745889 39.40086609807048" fill="#4dd2ff" stroke="none" /><path d="M 83.6137871275137 86.86637796730984 l -19.87453293069802 -15.929525975237508 a46.47050955534982,46.47050955534982 0 0,0 0.5056467384464687,-0.6198631129920174 l 19.59738770017516 16.269273257837607" fill="#e7ff1a" stroke="none" /><path d="M 84.07557802195018 86.31012108654704 l -15.827490533312298 -13.60654906052695 a41.872173674982136,41.872173674982136 0 0,0 0.47456752496797033,-0.542512718330061 l 15.590931144766484 13.876977335059955" fill="#ffda14" stroke="none" /><path d="M 85.05521093208273 85.24692304244772 l -43.16956191806819 -42.6157817488578 a81.66066213176546,81.66066213176546 0 0,0 0.9961208653710041,-0.9918432058089326 l 42.429605252529875 43.35256080531684" fill="#4ae9ff" stroke="none" /><line stroke="#e1ed5e" stroke-width="0.3" x1="56.762969772571076" x2="54.21961505331055" y1="26.818313649435495" y2="22.513508569990535" /><path d="M 56.25429882871897 25.957352633546506 a86.0,86.0 0 0,1 42.265352541879196,-11.944610805530505" fill="none" id="id48" stroke="none" /><text fill="#e1ed5e" style="font-size:6.75px; font-family:Arial;" text-anchor="middle"><textPath startOffset="22.20632615414155" xlink:href="#id48">December</textPath></text><path d="M 90.26544431104013 81.39251694778311 l -11.219952845724498 -21.44680138409056 a45.204392813473135,45.204392813473135 0 0,0 0.6925733001263257,-0.3547629440176212 l 10.849119058009407 21.636756853420685" fill="#f8ff18" stroke="none" /><path d="M 91.23893434514133 80.91482961587045 l -26.071145179053964 -56.793575970484966 a83.49171851103597,83.49171851103597 0 0,0 1.3112886535656325,-0.5883369957081003 l 25.08967440702156 57.233933296709594" fill="#4cd7ff" stroke="none" /><path d="M 93.59665428221793 80.00007090966166 l -18.851579442543134 -58.88019618318131 a82.824425189794,82.824425189794 0 0,0 1.3615334796353746,-0.42303507972808013 l 17.83526059019703 59.19597139779192" fill="#4bdeff" stroke="none" /></svg>