<?xml version="1.0" encoding="utf-8" ?>
<svg baseProfile="full" height="300mm" version="1.1" viewBox="0,0,200,300" width="200mm" xmlns="http://www.w3.org/2000/svg" xmlns:ev="http://www.w3.org/2001/xml-events" xmlns:xlink="http://www.w3.org/1999/xlink"><defs /><rect fill="#222222" height="300" width="200" x="0" y="0" /><text fill="#FFFFFF" style="font-size:12px; font-family:Arial; font-weight:bold;" x="10" y="20">MY TRACKS</text><text fill="#FFFFFF" style="font-size:4px; font-family:Arial" x="10" y="280">Runner</text><text fill="#FFFFFF" style="font-size:9px; font-family:Arial" x="10" y="290">Echo</text><text fill="#FFFFFF" style="font-size:4px; font-family:Arial" x="65" y="280">SPECIAL TRACKS</text><rect fill="#FFFF00" height="2.6" width="2.6" x="65" y="283" /><text fill="#FFFFFF" style="font-size:3px; font-family:Arial" x="70" y="285.5">Over 10.0 km</text><rect fill="#FFFF00" height="2.6" width="2.6" x="65" y="287" /><text fill="#FFFFFF" style="font-size:3px; font-family:Arial" x="70" y="289.5">Over 20.0 km</text><text fill="#FFFFFF" style="font-size:4px; font-family:Arial" x="120" y="280">STATISTICS</text><text fill="#FFFFFF" style="font-size:3px; font-family:Arial" x="120" y="285">Number: 592</text><text fill="#FFFFFF" style="font-size:3px; font-family:Arial" x="120" y="290">Weekly: 3.7</text><text fill="#FFFFFF" style="font-size:3px; font-family:Arial" x="141" y="285">Total: 4039.6 km</text><text fill="#FFFFFF" style="font-size:3px; font-family:Arial" x="141" y="290">Avg: 6.8 km</text><text fill="#FFFFFF" style="font-size:3px; font-family:Arial" x="167" y="285">Min: 1.0 km</text><text fill="#FFFFFF" style="font-size:3px; font-family:Arial" x="167" y="290">Max: 580.8 km</text><text fill="#555555" style="font-size:6px; font-family:Arial;" x="16" y="44">Running for 3650 Days</text><text fill="#555555" style="font-size:6px; font-family:Arial;" x="16" y="64">Races</text><text fill="#555555" style="font-size:6px; font-family:Arial;" x="16" y="96">Stats</text><text fill="#555555" style="font-size:5px; font-family:Arial;" x="16" y="102">Distance</text><text fill="#FFFFFF" style="font-size:10px; font-family:Arial; font-weight:bold;" x="16" y="113">29</text><text fill="#555555" style="font-size:6px; font-family:Arial;" x="28" y="113">km</text><text fill="#555555" style="font-size:5px; font-family:Arial;" x="58" y="102">Runs</text><text fill="#FFFFFF" style="font-size:10px; font-family:Arial; font-weight:bold;" x="58" y="113">5</text><text fill="#555555" style="font-size:5px; font-family:Arial;" x="16" y="130">Avg Pace</text><text fill="#FFFFFF" style="font-size:10px; font-family:Arial; font-weight:bold;" x="16" y="141">0'00"</text><text fill="#555555" style="font-size:5px; font-family:Arial;" x="58" y="130">Streak</text><text fill="#FFFFFF" style="font-size:10px; font-family:Arial; font-weight:bold;" x="58" y="141">1</text><text fill="#555555" style="font-size:6px; font-family:Arial;" x="64" y="141">d</text><text fill="#555555" style="font-size:5px; font-family:Arial;" x="16" y="158">Time</text><text fill="#FFFFFF" style="font-size:10px; font-family:Arial; font-weight:bold;" x="16" y="169">0</text><text fill="#555555" style="font-size:6px; font-family:Arial;" x="22" y="169">h</text><text fill="#555555" style="font-size:5px; font-family:Arial;" x="58" y="158">Longest</text><text fill="#FFFFFF" style="font-size:10px; font-family:Arial; font-weight:bold;" x="58" y="169">7.3</text><text fill="#555555" style="font-size:5px; font-family:Arial;" x="16" y="232.70967741935485">Runner</text><text fill="#FFFFFF" style="font-size:8px; font-family:Arial; font-weight:bold;" x="16" y="242.70967741935485">Echo</text><text fill="#555555" style="font-size:7px; font-family:Arial;" x="16" y="261.38709677419354">running_page/2024</text><circle cx="86.16666666666667" cy="41.61290322580645" fill="#555555" r="2.7096774193548385"><title>2024-01-01</title></circle><circle cx="86.16666666666667" cy="48.83870967741935" fill="#5093aa" r="2.7096774193548385"><title>2024-01-02: 5 km</title></circle><circle cx="86.16666666666667" cy="56.064516129032256" fill="#555555" r="2.7096774193548385"><title>2024-01-03</title></circle><circle cx="86.16666666666667" cy="63.29032258064515" fill="#555555" r="2.7096774193548385"><title>2024-01-04</title></circle><circle cx="86.16666666666667" cy="70.51612903225806" fill="#555555" r="2.7096774193548385"><title>2024-01-05</title></circle><circle cx="86.16666666666667" cy="77.74193548387096" fill="#555555" r="2.7096774193548385"><title>2024-01-06</title></circle><circle cx="86.16666666666667" cy="84.96774193548386" fill="#555555" r="2.7096774193548385"><title>2024-01-07</title></circle><circle cx="86.16666666666667" cy="92.19354838709677" fill="#555555" r="2.7096774193548385"><title>2024-01-08</title></circle><circle cx="86.16666666666667" cy="99.41935483870968" fill="#555555" r="2.7096774193548385"><title>2024-01-09</title></circle><circle cx="86.16666666666667" cy="106.64516129032258" fill="#555555" r="2.7096774193548385"><title>2024-01-10</title></circle><circle cx="86.16666666666667" cy="113.87096774193547" fill="#555555" r="2.7096774193548385"><title>2024-01-11</title></circle><circle cx="86.16666666666667" cy="121.09677419354838" fill="#555555" r="2.7096774193548385"><title>2024-01-12</title></circle><circle cx="86.16666666666667" cy="128.32258064516128" fill="#555555" r="2.7096774193548385"><title>2024-01-13</title></circle><circle cx="86.16666666666667" cy="135.5483870967742" fill="#555555" r="2.7096774193548385"><title>2024-01-14</title></circle><circle cx="86.16666666666667" cy="142.7741935483871" fill="#555555" r="2.7096774193548385"><title>2024-01-15</title></circle><circle cx="86.16666666666667" cy="150.0" fill="#555555" r="2.7096774193548385"><title>2024-01-16</title></circle><circle cx="86.16666666666667" cy="157.22580645161293" fill="#555555" r="2.7096774193548385"><title>2024-01-17</title></circle><circle cx="86.16666666666667" cy="164.4516129032258" fill="#555555" r="2.7096774193548385"><title>2024-01-18</title></circle><circle cx="86.16666666666667" cy="171.67741935483872" fill="#555555" r="2.7096774193548385"><title>2024-01-19</title></circle><circle cx="86.16666666666667" cy="178.90322580645162" fill="#555555" r="2.7096774193548385"><title>2024-01-20</title></circle><circle cx="86.16666666666667" cy="186.1290322580645" fill="#555555" r="2.7096774193548385"><title>2024-01-21</title></circle><circle cx="86.16666666666667" cy="193.35483870967744" fill="#555555" r="2.7096774193548385"><title>2024-01-22</title></circle><circle cx="86.16666666666667" cy="200.58064516129033" fill="#555555" r="2.7096774193548385"><title>2024-01-23</title></circle><circle cx="86.16666666666667" cy="207.80645161290323" fill="#555555" r="2.7096774193548385"><title>2024-01-24</title></circle><circle cx="86.16666666666667" cy="215.03225806451613" fill="#555555" r="2.7096774193548385"><title>2024-01-25</title></circle><circle cx="86.16666666666667" cy="222.25806451612902" fill="#555555" r="2.7096774193548385"><title>2024-01-26</title></circle><circle cx="86.16666666666667" cy="229.48387096774195" fill="#555555" r="2.7096774193548385"><title>2024-01-27</title></circle><circle cx="86.16666666666667" cy="236.70967741935485" fill="#555555" r="2.7096774193548385"><title>2024-01-28</title></circle><circle cx="86.16666666666667" cy="243.93548387096774" fill="#555555" r="2.7096774193548385"><title>2024-01-29</title></circle><circle cx="86.16666666666667" cy="251.16129032258064" fill="#555555" r="2.7096774193548385"><title>2024-01-30</title></circle><circle cx="86.16666666666667" cy="258.38709677419354" fill="#555555" r="2.7096774193548385"><title>2024-01-31</title></circle><circle cx="94.5" cy="41.61290322580645" fill="#555555" r="2.7096774193548385"><title>2024-02-01</title></circle><circle cx="94.5" cy="48.83870967741935" fill="#555555" r="2.7096774193548385"><title>2024-02-02</title></circle><circle cx="94.5" cy="56.064516129032256" fill="#555555" r="2.7096774193548385"><title>2024-02-03</title></circle><circle cx="94.5" cy="63.29032258064515" fill="#555555" r="2.7096774193548385"><title>2024-02-04</title></circle><circle cx="94.5" cy="70.51612903225806" fill="#555555" r="2.7096774193548385"><title>2024-02-05</title></circle><circle cx="94.5" cy="77.74193548387096" fill="#555555" r="2.7096774193548385"><title>2024-02-06</title></circle><circle cx="94.5" cy="84.96774193548386" fill="#555555" r="2.7096774193548385"><title>2024-02-07</title></circle><circle cx="94.5" cy="92.19354838709677" fill="#555555" r="2.7096774193548385"><title>2024-02-08</title></circle><circle cx="94.5" cy="99.41935483870968" fill="#555555" r="2.7096774193548385"><title>2024-02-09</title></circle><circle cx="94.5" cy="106.64516129032258" fill="#555555" r="2.7096774193548385"><title>2024-02-10</title></circle><circle cx="94.5" cy="113.87096774193547" fill="#555555" r="2.7096774193548385"><title>2024-02-11</title></circle><circle cx="94.5" cy="121.09677419354838" fill="#555555" r="2.7096774193548385"><title>2024-02-12</title></circle><circle cx="94.5" cy="128.32258064516128" fill="#555555" r="2.7096774193548385"><title>2024-02-13</title></circle><circle cx="94.5" cy="135.5483870967742" fill="#555555" r="2.7096774193548385"><title>2024-02-14</title></circle><circle cx="94.5" cy="142.7741935483871" fill="#555555" r="2.7096774193548385"><title>2024-02-15</title></circle><circle cx="94.5" cy="150.0" fill="#555555" r="2.7096774193548385"><title>2024-02-16</title></circle><circle cx="94.5" cy="157.22580645161293" fill="#555555" r="2.7096774193548385"><title>2024-02-17</title></circle><circle cx="94.5" cy="164.4516129032258" fill="#555555" r="2.7096774193548385"><title>2024-02-18</title></circle><circle cx="94.5" cy="171.67741935483872" fill="#555555" r="2.7096774193548385"><title>2024-02-19</title></circle><circle cx="94.5" cy="178.90322580645162" fill="#555555" r="2.7096774193548385"><title>2024-02-20</title></circle><circle cx="94.5" cy="186.1290322580645" fill="#555555" r="2.7096774193548385"><title>2024-02-21</title></circle><circle cx="94.5" cy="193.35483870967744" fill="#555555" r="2.7096774193548385"><title>2024-02-22</title></circle><circle cx="94.5" cy="200.58064516129033" fill="#555555" r="2.7096774193548385"><title>2024-02-23</title></circle><circle cx="94.5" cy="207.80645161290323" fill="#555555" r="2.7096774193548385"><title>2024-02-24</title></circle><circle cx="94.5" cy="215.03225806451613" fill="#555555" r="2.7096774193548385"><title>2024-02-25</title></circle><circle cx="94.5" cy="222.25806451612902" fill="#555555" r="2.7096774193548385"><title>2024-02-26</title></circle><circle cx="94.5" cy="229.48387096774195" fill="#555555" r="2.7096774193548385"><title>2024-02-27</title></circle><circle cx="94.5" cy="236.70967741935485" fill="#555555" r="2.7096774193548385"><title>2024-02-28</title></circle><circle cx="94.5" cy="243.93548387096774" fill="#555555" r="2.7096774193548385"><title>2024-02-29</title></circle><circle cx="102.83333333333334" cy="41.61290322580645" fill="#555555" r="2.7096774193548385"><title>2024-03-01</title></circle><circle cx="102.83333333333334" cy="48.83870967741935" fill="#555555" r="2.7096774193548385"><title>2024-03-02</title></circle><circle cx="102.83333333333334" cy="56.064516129032256" fill="#555555" r="2.7096774193548385"><title>2024-03-03</title></circle><circle cx="102.83333333333334" cy="63.29032258064515" fill="#555555" r="2.7096774193548385"><title>2024-03-04</title></circle><circle cx="102.83333333333334" cy="70.51612903225806" fill="#555555" r="2.7096774193548385"><title>2024-03-05</title></circle><circle cx="102.83333333333334" cy="77.74193548387096" fill="#555555" r="2.7096774193548385"><title>2024-03-06</title></circle><circle cx="102.83333333333334" cy="84.96774193548386" fill="#555555" r="2.7096774193548385"><title>2024-03-07</title></circle><circle cx="102.83333333333334" cy="92.19354838709677" fill="#555555" r="2.7096774193548385"><title>2024-03-08</title></circle><circle cx="102.83333333333334" cy="99.41935483870968" fill="#555555" r="2.7096774193548385"><title>2024-03-09</title></circle><circle cx="102.83333333333334" cy="106.64516129032258" fill="#555555" r="2.7096774193548385"><title>2024-03-10</title></circle><circle cx="102.83333333333334" cy="113.87096774193547" fill="#555555" r="2.7096774193548385"><title>2024-03-11</title></circle><circle cx="102.83333333333334" cy="121.09677419354838" fill="#555555" r="2.7096774193548385"><title>2024-03-12</title></circle><circle cx="102.83333333333334" cy="128.32258064516128" fill="#555555" r="2.7096774193548385"><title>2024-03-13</title></circle><circle cx="102.83333333333334" cy="135.5483870967742" fill="#555555" r="2.7096774193548385"><title>2024-03-14</title></circle><circle cx="102.83333333333334" cy="142.7741935483871" fill="#555555" r="2.7096774193548385"><title>2024-03-15</title></circle><circle cx="102.83333333333334" cy="150.0" fill="#555555" r="2.7096774193548385"><title>2024-03-16</title></circle><circle cx="102.83333333333334" cy="157.22580645161293" fill="#555555" r="2.7096774193548385"><title>2024-03-17</title></circle><circle cx="102.83333333333334" cy="164.4516129032258" fill="#555555" r="2.7096774193548385"><title>2024-03-18</title></circle><circle cx="102.83333333333334" cy="171.67741935483872" fill="#555555" r="2.7096774193548385"><title>2024-03-19</title></circle><circle cx="102.83333333333334" cy="178.90322580645162" fill="#555555" r="2.7096774193548385"><title>2024-03-20</title></circle><circle cx="102.83333333333334" cy="186.1290322580645" fill="#555555" r="2.7096774193548385"><title>2024-03-21</title></circle><circle cx="102.83333333333334" cy="193.35483870967744" fill="#555555" r="2.7096774193548385"><title>2024-03-22</title></circle><circle cx="102.83333333333334" cy="200.58064516129033" fill="#555555" r="2.7096774193548385"><title>2024-03-23</title></circle><circle cx="102.83333333333334" cy="207.80645161290323" fill="#555555" r="2.7096774193548385"><title>2024-03-24</title></circle><circle cx="102.83333333333334" cy="215.03225806451613" fill="#555555" r="2.7096774193548385"><title>2024-03-25</title></circle><circle cx="102.83333333333334" cy="222.25806451612902" fill="#555555" r="2.7096774193548385"><title>2024-03-26</title></circle><circle cx="102.83333333333334" cy="229.48387096774195" fill="#555555" r="2.7096774193548385"><title>2024-03-27</title></circle><circle cx="102.83333333333334" cy="236.70967741935485" fill="#555555" r="2.7096774193548385"><title>2024-03-28</title></circle><circle cx="102.83333333333334" cy="243.93548387096774" fill="#555555" r="2.7096774193548385"><title>2024-03-29</title></circle><circle cx="102.83333333333334" cy="251.16129032258064" fill="#555555" r="2.7096774193548385"><title>2024-03-30</title></circle><circle cx="102.83333333333334" cy="258.38709677419354" fill="#555555" r="2.7096774193548385"><title>2024-03-31</title></circle><circle cx="111.16666666666667" cy="41.61290322580645" fill="#555555" r="2.7096774193548385"><title>2024-04-01</title></circle><circle cx="111.16666666666667" cy="48.83870967741935" fill="#555555" r="2.7096774193548385"><title>2024-04-02</title></circle><circle cx="111.16666666666667" cy="56.064516129032256" fill="#555555" r="2.7096774193548385"><title>2024-04-03</title></circle><circle cx="111.16666666666667" cy="63.29032258064515" fill="#555555" r="2.7096774193548385"><title>2024-04-04</title></circle><circle cx="111.16666666666667" cy="70.51612903225806" fill="#555555" r="2.7096774193548385"><title>2024-04-05</title></circle><circle cx="111.16666666666667" cy="77.74193548387096" fill="#555555" r="2.7096774193548385"><title>2024-04-06</title></circle><circle cx="111.16666666666667" cy="84.96774193548386" fill="#555555" r="2.7096774193548385"><title>2024-04-07</title></circle><circle cx="111.16666666666667" cy="92.19354838709677" fill="#555555" r="2.7096774193548385"><title>2024-04-08</title></circle><circle cx="111.16666666666667" cy="99.41935483870968" fill="#555555" r="2.7096774193548385"><title>2024-04-09</title></circle><circle cx="111.16666666666667" cy="106.64516129032258" fill="#555555" r="2.7096774193548385"><title>2024-04-10</title></circle><circle cx="111.16666666666667" cy="113.87096774193547" fill="#555555" r="2.7096774193548385"><title>2024-04-11</title></circle><circle cx="111.16666666666667" cy="121.09677419354838" fill="#555555" r="2.7096774193548385"><title>2024-04-12</title></circle><circle cx="111.16666666666667" cy="128.32258064516128" fill="#555555" r="2.7096774193548385"><title>2024-04-13</title></circle><circle cx="111.16666666666667" cy="135.5483870967742" fill="#555555" r="2.7096774193548385"><title>2024-04-14</title></circle><circle cx="111.16666666666667" cy="142.7741935483871" fill="#555555" r="2.7096774193548385"><title>2024-04-15</title></circle><circle cx="111.16666666666667" cy="150.0" fill="#555555" r="2.7096774193548385"><title>2024-04-16</title></circle><circle cx="111.16666666666667" cy="157.22580645161293" fill="#555555" r="2.7096774193548385"><title>2024-04-17</title></circle><circle cx="111.16666666666667" cy="164.4516129032258" fill="#555555" r="2.7096774193548385"><title>2024-04-18</title></circle><circle cx="111.16666666666667" cy="171.67741935483872" fill="#555555" r="2.7096774193548385"><title>2024-04-19</title></circle><circle cx="111.16666666666667" cy="178.90322580645162" fill="#555555" r="2.7096774193548385"><title>2024-04-20</title></circle><circle cx="111.16666666666667" cy="186.1290322580645" fill="#555555" r="2.7096774193548385"><title>2024-04-21</title></circle><circle cx="111.16666666666667" cy="193.35483870967744" fill="#555555" r="2.7096774193548385"><title>2024-04-22</title></circle><circle cx="111.16666666666667" cy="200.58064516129033" fill="#555555" r="2.7096774193548385"><title>2024-04-23</title></circle><circle cx="111.16666666666667" cy="207.80645161290323" fill="#555555" r="2.7096774193548385"><title>2024-04-24</title></circle><circle cx="111.16666666666667" cy="215.03225806451613" fill="#555555" r="2.7096774193548385"><title>2024-04-25</title></circle><circle cx="111.16666666666667" cy="222.25806451612902" fill="#555555" r="2.7096774193548385"><title>2024-04-26</title></circle><circle cx="111.16666666666667" cy="229.48387096774195" fill="#555555" r="2.7096774193548385"><title>2024-04-27</title></circle><circle cx="111.16666666666667" cy="236.70967741935485" fill="#555555" r="2.7096774193548385"><title>2024-04-28</title></circle><circle cx="111.16666666666667" cy="243.93548387096774" fill="#555555" r="2.7096774193548385"><title>2024-04-29</title></circle><circle cx="111.16666666666667" cy="251.16129032258064" fill="#555555" r="2.7096774193548385"><title>2024-04-30</title></circle><circle cx="119.50000000000001" cy="41.61290322580645" fill="#555555" r="2.7096774193548385"><title>2024-05-01</title></circle><circle cx="119.50000000000001" cy="48.83870967741935" fill="#555555" r="2.7096774193548385"><title>2024-05-02</title></circle><circle cx="119.50000000000001" cy="56.064516129032256" fill="#555555" r="2.7096774193548385"><title>2024-05-03</title></circle><circle cx="119.50000000000001" cy="63.29032258064515" fill="#555555" r="2.7096774193548385"><title>2024-05-04</title></circle><circle cx="119.50000000000001" cy="70.51612903225806" fill="#555555" r="2.7096774193548385"><title>2024-05-05</title></circle><circle cx="119.50000000000001" cy="77.74193548387096" fill="#555555" r="2.7096774193548385"><title>2024-05-06</title></circle><circle cx="119.50000000000001" cy="84.96774193548386" fill="#555555" r="2.7096774193548385"><title>2024-05-07</title></circle><circle cx="119.50000000000001" cy="92.19354838709677" fill="#555555" r="2.7096774193548385"><title>2024-05-08</title></circle><circle cx="119.50000000000001" cy="99.41935483870968" fill="#5093aa" r="2.7096774193548385"><title>2024-05-09: 5 km</title></circle><circle cx="119.50000000000001" cy="106.64516129032258" fill="#555555" r="2.7096774193548385"><title>2024-05-10</title></circle><circle cx="119.50000000000001" cy="113.87096774193547" fill="#555555" r="2.7096774193548385"><title>2024-05-11</title></circle><circle cx="119.50000000000001" cy="121.09677419354838" fill="#555555" r="2.7096774193548385"><title>2024-05-12</title></circle><circle cx="119.50000000000001" cy="128.32258064516128" fill="#555555" r="2.7096774193548385"><title>2024-05-13</title></circle><circle cx="119.50000000000001" cy="135.5483870967742" fill="#555555" r="2.7096774193548385"><title>2024-05-14</title></circle><circle cx="119.50000000000001" cy="142.7741935483871" fill="#555555" r="2.7096774193548385"><title>2024-05-15</title></circle><circle cx="119.50000000000001" cy="150.0" fill="#555555" r="2.7096774193548385"><title>2024-05-16</title></circle><circle cx="119.50000000000001" cy="157.22580645161293" fill="#555555" r="2.7096774193548385"><title>2024-05-17</title></circle><circle cx="119.50000000000001" cy="164.4516129032258" fill="#555555" r="2.7096774193548385"><title>2024-05-18</title></circle><circle cx="119.50000000000001" cy="171.67741935483872" fill="#555555" r="2.7096774193548385"><title>2024-05-19</title></circle><circle cx="119.50000000000001" cy="178.90322580645162" fill="#555555" r="2.7096774193548385"><title>2024-05-20</title></circle><circle cx="119.50000000000001" cy="186.1290322580645" fill="#555555" r="2.7096774193548385"><title>2024-05-21</title></circle><circle cx="119.50000000000001" cy="193.35483870967744" fill="#555555" r="2.7096774193548385"><title>2024-05-22</title></circle><circle cx="119.50000000000001" cy="200.58064516129033" fill="#555555" r="2.7096774193548385"><title>2024-05-23</title></circle><circle cx="119.50000000000001" cy="207.80645161290323" fill="#555555" r="2.7096774193548385"><title>2024-05-24</title></circle><circle cx="119.50000000000001" cy="215.03225806451613" fill="#555555" r="2.7096774193548385"><title>2024-05-25</title></circle><circle cx="119.50000000000001" cy="222.25806451612902" fill="#555555" r="2.7096774193548385"><title>2024-05-26</title></circle><circle cx="119.50000000000001" cy="229.48387096774195" fill="#555555" r="2.7096774193548385"><title>2024-05-27</title></circle><circle cx="119.50000000000001" cy="236.70967741935485" fill="#555555" r="2.7096774193548385"><title>2024-05-28</title></circle><circle cx="119.50000000000001" cy="243.93548387096774" fill="#555555" r="2.7096774193548385"><title>2024-05-29</title></circle><circle cx="119.50000000000001" cy="251.16129032258064" fill="#555555" r="2.7096774193548385"><title>2024-05-30</title></circle><circle cx="119.50000000000001" cy="258.38709677419354" fill="#555555" r="2.7096774193548385"><title>2024-05-31</title></circle><circle cx="127.83333333333334" cy="41.61290322580645" fill="#555555" r="2.7096774193548385"><title>2024-06-01</title></circle><circle cx="127.83333333333334" cy="48.83870967741935" fill="#555555" r="2.7096774193548385"><title>2024-06-02</title></circle><circle cx="127.83333333333334" cy="56.064516129032256" fill="#555555" r="2.7096774193548385"><title>2024-06-03</title></circle><circle cx="127.83333333333334" cy="63.29032258064515" fill="#555555" r="2.7096774193548385"><title>2024-06-04</title></circle><circle cx="127.83333333333334" cy="70.51612903225806" fill="#555555" r="2.7096774193548385"><title>2024-06-05</title></circle><circle cx="127.83333333333334" cy="77.74193548387096" fill="#555555" r="2.7096774193548385"><title>2024-06-06</title></circle><circle cx="127.83333333333334" cy="84.96774193548386" fill="#555555" r="2.7096774193548385"><title>2024-06-07</title></circle><circle cx="127.83333333333334" cy="92.19354838709677" fill="#555555" r="2.7096774193548385"><title>2024-06-08</title></circle><circle cx="127.83333333333334" cy="99.41935483870968" fill="#555555" r="2.7096774193548385"><title>2024-06-09</title></circle><circle cx="127.83333333333334" cy="106.64516129032258" fill="#555555" r="2.7096774193548385"><title>2024-06-10</title></circle><circle cx="127.83333333333334" cy="113.87096774193547" fill="#555555" r="2.7096774193548385"><title>2024-06-11</title></circle><circle cx="127.83333333333334" cy="121.09677419354838" fill="#555555" r="2.7096774193548385"><title>2024-06-12</title></circle><circle cx="127.83333333333334" cy="128.32258064516128" fill="#555555" r="2.7096774193548385"><title>2024-06-13</title></circle><circle cx="127.83333333333334" cy="135.5483870967742" fill="#555555" r="2.7096774193548385"><title>2024-06-14</title></circle><circle cx="127.83333333333334" cy="142.7741935483871" fill="#555555" r="2.7096774193548385"><title>2024-06-15</title></circle><circle cx="127.83333333333334" cy="150.0" fill="#555555" r="2.7096774193548385"><title>2024-06-16</title></circle><circle cx="127.83333333333334" cy="157.22580645161293" fill="#555555" r="2.7096774193548385"><title>2024-06-17</title></circle><circle cx="127.83333333333334" cy="164.4516129032258" fill="#555555" r="2.7096774193548385"><title>2024-06-18</title></circle><circle cx="127.83333333333334" cy="171.67741935483872" fill="#555555" r="2.7096774193548385"><title>2024-06-19</title></circle><circle cx="127.83333333333334" cy="178.90322580645162" fill="#555555" r="2.7096774193548385"><title>2024-06-20</title></circle><circle cx="127.83333333333334" cy="186.1290322580645" fill="#555555" r="2.7096774193548385"><title>2024-06-21</title></circle><circle cx="127.83333333333334" cy="193.35483870967744" fill="#555555" r="2.7096774193548385"><title>2024-06-22</title></circle><circle cx="127.83333333333334" cy="200.58064516129033" fill="#555555" r="2.7096774193548385"><title>2024-06-23</title></circle><circle cx="127.83333333333334" cy="207.80645161290323" fill="#555555" r="2.7096774193548385"><title>2024-06-24</title></circle><circle cx="127.83333333333334" cy="215.03225806451613" fill="#555555" r="2.7096774193548385"><title>2024-06-25</title></circle><circle cx="127.83333333333334" cy="222.25806451612902" fill="#555555" r="2.7096774193548385"><title>2024-06-26</title></circle><circle cx="127.83333333333334" cy="229.48387096774195" fill="#555555" r="2.7096774193548385"><title>2024-06-27</title></circle><circle cx="127.83333333333334" cy="236.70967741935485" fill="#555555" r="2.7096774193548385"><title>2024-06-28</title></circle><circle cx="127.83333333333334" cy="243.93548387096774" fill="#555555" r="2.7096774193548385"><title>2024-06-29</title></circle><circle cx="127.83333333333334" cy="251.16129032258064" fill="#555555" r="2.7096774193548385"><title>2024-06-30</title></circle><circle cx="136.16666666666666" cy="41.61290322580645" fill="#555555" r="2.7096774193548385"><title>2024-07-01</title></circle><circle cx="136.16666666666666" cy="48.83870967741935" fill="#555555" r="2.7096774193548385"><title>2024-07-02</title></circle><circle cx="136.16666666666666" cy="56.064516129032256" fill="#555555" r="2.7096774193548385"><title>2024-07-03</title></circle><circle cx="136.16666666666666" cy="63.29032258064515" fill="#555555" r="2.7096774193548385"><title>2024-07-04</title></circle><circle cx="136.16666666666666" cy="70.51612903225806" fill="#555555" r="2.7096774193548385"><title>2024-07-05</title></circle><circle cx="136.16666666666666" cy="77.74193548387096" fill="#555555" r="2.7096774193548385"><title>2024-07-06</title></circle><circle cx="136.16666666666666" cy="84.96774193548386" fill="#555555" r="2.7096774193548385"><title>2024-07-07</title></circle><circle cx="136.16666666666666" cy="92.19354838709677" fill="#555555" r="2.7096774193548385"><title>2024-07-08</title></circle><circle cx="136.16666666666666" cy="99.41935483870968" fill="#555555" r="2.7096774193548385"><title>2024-07-09</title></circle><circle cx="136.16666666666666" cy="106.64516129032258" fill="#555555" r="2.7096774193548385"><title>2024-07-10</title></circle><circle cx="136.16666666666666" cy="113.87096774193547" fill="#555555" r="2.7096774193548385"><title>2024-07-11</title></circle><circle cx="136.16666666666666" cy="121.09677419354838" fill="#555555" r="2.7096774193548385"><title>2024-07-12</title></circle><circle cx="136.16666666666666" cy="128.32258064516128" fill="#555555" r="2.7096774193548385"><title>2024-07-13</title></circle><circle cx="136.16666666666666" cy="135.5483870967742" fill="#555555" r="2.7096774193548385"><title>2024-07-14</title></circle><circle cx="136.16666666666666" cy="142.7741935483871" fill="#555555" r="2.7096774193548385"><title>2024-07-15</title></circle><circle cx="136.16666666666666" cy="150.0" fill="#555555" r="2.7096774193548385"><title>2024-07-16</title></circle><circle cx="136.16666666666666" cy="157.22580645161293" fill="#555555" r="2.7096774193548385"><title>2024-07-17</title></circle><circle cx="136.16666666666666" cy="164.4516129032258" fill="#555555" r="2.7096774193548385"><title>2024-07-18</title></circle><circle cx="136.16666666666666" cy="171.67741935483872" fill="#555555" r="2.7096774193548385"><title>2024-07-19</title></circle><circle cx="136.16666666666666" cy="178.90322580645162" fill="#555555" r="2.7096774193548385"><title>2024-07-20</title></circle><circle cx="136.16666666666666" cy="186.1290322580645" fill="#555555" r="2.7096774193548385"><title>2024-07-21</title></circle><circle cx="136.16666666666666" cy="193.35483870967744" fill="#555555" r="2.7096774193548385"><title>2024-07-22</title></circle><circle cx="136.16666666666666" cy="200.58064516129033" fill="#555555" r="2.7096774193548385"><title>2024-07-23</title></circle><circle cx="136.16666666666666" cy="207.80645161290323" fill="#555555" r="2.7096774193548385"><title>2024-07-24</title></circle><circle cx="136.16666666666666" cy="215.03225806451613" fill="#555555" r="2.7096774193548385"><title>2024-07-25</title></circle><circle cx="136.16666666666666" cy="222.25806451612902" fill="#555555" r="2.7096774193548385"><title>2024-07-26</title></circle><circle cx="136.16666666666666" cy="229.48387096774195" fill="#555555" r="2.7096774193548385"><title>2024-07-27</title></circle><circle cx="136.16666666666666" cy="236.70967741935485" fill="#555555" r="2.7096774193548385"><title>2024-07-28</title></circle><circle cx="136.16666666666666" cy="243.93548387096774" fill="#555555" r="2.7096774193548385"><title>2024-07-29</title></circle><circle cx="136.16666666666666" cy="251.16129032258064" fill="#555555" r="2.7096774193548385"><title>2024-07-30</title></circle><circle cx="136.16666666666666" cy="258.38709677419354" fill="#555555" r="2.7096774193548385"><title>2024-07-31</title></circle><circle cx="144.5" cy="41.61290322580645" fill="#555555" r="2.7096774193548385"><title>2024-08-01</title></circle><circle cx="144.5" cy="48.83870967741935" fill="#555555" r="2.7096774193548385"><title>2024-08-02</title></circle><circle cx="144.5" cy="56.064516129032256" fill="#555555" r="2.7096774193548385"><title>2024-08-03</title></circle><circle cx="144.5" cy="63.29032258064515" fill="#555555" r="2.7096774193548385"><title>2024-08-04</title></circle><circle cx="144.5" cy="70.51612903225806" fill="#555555" r="2.7096774193548385"><title>2024-08-05</title></circle><circle cx="144.5" cy="77.74193548387096" fill="#555555" r="2.7096774193548385"><title>2024-08-06</title></circle><circle cx="144.5" cy="84.96774193548386" fill="#555555" r="2.7096774193548385"><title>2024-08-07</title></circle><circle cx="144.5" cy="92.19354838709677" fill="#555555" r="2.7096774193548385"><title>2024-08-08</title></circle><circle cx="144.5" cy="99.41935483870968" fill="#555555" r="2.7096774193548385"><title>2024-08-09</title></circle><circle cx="144.5" cy="106.64516129032258" fill="#555555" r="2.7096774193548385"><title>2024-08-10</title></circle><circle cx="144.5" cy="113.87096774193547" fill="#555555" r="2.7096774193548385"><title>2024-08-11</title></circle><circle cx="144.5" cy="121.09677419354838" fill="#555555" r="2.7096774193548385"><title>2024-08-12</title></circle><circle cx="144.5" cy="128.32258064516128" fill="#555555" r="2.7096774193548385"><title>2024-08-13</title></circle><circle cx="144.5" cy="135.5483870967742" fill="#555555" r="2.7096774193548385"><title>2024-08-14</title></circle><circle cx="144.5" cy="142.7741935483871" fill="#555555" r="2.7096774193548385"><title>2024-08-15</title></circle><circle cx="144.5" cy="150.0" fill="#555555" r="2.7096774193548385"><title>2024-08-16</title></circle><circle cx="144.5" cy="157.22580645161293" fill="#555555" r="2.7096774193548385"><title>2024-08-17</title></circle><circle cx="144.5" cy="164.4516129032258" fill="#555555" r="2.7096774193548385"><title>2024-08-18</title></circle><circle cx="144.5" cy="171.67741935483872" fill="#555555" r="2.7096774193548385"><title>2024-08-19</title></circle><circle cx="144.5" cy="178.90322580645162" fill="#555555" r="2.7096774193548385"><title>2024-08-20</title></circle><circle cx="144.5" cy="186.1290322580645" fill="#555555" r="2.7096774193548385"><title>2024-08-21</title></circle><circle cx="144.5" cy="193.35483870967744" fill="#555555" r="2.7096774193548385"><title>2024-08-22</title></circle><circle cx="144.5" cy="200.58064516129033" fill="#555555" r="2.7096774193548385"><title>2024-08-23</title></circle><circle cx="144.5" cy="207.80645161290323" fill="#555555" r="2.7096774193548385"><title>2024-08-24</title></circle><circle cx="144.5" cy="215.03225806451613" fill="#555555" r="2.7096774193548385"><title>2024-08-25</title></circle><circle cx="144.5" cy="222.25806451612902" fill="#555555" r="2.7096774193548385"><title>2024-08-26</title></circle><circle cx="144.5" cy="229.48387096774195" fill="#555555" r="2.7096774193548385"><title>2024-08-27</title></circle><circle cx="144.5" cy="236.70967741935485" fill="#555555" r="2.7096774193548385"><title>2024-08-28</title></circle><circle cx="144.5" cy="243.93548387096774" fill="#555555" r="2.7096774193548385"><title>2024-08-29</title></circle><circle cx="144.5" cy="251.16129032258064" fill="#555555" r="2.7096774193548385"><title>2024-08-30</title></circle><circle cx="144.5" cy="258.38709677419354" fill="#555555" r="2.7096774193548385"><title>2024-08-31</title></circle><circle cx="152.83333333333334" cy="41.61290322580645" fill="#555555" r="2.7096774193548385"><title>2024-09-01</title></circle><circle cx="152.83333333333334" cy="48.83870967741935" fill="#555555" r="2.7096774193548385"><title>2024-09-02</title></circle><circle cx="152.83333333333334" cy="56.064516129032256" fill="#555555" r="2.7096774193548385"><title>2024-09-03</title></circle><circle cx="152.83333333333334" cy="63.29032258064515" fill="#555555" r="2.7096774193548385"><title>2024-09-04</title></circle><circle cx="152.83333333333334" cy="70.51612903225806" fill="#555555" r="2.7096774193548385"><title>2024-09-05</title></circle><circle cx="152.83333333333334" cy="77.74193548387096" fill="#555555" r="2.7096774193548385"><title>2024-09-06</title></circle><circle cx="152.83333333333334" cy="84.96774193548386" fill="#555555" r="2.7096774193548385"><title>2024-09-07</title></circle><circle cx="152.83333333333334" cy="92.19354838709677" fill="#555555" r="2.7096774193548385"><title>2024-09-08</title></circle><circle cx="152.83333333333334" cy="99.41935483870968" fill="#555555" r="2.7096774193548385"><title>2024-09-09</title></circle><circle cx="152.83333333333334" cy="106.64516129032258" fill="#555555" r="2.7096774193548385"><title>2024-09-10</title></circle><circle cx="152.83333333333334" cy="113.87096774193547" fill="#555555" r="2.7096774193548385"><title>2024-09-11</title></circle><circle cx="152.83333333333334" cy="121.09677419354838" fill="#555555" r="2.7096774193548385"><title>2024-09-12</title></circle><circle cx="152.83333333333334" cy="128.32258064516128" fill="#555555" r="2.7096774193548385"><title>2024-09-13</title></circle><circle cx="152.83333333333334" cy="135.5483870967742" fill="#555555" r="2.7096774193548385"><title>2024-09-14</title></circle><circle cx="152.83333333333334" cy="142.7741935483871" fill="#555555" r="2.7096774193548385"><title>2024-09-15</title></circle><circle cx="152.83333333333334" cy="150.0" fill="#555555" r="2.7096774193548385"><title>2024-09-16</title></circle><circle cx="152.83333333333334" cy="157.22580645161293" fill="#555555" r="2.7096774193548385"><title>2024-09-17</title></circle><circle cx="152.83333333333334" cy="164.4516129032258" fill="#555555" r="2.7096774193548385"><title>2024-09-18</title></circle><circle cx="152.83333333333334" cy="171.67741935483872" fill="#555555" r="2.7096774193548385"><title>2024-09-19</title></circle><circle cx="152.83333333333334" cy="178.90322580645162" fill="#555555" r="2.7096774193548385"><title>2024-09-20</title></circle><circle cx="152.83333333333334" cy="186.1290322580645" fill="#555555" r="2.7096774193548385"><title>2024-09-21</title></circle><circle cx="152.83333333333334" cy="193.35483870967744" fill="#555555" r="2.7096774193548385"><title>2024-09-22</title></circle><circle cx="152.83333333333334" cy="200.58064516129033" fill="#555555" r="2.7096774193548385"><title>2024-09-23</title></circle><circle cx="152.83333333333334" cy="207.80645161290323" fill="#555555" r="2.7096774193548385"><title>2024-09-24</title></circle><circle cx="152.83333333333334" cy="215.03225806451613" fill="#555555" r="2.7096774193548385"><title>2024-09-25</title></circle><circle cx="152.83333333333334" cy="222.25806451612902" fill="#555555" r="2.7096774193548385"><title>2024-09-26</title></circle><circle cx="152.83333333333334" cy="229.48387096774195" fill="#555555" r="2.7096774193548385"><title>2024-09-27</title></circle><circle cx="152.83333333333334" cy="236.70967741935485" fill="#555555" r="2.7096774193548385"><title>2024-09-28</title></circle><circle cx="152.83333333333334" cy="243.93548387096774" fill="#555555" r="2.7096774193548385"><title>2024-09-29</title></circle><circle cx="152.83333333333334" cy="251.16129032258064" fill="#555555" r="2.7096774193548385"><title>2024-09-30</title></circle><circle cx="161.16666666666666" cy="41.61290322580645" fill="#555555" r="2.7096774193548385"><title>2024-10-01</title></circle><circle cx="161.16666666666666" cy="48.83870967741935" fill="#555555" r="2.7096774193548385"><title>2024-10-02</title></circle><circle cx="161.16666666666666" cy="56.064516129032256" fill="#555555" r="2.7096774193548385"><title>2024-10-03</title></circle><circle cx="161.16666666666666" cy="63.29032258064515" fill="#555555" r="2.7096774193548385"><title>2024-10-04</title></circle><circle cx="161.16666666666666" cy="70.51612903225806" fill="#555555" r="2.7096774193548385"><title>2024-10-05</title></circle><circle cx="161.16666666666666" cy="77.74193548387096" fill="#555555" r="2.7096774193548385"><title>2024-10-06</title></circle><circle cx="161.16666666666666" cy="84.96774193548386" fill="#555555" r="2.7096774193548385"><title>2024-10-07</title></circle><circle cx="161.16666666666666" cy="92.19354838709677" fill="#555555" r="2.7096774193548385"><title>2024-10-08</title></circle><circle cx="161.16666666666666" cy="99.41935483870968" fill="#555555" r="2.7096774193548385"><title>2024-10-09</title></circle><circle cx="161.16666666666666" cy="106.64516129032258" fill="#555555" r="2.7096774193548385"><title>2024-10-10</title></circle><circle cx="161.16666666666666" cy="113.87096774193547" fill="#555555" r="2.7096774193548385"><title>2024-10-11</title></circle><circle cx="161.16666666666666" cy="121.09677419354838" fill="#555555" r="2.7096774193548385"><title>2024-10-12</title></circle><circle cx="161.16666666666666" cy="128.32258064516128" fill="#555555" r="2.7096774193548385"><title>2024-10-13</title></circle><circle cx="161.16666666666666" cy="135.5483870967742" fill="#555555" r="2.7096774193548385"><title>2024-10-14</title></circle><circle cx="161.16666666666666" cy="142.7741935483871" fill="#5097af" r="2.7096774193548385"><title>2024-10-15: 5 km</title></circle><circle cx="161.16666666666666" cy="150.0" fill="#555555" r="2.7096774193548385"><title>2024-10-16</title></circle><circle cx="161.16666666666666" cy="157.22580645161293" fill="#555555" r="2.7096774193548385"><title>2024-10-17</title></circle><circle cx="161.16666666666666" cy="164.4516129032258" fill="#555555" r="2.7096774193548385"><title>2024-10-18</title></circle><circle cx="161.16666666666666" cy="171.67741935483872" fill="#4fb0d1" r="2.7096774193548385"><title>2024-10-19: 7 km</title></circle><circle cx="161.16666666666666" cy="178.90322580645162" fill="#555555" r="2.7096774193548385"><title>2024-10-20</title></circle><circle cx="161.16666666666666" cy="186.1290322580645" fill="#555555" r="2.7096774193548385"><title>2024-10-21</title></circle><circle cx="161.16666666666666" cy="193.35483870967744" fill="#555555" r="2.7096774193548385"><title>2024-10-22</title></circle><circle cx="161.16666666666666" cy="200.58064516129033" fill="#555555" r="2.7096774193548385"><title>2024-10-23</title></circle><circle cx="161.16666666666666" cy="207.80645161290323" fill="#555555" r="2.7096774193548385"><title>2024-10-24</title></circle><circle cx="161.16666666666666" cy="215.03225806451613" fill="#555555" r="2.7096774193548385"><title>2024-10-25</title></circle><circle cx="161.16666666666666" cy="222.25806451612902" fill="#555555" r="2.7096774193548385"><title>2024-10-26</title></circle><circle cx="161.16666666666666" cy="229.48387096774195" fill="#555555" r="2.7096774193548385"><title>2024-10-27</title></circle><circle cx="161.16666666666666" cy="236.70967741935485" fill="#555555" r="2.7096774193548385"><title>2024-10-28</title></circle><circle cx="161.16666666666666" cy="243.93548387096774" fill="#555555" r="2.7096774193548385"><title>2024-10-29</title></circle><circle cx="161.16666666666666" cy="251.16129032258064" fill="#555555" r="2.7096774193548385"><title>2024-10-30</title></circle><circle cx="161.16666666666666" cy="258.38709677419354" fill="#555555" r="2.7096774193548385"><title>2024-10-31</title></circle><circle cx="169.5" cy="41.61290322580645" fill="#555555" r="2.7096774193548385"><title>2024-11-01</title></circle><circle cx="169.5" cy="48.83870967741935" fill="#555555" r="2.7096774193548385"><title>2024-11-02</title></circle><circle cx="169.5" cy="56.064516129032256" fill="#555555" r="2.7096774193548385"><title>2024-11-03</title></circle><circle cx="169.5" cy="63.29032258064515" fill="#555555" r="2.7096774193548385"><title>2024-11-04</title></circle><circle cx="169.5" cy="70.51612903225806" fill="#555555" r="2.7096774193548385"><title>2024-11-05</title></circle><circle cx="169.5" cy="77.74193548387096" fill="#555555" r="2.7096774193548385"><title>2024-11-06</title></circle><circle cx="169.5" cy="84.96774193548386" fill="#555555" r="2.7096774193548385"><title>2024-11-07</title></circle><circle cx="169.5" cy="92.19354838709677" fill="#555555" r="2.7096774193548385"><title>2024-11-08</title></circle><circle cx="169.5" cy="99.41935483870968" fill="#555555" r="2.7096774193548385"><title>2024-11-09</title></circle><circle cx="169.5" cy="106.64516129032258" fill="#555555" r="2.7096774193548385"><title>2024-11-10</title></circle><circle cx="169.5" cy="113.87096774193547" fill="#555555" r="2.7096774193548385"><title>2024-11-11</title></circle><circle cx="169.5" cy="121.09677419354838" fill="#555555" r="2.7096774193548385"><title>2024-11-12</title></circle><circle cx="169.5" cy="128.32258064516128" fill="#555555" r="2.7096774193548385"><title>2024-11-13</title></circle><circle cx="169.5" cy="135.5483870967742" fill="#555555" r="2.7096774193548385"><title>2024-11-14</title></circle><circle cx="169.5" cy="142.7741935483871" fill="#555555" r="2.7096774193548385"><title>2024-11-15</title></circle><circle cx="169.5" cy="150.0" fill="#555555" r="2.7096774193548385"><title>2024-11-16</title></circle><circle cx="169.5" cy="157.22580645161293" fill="#555555" r="2.7096774193548385"><title>2024-11-17</title></circle><circle cx="169.5" cy="164.4516129032258" fill="#555555" r="2.7096774193548385"><title>2024-11-18</title></circle><circle cx="169.5" cy="171.67741935483872" fill="#555555" r="2.7096774193548385"><title>2024-11-19</title></circle><circle cx="169.5" cy="178.90322580645162" fill="#555555" r="2.7096774193548385"><title>2024-11-20</title></circle><circle cx="169.5" cy="186.1290322580645" fill="#555555" r="2.7096774193548385"><title>2024-11-21</title></circle><circle cx="169.5" cy="193.35483870967744" fill="#555555" r="2.7096774193548385"><title>2024-11-22</title></circle><circle cx="169.5" cy="200.58064516129033" fill="#555555" r="2.7096774193548385"><title>2024-11-23</title></circle><circle cx="169.5" cy="207.80645161290323" fill="#555555" r="2.7096774193548385"><title>2024-11-24</title></circle><circle cx="169.5" cy="215.03225806451613" fill="#555555" r="2.7096774193548385"><title>2024-11-25</title></circle><circle cx="169.5" cy="222.25806451612902" fill="#555555" r="2.7096774193548385"><title>2024-11-26</title></circle><circle cx="169.5" cy="229.48387096774195" fill="#555555" r="2.7096774193548385"><title>2024-11-27</title></circle><circle cx="169.5" cy="236.70967741935485" fill="#555555" r="2.7096774193548385"><title>2024-11-28</title></circle><circle cx="169.5" cy="243.93548387096774" fill="#555555" r="2.7096774193548385"><title>2024-11-29</title></circle><circle cx="169.5" cy="251.16129032258064" fill="#555555" r="2.7096774193548385"><title>2024-11-30</title></circle><circle cx="177.83333333333334" cy="41.61290322580645" fill="#555555" r="2.7096774193548385"><title>2024-12-01</title></circle><circle cx="177.83333333333334" cy="48.83870967741935" fill="#555555" r="2.7096774193548385"><title>2024-12-02</title></circle><circle cx="177.83333333333334" cy="56.064516129032256" fill="#555555" r="2.7096774193548385"><title>2024-12-03</title></circle><circle cx="177.83333333333334" cy="63.29032258064515" fill="#555555" r="2.7096774193548385"><title>2024-12-04</title></circle><circle cx="177.83333333333334" cy="70.51612903225806" fill="#555555" r="2.7096774193548385"><title>2024-12-05</title></circle><circle cx="177.83333333333334" cy="77.74193548387096" fill="#555555" r="2.7096774193548385"><title>2024-12-06</title></circle><circle cx="177.83333333333334" cy="84.96774193548386" fill="#555555" r="2.7096774193548385"><title>2024-12-07</title></circle><circle cx="177.83333333333334" cy="92.19354838709677" fill="#555555" r="2.7096774193548385"><title>2024-12-08</title></circle><circle cx="177.83333333333334" cy="99.41935483870968" fill="#555555" r="2.7096774193548385"><title>2024-12-09</title></circle><circle cx="177.83333333333334" cy="106.64516129032258" fill="#4fa8c6" r="2.7096774193548385"><title>2024-12-10: 6 km</title></circle><circle cx="177.83333333333334" cy="113.87096774193547" fill="#555555" r="2.7096774193548385"><title>2024-12-11</title></circle><circle cx="177.83333333333334" cy="121.09677419354838" fill="#555555" r="2.7096774193548385"><title>2024-12-12</title></circle><circle cx="177.83333333333334" cy="128.32258064516128" fill="#555555" r="2.7096774193548385"><title>2024-12-13</title></circle><circle cx="177.83333333333334" cy="135.5483870967742" fill="#555555" r="2.7096774193548385"><title>2024-12-14</title></circle><circle cx="177.83333333333334" cy="142.7741935483871" fill="#555555" r="2.7096774193548385"><title>2024-12-15</title></circle><circle cx="177.83333333333334" cy="150.0" fill="#555555" r="2.7096774193548385"><title>2024-12-16</title></circle><circle cx="177.83333333333334" cy="157.22580645161293" fill="#555555" r="2.7096774193548385"><title>2024-12-17</title></circle><circle cx="177.83333333333334" cy="164.4516129032258" fill="#555555" r="2.7096774193548385"><title>2024-12-18</title></circle><circle cx="177.83333333333334" cy="171.67741935483872" fill="#555555" r="2.7096774193548385"><title>2024-12-19</title></circle><circle cx="177.83333333333334" cy="178.90322580645162" fill="#555555" r="2.7096774193548385"><title>2024-12-20</title></circle><circle cx="177.83333333333334" cy="186.1290322580645" fill="#555555" r="2.7096774193548385"><title>2024-12-21</title></circle><circle cx="177.83333333333334" cy="193.35483870967744" fill="#555555" r="2.7096774193548385"><title>2024-12-22</title></circle><circle cx="177.83333333333334" cy="200.58064516129033" fill="#555555" r="2.7096774193548385"><title>2024-12-23</title></circle><circle cx="177.83333333333334" cy="207.80645161290323" fill="#555555" r="2.7096774193548385"><title>2024-12-24</title></circle><circle cx="177.83333333333334" cy="215.03225806451613" fill="#555555" r="2.7096774193548385"><title>2024-12-25</title></circle><circle cx="177.83333333333334" cy="222.25806451612902" fill="#555555" r="2.7096774193548385"><title>2024-12-26</title></circle><circle cx="177.83333333333334" cy="229.48387096774195" fill="#555555" r="2.7096774193548385"><title>2024-12-27</title></circle><circle cx="177.83333333333334" cy="236.70967741935485" fill="#555555" r="2.7096774193548385"><title>2024-12-28</title></circle><circle cx="177.83333333333334" cy="243.93548387096774" fill="#555555" r="2.7096774193548385"><title>2024-12-29</title></circle><circle cx="177.83333333333334" cy="251.16129032258064" fill="#555555" r="2.7096774193548385"><title>2024-12-30</title></circle><circle cx="177.83333333333334" cy="258.38709677419354" fill="#555555" r="2.7096774193548385"><title>2024-12-31</title></circle></svg>