<?xml version="1.0" encoding="utf-8" ?>
<svg baseProfile="full" height="200mm" version="1.1" viewBox="0,0,200,200" width="200mm" xmlns="http://www.w3.org/2000/svg" xmlns:ev="http://www.w3.org/2001/xml-events" xmlns:xlink="http://www.w3.org/1999/xlink"><defs /><rect fill="#1a1a1a" height="200" width="200" x="0" y="0" /><text alignment-baseline="middle" fill="#e1ed5e" style="dominant-baseline: central; font-size:9.0px; font-family:Arial;" text-anchor="middle" x="100.0" y="100.0">2026</text><line stroke="#e1ed5e" stroke-width="0.3" x1="100.0" x2="100.0" y1="15.0" y2="10.0" /><path d="M 100.0 14.0 a86.0,86.0 0 0,1 42.46469731375804,11.215312516191453" fill="none" id="id121" stroke="none" /><text fill="#e1ed5e" style="font-size:6.75px; font-family:Arial;" text-anchor="middle"><textPath startOffset="22.20632615414155" xlink:href="#id121">January</textPath></text><path d="M 102.52436894288641 79.15227682838746 l 2.2811690570106333 -18.83923550169668 a39.97684184881803,39.97684184881803 0 0,0 0.6824337620748777,0.08859948829743357 l -2.6051175475933572 18.797177690235113" fill="red" stroke="none" /><path d="M 103.95276090670814 79.375362276772 l 3.5629856588843585 -18.59087613997517 a39.92922456038053,39.92922456038053 0 0,0 0.6739170680061484,0.13518142395942032 l -3.8824691363576322 18.52679075993854" fill="red" stroke="none" /><path d="M 104.307194497241 79.44645832069477 l 3.8915647726742786 -18.570194311891843 a39.97357091222787,39.97357091222787 0 0,0 0.6722360671056271,0.14692476701578716 l -4.210643563933433 18.500456046780187" fill="red" stroke="none" /><path d="M 104.66035177308747 79.52364482259891 l 4.230926639111946 -18.589574523596365 a40.064968428872106,40.064968428872106 0 0,0 0.6711384226605489,0.15883678103098295 l -4.550288748735018 18.513991830424516" fill="red" stroke="none" /><line stroke="#e1ed5e" stroke-width="0.3" x1="143.23703022742887" x2="145.7803849466894" y1="26.81831364943548" y2="22.513508569990506" /><path d="M 143.74570117128098 25.957352633546492 a86.0,86.0 0 0,1 28.547481713284135,27.462654790039103" fill="none" id="id122" stroke="none" /><text fill="#e1ed5e" style="font-size:6.75px; font-family:Arial;" text-anchor="middle"><textPath startOffset="19.985693538727396" xlink:href="#id122">February</textPath></text><path d="M 115.4437574822437 85.77008943001954 l 23.207454958255774 -21.38339772510152 a52.556863974567364,52.556863974567364 0 0,0 0.607297965366988,0.6705935815161322 l -23.572096564238798 20.98075135631584" fill="red" stroke="none" /><path d="M 116.60985879189232 87.15038557335679 l 24.9046884182775 -19.266608319798607 a52.48723076677304,52.48723076677304 0 0,0 0.5466771523667816,0.7193630517391758 l -25.232641510868397 18.8350604921784" fill="red" stroke="none" /><path d="M 117.04232023915458 87.72973835380427 l 15.600760487629241 -11.232356297533054 a40.22367175612152,40.22367175612152 0 0,0 0.39972250860254993,0.5653791410361713 l -15.791795616035673 10.96215065616509" fill="red" stroke="none" /><path d="M 117.45458315368197 88.32363383020206 l 26.47873655785406 -17.713137062107375 a52.85716111459461,52.85716111459461 0 0,0 0.49938279097922983,0.7605942513453432 l -26.779715984191213 17.25472474678436" fill="red" stroke="none" /><line stroke="#e1ed5e" stroke-width="0.3" x1="172.23445277983987" x2="176.4835382374775" y1="55.19839476539836" y2="52.563006222186495" /><path d="M 173.08426987136738 54.67131705675599 a86.0,86.0 0 0,1 12.851231095245387,41.99856678651699" fill="none" id="id123" stroke="none" /><text fill="#e1ed5e" style="font-size:6.75px; font-family:Arial;" text-anchor="middle"><textPath startOffset="22.20632615414155" xlink:href="#id123">March</textPath></text><path d="M 118.03404312379186 89.2402003453031 l 27.17476707065631 -16.213505054646728 a52.64404701522044,52.64404701522044 0 0,0 0.4576029275884635,0.7821917374170593 l -27.449829672715097 15.743333904875772" fill="red" stroke="none" /><path d="M 119.34039704204932 91.81776055985345 l 17.497923887519484 -7.402754071794053 a39.99942389181547,39.99942389181547 0 0,0 0.2628120492436491,0.6364202233082501 l -17.62275762364933 7.1004592780325" fill="red" stroke="none" /><path d="M 120.18372546131832 94.20196356495316 l 30.3046682918236 -8.705408287718832 a52.53025616345897,52.53025616345897 0 0,0 0.24217255915050823,0.8712235452495093 l -30.45002762154047 8.182473439050371" fill="red" stroke="none" /><path d="M 120.28053869075195 94.5502522615342 l 30.47025656528761 -8.187909322293837 a52.55120273816133,52.55120273816133 0 0,0 0.2272305701548782,0.8756120799899851 l -30.60668346731279 7.662200816755002" fill="red" stroke="none" /><path d="M 120.96714384426684 98.82574320788733 l 31.35047565537607 -1.7557712794703944 a52.39960280965574,52.39960280965574 0 0,0 0.04268419686053095,0.9009959329491878 l -31.376053460470096 1.215864239898207" fill="red" stroke="none" /><line stroke="#e1ed5e" stroke-width="0.3" x1="184.98032266829074" x2="189.97916517819016" y1="98.17113171792111" y2="98.06355123074" /><path d="M 185.9800911702706 98.14961562048488 a86.0,86.0 0 0,1 -9.607161424134198,41.387399972396054" fill="none" id="id124" stroke="none" /><text fill="#e1ed5e" style="font-size:6.75px; font-family:Arial;" text-anchor="middle"><textPath startOffset="21.466115282336823" xlink:href="#id124">April</textPath></text><line stroke="#e1ed5e" stroke-width="0.3" x1="174.80103733775053" x2="179.2010983576182" y1="140.37084112569926" y2="142.7455964860345" /><path d="M 175.68104954172406 140.8457921977663 a86.0,86.0 0 0,1 -30.038265399797805,32.042727171017184" fill="none" id="id125" stroke="none" /><text fill="#e1ed5e" style="font-size:6.75px; font-family:Arial;" text-anchor="middle"><textPath startOffset="22.206326154141568" xlink:href="#id125">May</textPath></text><path d="M 114.29624159901734 115.38237550388516 l 21.63697771415456 23.280812209496887 a52.78293601504871,52.78293601504871 0 0,0 -0.6708471144227711,0.6128029333936399 l -21.233031050264927 -23.64980790947711" fill="red" stroke="none" /><line stroke="#e1ed5e" stroke-width="0.3" x1="143.8653032363475" x2="146.44561519142675" y1="172.8068346515853" y2="177.08958963109032" /><path d="M 144.38136562736335 173.6633856474863 a86.0,86.0 0 0,1 -40.68145358897372,12.25698825130547" fill="none" id="id126" stroke="none" /><text fill="#e1ed5e" style="font-size:6.75px; font-family:Arial;" text-anchor="middle"><textPath startOffset="21.466115282336833" xlink:href="#id126">June</textPath></text><path d="M 110.8373102113329 117.98757091392108 l 16.257913017796568 26.98458912933603 a52.50377415760403,52.50377415760403 0 0,0 -0.7781362576245769,0.45973661676508415 l -15.79100888914361 -27.260444318394864" fill="red" stroke="none" /><path d="M 110.5260780823613 118.17145234162733 l 15.816863019033152 27.30507699976451 a52.55535431152576,52.55535431152576 0 0,0 -0.7867066872724476,0.44671258881661774 l -15.344507564839505 -27.573292754375757" fill="red" stroke="none" /><path d="M 107.93186726928326 119.44442032107085 l 11.932536303369629 29.251781894746944 a52.59196364028484,52.59196364028484 0 0,0 -0.8411681979211507,0.33471818568596934 l -11.427247029406612 -29.45284692483898" fill="red" stroke="none" /><path d="M 107.59598834532513 119.57807347666477 l 11.411388366985966 29.41197244689114 a52.54812050945137,52.54812050945137 0 0,0 -0.8460992565392033,0.31992234098766653 l -10.903418889686488 -29.60404303798544" fill="red" stroke="none" /><line stroke="#e1ed5e" stroke-width="0.3" x1="102.19456741930631" x2="102.32365962044197" y1="184.97166512339345" y2="189.96999836594603" /><path d="M 102.22038585953345 185.97133177190398 a86.0,86.0 0 0,1 -42.740103519485714,-10.115201625700543" fill="none" id="id127" stroke="none" /><text fill="#e1ed5e" style="font-size:6.75px; font-family:Arial;" text-anchor="middle"><textPath startOffset="22.20632615414155" xlink:href="#id127">July</textPath></text><path d="M 98.73552117531835 120.96189622390904 l -1.161209375844788 19.249947057687482 a40.284938914560264,40.284938914560264 0 0,0 -0.6918213882064981,-0.047712053422163815 l 1.492393524830216 -19.227106659749033" fill="red" stroke="none" /><path d="M 98.37488393609728 120.93702456842531 l -2.4439438387629746 31.486312474907102 a52.58101858323316,52.58101858323316 0 0,0 -0.9017786962709055,-0.07780926040111737 l 2.9855668527754218 -31.439578962227323" fill="red" stroke="none" /><path d="M 95.86986931433489 120.58985236759428 l -6.20785180842463 30.94787114097888 a52.564349387148695,52.564349387148695 0 0,0 -0.8856055065515328,-0.18558724447893218 l 6.73964877640555 -30.836427915773406" fill="red" stroke="none" /><path d="M 95.51606077576429 120.51570834832081 l -6.858110429639622 31.3784345324274 a53.11915055494096,53.11915055494096 0 0,0 -0.891591916761125,-0.2029234174807618 l 7.39722249579361 -31.25573438136895" fill="red" stroke="none" /><path d="M 95.16358092515715 120.4354850818985 l -7.264479657758532 30.69485157853143 a52.542773786179,52.542773786179 0 0,0 -0.87833181657708,-0.21587259080771887 l 7.791764759078823 -30.565257729409684" fill="red" stroke="none" /><path d="M 94.81253420990036 120.34920634021253 l -7.781509452029736 30.525028575586173 a52.50125805253467,52.50125805253467 0 0,0 -0.8737948311324346,-0.23077715669971166 l 8.30579472597366 -30.38656006958288" fill="red" stroke="none" /><path d="M 93.76903079525671 120.05430185196036 l -9.355879135052477 30.111788086189097 a52.53176582650058,52.53176582650058 0 0,0 -0.8612174132735869,-0.2757346193806698 l 9.872817893417006 -29.94628062014872" fill="red" stroke="none" /><path d="M 92.7421414339146 119.70592522655815 l -10.89511423936844 29.581494952112735 a52.52409170603905,52.52409170603905 0 0,0 -0.8457123587299827,-0.31977604934175075 l 11.402696818858704 -29.38957065266435" fill="red" stroke="none" /><line stroke="#e1ed5e" stroke-width="0.3" x1="58.666819895761336" x2="56.23545636021788" y1="174.27360380694188" y2="178.64263932499728" /><path d="M 58.180547188652646 175.14741091055294 a86.0,86.0 0 0,1 -31.652253787137756,-30.449443065178592" fill="none" id="id128" stroke="none" /><text fill="#e1ed5e" style="font-size:6.75px; font-family:Arial;" text-anchor="middle"><textPath startOffset="22.20632615414155" xlink:href="#id128">August</textPath></text><path d="M 87.65650970185807 116.9893568818739 l -37.030470894425804 50.968070645621694 a84.0,84.0 0 0,0 -1.1624601183257428,-0.8599602050409332 l 37.902315983170105 -50.323100491841" fill="red" stroke="none" /><path d="M 87.36589467227662 116.77436683061367 l -32.21989012195037 42.77851435682562 a74.55485608278386,74.55485608278386 0 0,0 -1.0184593505453956,-0.7809112006635754 l 32.95147820098926 -42.21756381433468" fill="red" stroke="none" /><line stroke="#e1ed5e" stroke-width="0.3" x1="26.63291911575756" x2="22.317208475507996" y1="142.92168965132927" y2="145.44649492493687" /><path d="M 25.769776987707644 143.4266507060508 a86.0,86.0 0 0,1 -11.730757126820373,-40.83630448921669" fill="none" id="id129" stroke="none" /><text fill="#e1ed5e" style="font-size:6.75px; font-family:Arial;" text-anchor="middle"><textPath startOffset="21.46611528233685" xlink:href="#id129">September</textPath></text><line stroke="#e1ed5e" stroke-width="0.3" x1="15.007084014347285" x2="10.007500721073583" y1="101.09737516637583" y2="101.16192664675087" /><path d="M 14.007167355692545 101.11028546245083 a86.0,86.0 0 0,1 10.666146001902534,-42.60595125391555" fill="none" id="id130" stroke="none" /><text fill="#e1ed5e" style="font-size:6.75px; font-family:Arial;" text-anchor="middle"><textPath startOffset="22.20632615414155" xlink:href="#id130">October</textPath></text><line stroke="#e1ed5e" stroke-width="0.3" x1="26.266209847984243" x2="21.928928074336255" y1="57.711370442889674" y2="55.22380399835377" /><path d="M 25.398753493254645 57.213857153982495 a86.0,86.0 0 0,1 29.58750427330803,-30.492523968695096" fill="none" id="id131" stroke="none" /><text fill="#e1ed5e" style="font-size:6.75px; font-family:Arial;" text-anchor="middle"><textPath startOffset="21.46611528233685" xlink:href="#id131">November</textPath></text><line stroke="#e1ed5e" stroke-width="0.3" x1="56.762969772571076" x2="54.21961505331055" y1="26.818313649435495" y2="22.513508569990535" /><path d="M 56.25429882871897 25.957352633546506 a86.0,86.0 0 0,1 42.265352541879196,-11.944610805530505" fill="none" id="id132" stroke="none" /><text fill="#e1ed5e" style="font-size:6.75px; font-family:Arial;" text-anchor="middle"><textPath startOffset="22.20632615414155" xlink:href="#id132">December</textPath></text></svg>