<?xml version="1.0" encoding="utf-8" ?>
<svg baseProfile="full" height="200mm" version="1.1" viewBox="0,0,200,200" width="200mm" xmlns="http://www.w3.org/2000/svg" xmlns:ev="http://www.w3.org/2001/xml-events" xmlns:xlink="http://www.w3.org/1999/xlink"><defs /><rect fill="#1a1a1a" height="200" width="200" x="0" y="0" /><text alignment-baseline="middle" fill="#e1ed5e" style="dominant-baseline: central; font-size:9.0px; font-family:Arial;" text-anchor="middle" x="100.0" y="100.0">2023</text><line stroke="#e1ed5e" stroke-width="0.3" x1="100.0" x2="100.0" y1="15.0" y2="10.0" /><path d="M 100.0 14.0 a86.0,86.0 0 0,1 42.46469731375804,11.215312516191453" fill="none" id="id85" stroke="none" /><text fill="#e1ed5e" style="font-size:6.75px; font-family:Arial;" text-anchor="middle"><textPath startOffset="22.20632615414155" xlink:href="#id85">January</textPath></text><line stroke="#e1ed5e" stroke-width="0.3" x1="143.23703022742887" x2="145.7803849466894" y1="26.81831364943548" y2="22.513508569990506" /><path d="M 143.74570117128098 25.957352633546492 a86.0,86.0 0 0,1 28.547481713284135,27.462654790039103" fill="none" id="id86" stroke="none" /><text fill="#e1ed5e" style="font-size:6.75px; font-family:Arial;" text-anchor="middle"><textPath startOffset="19.985693538727396" xlink:href="#id86">February</textPath></text><path d="M 114.94478906791727 85.2469230424477 l 3.8243097358317626 -3.7752513993899637 a26.373813179128344,26.373813179128344 0 0,0 0.3161538704573581,0.3258243542161028 l -3.8887278699922296 3.708862849623747" fill="#ff3e05" stroke="none" /><path d="M 115.9244219780498 86.31012108654704 l 1.7037596646830298 -1.4646850943341 a23.246797592255547,23.246797592255547 0 0,0 0.2582491023184027,0.30568548118500016 l -1.72871938048855 1.4351406635199933" fill="#ff1101" stroke="none" /><path d="M 116.15771136456269 86.58626213691792 l 4.596107808028455 -3.8155765959882277 a26.973510838934942,26.973510838934942 0 0,0 0.29349942384237926,0.3597955898682454 l -4.661105723947243 3.7358968365118814" fill="#ff4606" stroke="none" /><path d="M 116.38621287248628 86.86637796730983 l 2.998838014819281 -2.403581921606232 a24.84320640780554,24.84320640780554 0 0,0 0.2645753208603616,0.3359837894481613 l -3.0397674162736066 2.3516057382050324" fill="#ff2803" stroke="none" /><path d="M 116.60985879189232 87.15038557335679 l 2.355819747612046 -1.8224944471089009 a23.978484966049294,23.978484966049294 0 0,0 0.2497462656690172,0.32863681069222594 l -2.3868419535051766 1.7816728605356413" fill="#ff1c02" stroke="none" /><path d="M 117.04232023915458 87.72973835380427 l 12.022999892707233 -8.656412529836333 a35.815060050730324,35.815060050730324 0 0,0 0.3559119549311202,0.5034122198095741 l -12.170224467442235 8.448173809694964" fill="#ffbd11" stroke="none" /><path d="M 117.2510076193507 88.02491185347247 l 6.025570735024981 -4.182755133915865 a28.335048956420742,28.335048956420742 0 0,0 0.27468203483837866,0.4030619921424672 l -6.096677235532093 4.078415118502991" fill="#ff5908" stroke="none" /><path d="M 117.45458315368197 88.32363383020206 l 2.4688719142658875 -1.6515692321885935 a23.970355106340474,23.970355106340474 0 0,0 0.2264666240363474,0.3449242053893625 l -2.4969351736601597 1.608826962821557" fill="#ff1b02" stroke="none" /><path d="M 117.65298651832404 88.62581576622439 l 2.50376928336662 -1.613230321017884 a23.978484966049294,23.978484966049294 0 0,0 0.22057055139390266,0.3488896421726621 l -2.5311674310064785 1.5698930311310157" fill="#ff1c02" stroke="none" /><line stroke="#e1ed5e" stroke-width="0.3" x1="172.23445277983987" x2="176.4835382374775" y1="55.19839476539836" y2="52.563006222186495" /><path d="M 173.08426987136738 54.67131705675599 a86.0,86.0 0 0,1 12.851231095245387,41.99856678651699" fill="none" id="id87" stroke="none" /><text fill="#e1ed5e" style="font-size:6.75px; font-family:Arial;" text-anchor="middle"><textPath startOffset="22.20632615414155" xlink:href="#id87">March</textPath></text><path d="M 117.84615892207809 88.93136811851018 l 5.0504001066666016 -3.1323838299888993 a26.942926021396694,26.942926021396694 0 0,0 0.2410547689220687,0.3962306590240386 l -5.103570673874894 3.044985397757779" fill="#ff4606" stroke="none" /><path d="M 118.03404312379186 89.2402003453031 l 6.459262646616902 -3.853843063232727 a28.521580970381653,28.521580970381653 0 0,0 0.24792088928354214,0.4237771645225924 l -6.524643210370772 3.7420864863562393" fill="#ff5c08" stroke="none" /><path d="M 118.21658344932153 89.55222093294921 l 5.113246315888094 -2.9326063239262297 a26.894528627301362,26.894528627301362 0 0,0 0.22686477320801654,0.4035671172854005 l -5.162968730388544 2.8441556967060353" fill="#ff4506" stroke="none" /><path d="M 118.3937258080291 89.86733742301442 l 3.850403807089616 -2.1210951478546725 a25.395981585937644,25.395981585937644 0 0,0 0.20763258812869048,0.38471165187740325 l -3.8863444944367713 2.0545025126448104" fill="#ff3004" stroke="none" /><path d="M 118.56541770881063 90.18545643968196 l 4.6401581408170784 -2.453003477438652 a26.248646838197168,26.248646838197168 0 0,0 0.207727499848567,0.40126341137219257 l -4.681695073825762 2.3727673438061143" fill="#ff3c05" stroke="none" /><path d="M 118.73160827565052 90.50648371742162 l 2.0832108129396265 -1.0558087421886837 a23.33548697089721,23.33548697089721 0 0,0 0.17850534879670674,0.3598558906301308 l -2.1010761746897417 1.0197932630596032" fill="#ff1202" stroke="none" /><path d="M 118.89224826269711 90.83032412892265 l 2.081129248980663 -1.0101116814482782 a23.313314626236796,23.313314626236796 0 0,0 0.1721208765327217,0.3625304622740927 l -2.098208319355141 0.9741388035336452" fill="#ff1202" stroke="none" /><path d="M 119.04729006885535 91.15688171328212 l 5.368891865912218 -2.492624707621329 a26.91930551677329,26.91930551677329 0 0,0 0.1915086606267486,0.42196394825610517 l -5.411002843502313 2.399838750523161" fill="#ff4506" stroke="none" /><path d="M 119.196687751892 91.48605970444005 l 6.8618123929758905 -3.0432886020856444 a28.506402256206492,28.506402256206492 0 0,0 0.19507784919897328,0.45026657205438525 l -6.9131809520175445 2.9247228854446563" fill="#ff5b08" stroke="none" /><path d="M 119.34039704204932 91.81776055985345 l 5.430269423456645 -2.2973553516314356 a26.89624182195725,26.89624182195725 0 0,0 0.1767189559854557,0.4279389691406333 l -5.469010066328298 2.2035418120374994" fill="#ff4506" stroke="none" /><path d="M 119.47837535516314 92.15188598940014 l 20.561977023416596 -8.284712509163807 a43.16825118206231,43.16825118206231 0 0,0 0.27176767840931176,0.6916190984339808 l -20.701538251707607 7.929544405834041" fill="#e6ff1a" stroke="none" /><path d="M 119.61058180528143 92.48833698450437 l 4.407195298914772 -1.6881378766645536 a25.719446990210397,25.719446990210397 0 0,0 0.15480095646848946,0.414789601142134 l -4.435600843884886 1.6120251384930864" fill="#ff3405" stroke="none" /><path d="M 119.7369772167798 92.82701384747503 l 6.961776998090986 -2.530110333299606 a28.407280018321043,28.407280018321043 0 0,0 0.16306714708484088,0.4610127836670293 l -7.004297225985637 2.409899923205962" fill="#ff5a08" stroke="none" /><path d="M 119.85752413597 93.16781622104841 l 6.994489342657517 -2.4065254208802247 a28.396907851656145,28.396907851656145 0 0,0 0.1550507763230745,0.4635820859706788 l -7.034877412752362 2.2857702319872315" fill="#ff5a08" stroke="none" /><path d="M 119.97218684219823 93.5106431181261 l 1.419868293302635 -0.46134317455062734 a22.49293787380138,22.49293787380138 0 0,0 0.11647541179611068,0.3692588851701867 l -1.427599188866952 0.4368341229540216" fill="#ff0601" stroke="none" /><path d="M 120.08093135843002 93.85539295169968 l 5.57062234047631 -1.704566620230013 a26.825579852943065,26.825579852943065 0 0,0 0.13131006740198456,0.4427122695483053 l -5.599138304989998 1.6084249639351778" fill="#ff4406" stroke="none" /><path d="M 120.18372546131832 94.20196356495316 l 9.232723837909809 -2.6522194482638466 a30.60611562853878,30.60611562853878 0 0,0 0.1410988997341974,0.5076078152225056 l -9.27700950821037 2.492900329622389" fill="#ff780b" stroke="none" /><path d="M 120.28053869075195 94.5502522615342 l 31.652427524497746 -8.5055800513447 a53.77531174837877,53.77531174837877 0 0,0 0.23252359817003804,0.8960082760944109 l -31.794147454538088 7.959475349701438" fill="#70ff27" stroke="none" /><path d="M 120.45610955862082 95.25157060432595 l 2.9013435611528284 -0.6734821698743668 a23.978484966049294,23.978484966049294 0 0,0 0.08986863609596836,0.40286347414953255 l -2.9125065842508344 0.6234405261748703" fill="#ff1c02" stroke="none" /><path d="M 120.53481517161879 95.60439243477599 l 2.92696071121982 -0.6265345238233807 a23.993266529156237,23.993266529156237 0 0,0 0.08297180517364117,0.40459998886351556 l -2.9373118123084585 0.5760588787964533" fill="#ff1c02" stroke="none" /><path d="M 120.67395015179393 96.31383870115 l 11.94218628146732 -2.1292894957755486 a33.13052706761278,33.13052706761278 0 0,0 0.09527099316509524,0.5622947946420955 l -11.97706913615264 1.9234089128176153" fill="#ff9a0e" stroke="none" /><path d="M 120.78858239683441 97.02765380044208 l 43.86699277870602 -6.27209141935893 a65.3131152845277,65.3131152845277 0 0,0 0.14954837604175633,1.1143091061458235 l -43.968457153805616 5.5160639711484425" fill="#36ff6c" stroke="none" /><path d="M 120.83666639777658 97.38593545837742 l 5.882885556388162 -0.7380375652133523 a26.92900007735086,26.92900007735086 0 0,0 0.053742137486100065,0.4604298142106358 l -5.894718046877851 0.6366640126778638" fill="#ff4506" stroke="none" /><path d="M 120.87857604477298 97.74499172005257 l 11.126322983630654 -1.2017079325550009 a32.191030564306104,32.191030564306104 0 0,0 0.05475981614324963,0.5514238755153489 l -11.145359925456134 1.010008526335217" fill="#ff8d0d" stroke="none" /><path d="M 120.96714384426684 98.82574320788733 l 5.904019941647274 -0.3306523563124041 a26.913271721484108,26.913271721484108 0 0,0 0.021923284275527043,0.4627658810983434 l -5.908836834156298 0.22897536859106093" fill="#ff4506" stroke="none" /><path d="M 120.98425023603335 99.18683210126433 l 8.919115336193736 -0.34562770625274036 a29.92580959306526,29.92580959306526 0 0,0 0.015516255167213458,0.5149089699261818 l -8.923743285816595 0.19204858890155946" fill="#ff6f0a" stroke="none" /><line stroke="#e1ed5e" stroke-width="0.3" x1="184.98032266829074" x2="189.97916517819016" y1="98.17113171792111" y2="98.06355123074" /><path d="M 185.9800911702706 98.14961562048488 a86.0,86.0 0 0,1 -9.607161424134198,41.387399972396054" fill="none" id="id88" stroke="none" /><text fill="#e1ed5e" style="font-size:6.75px; font-family:Arial;" text-anchor="middle"><textPath startOffset="21.466115282336823" xlink:href="#id88">April</textPath></text><path d="M 120.99980553446 99.90962569577887 l 9.020410051134016 -0.03882003958668982 a30.020493583284292,30.020493583284292 0 0,0 -0.0022239506303796557,0.5167678042859225 l -9.019741803214133 -0.11645724290291744" fill="#ff700a" stroke="none" /><path d="M 120.92983693683757 101.71520430193887 l 6.482787634257254 0.5312657366796593 a27.504519874198905,27.504519874198905 0 0,0 -0.042730765004806874,0.4715304311308255 l -6.472682272975372 -0.6427775563590553" fill="#ff4e07" stroke="none" /><path d="M 120.8583938346157 102.4346265915055 l 62.575181503847105 7.303879774516526 a84.0,84.0 0 0,0 -0.1799939630126075,1.4347289828504204 l -62.44018603158764 -8.379926511654341" fill="#4dd2ff" stroke="none" /><path d="M 120.49622156327973 104.57218783832717 l 5.780615186871732 1.2895088186797983 a26.92269743716029,26.92269743716029 0 0,0 -0.10479266914935419,0.4514440760164573 l -5.757561951791826 -1.3888215520448206" fill="#ff4506" stroke="none" /><path d="M 120.41448212921028 104.9243191809786 l 7.193358962766689 1.7351601324890737 a28.39967525318479,28.39967525318479 0 0,0 -0.11872238880591321,0.47423692768793413 l -7.162425259665715 -1.858724899574404" fill="#ff5a08" stroke="none" /><path d="M 120.23288151984713 105.62410040840565 l 7.2614184756714835 2.018444410627723 a28.536731129449787,28.536731129449787 0 0,0 -0.13562742313908313,0.47213685259347693 l -7.225598415646301 -2.143138738725782" fill="#ff5c08" stroke="none" /><path d="M 120.02730092923936 106.31721596034902 l 7.079221903222539 2.233000530221138 a28.423050189984817,28.423050189984817 0 0,0 -0.15119404552263987,0.4653274248239579 l -7.039735606683652 -2.3545268550228915" fill="#ff5a08" stroke="none" /><path d="M 119.79798401119884 107.00284435728193 l 13.911518183506058 4.920712965395063 a35.75614293295598,35.75614293295598 0 0,0 -0.2102388653452133,0.5784870634302596 l -13.824755057155617 -5.159447825831454" fill="#ffbc11" stroke="none" /><path d="M 119.26925614724726 108.34839909993367 l 6.811502323246203 2.9510812161116164 a28.423304132505635,28.423304132505635 0 0,0 -0.19836612485776925,0.44726324442670246 l -6.759695113657161 -3.0678927970310066" fill="#ff5a08" stroke="none" /><line stroke="#e1ed5e" stroke-width="0.3" x1="174.80103733775053" x2="179.2010983576182" y1="140.37084112569926" y2="142.7455964860345" /><path d="M 175.68104954172406 140.8457921977663 a86.0,86.0 0 0,1 -30.038265399797805,32.042727171017184" fill="none" id="id89" stroke="none" /><text fill="#e1ed5e" style="font-size:6.75px; font-family:Arial;" text-anchor="middle"><textPath startOffset="22.206326154141568" xlink:href="#id89">May</textPath></text><path d="M 117.75023020441432 111.22182372390056 l 5.325144944341707 3.3665950909617828 a27.30008977592669,27.30008977592669 0 0,0 -0.25453451464268373,0.3950432191956811 l -5.266405566321972 -3.4577599100789165" fill="#ff4b06" stroke="none" /><path d="M 117.35343817320211 111.8261652097733 l 6.1656470255724605 4.201816356032953 a28.461264231601543,28.461264231601543 0 0,0 -0.27937996141528965,0.4024676715608629 l -6.092406156995034 -4.307325289780835" fill="#ff5b08" stroke="none" /><path d="M 116.93607887273984 112.41649034213515 l 8.312444589442284 6.0941726086592425 a31.307069168133147,31.307069168133147 0 0,0 -0.3223714752574405,0.43186927230091415 l -8.206311847489753 -6.236354760469472" fill="#ff820b" stroke="none" /><path d="M 116.71984013943494 112.70617746262583 l 9.64689175481218 7.331117856221801 a33.116427260165324,33.116427260165324 0 0,0 -0.34881561657344234,0.45089120523947757 l -9.519269321020671 -7.496087055574531" fill="#ff9a0e" stroke="none" /><path d="M 116.27256486870786 113.27417163493432 l 4.0162772617896785 3.276235439011872 a26.183068752718423,26.183068752718423 0 0,0 -0.2878940623840503,0.34678694418022954 l -3.959287199512085 -3.344883640305872" fill="#ff3b05" stroke="none" /><path d="M 116.0416608686014 113.55231037782055 l 13.537801672137011 11.43700091885652 a38.72221950355092,38.72221950355092 0 0,0 -0.43453243200267877,0.5054593874865445 l -13.338926730563553 -11.668337405504591" fill="#ffe215" stroke="none" /><path d="M 115.32070863581623 114.36230785411682 l 2.7876642651893095 2.613279406474149 a24.821034063145124,24.821034063145124 0 0,0 -0.29488978032163193,0.3091907557134258 l -2.7422679334887134 -2.660877278770082" fill="#ff2803" stroke="none" /><path d="M 114.81725581225074 114.88116024355365 l 4.986963846750173 5.00847181641695 a28.067856700912674,28.067856700912674 0 0,0 -0.3453015293042939,0.33795022276236986 l -4.9000123650700855 -5.093572142101892" fill="#ff5507" stroke="none" /><path d="M 113.48314897796784 116.09983520530334 l 4.722183774536204 5.638622009103454 a28.35479964118934,28.35479964118934 0 0,0 -0.37688912280886755,0.3101540895908533 l -4.624424523182646 -5.719071217551485" fill="#ff5908" stroke="none" /><path d="M 113.20401910651253 116.32954008644616 l 4.6782881814402115 5.78568493263508 a28.440465741358114,28.440465741358114 0 0,0 -0.38332670151048953,0.30453791500621435 l -4.578003987212371 -5.86535676164642" fill="#ff5a08" stroke="none" /><path d="M 111.45004920935366 117.60387380957326 l 0.8301291129269063 1.2762816894865685 a22.52250100001527,22.52250100001527 0 0,0 -0.32681028181527905,0.2085857843478241 l -0.8080370290646968 -1.2903819026582015" fill="#ff0601" stroke="none" /><line stroke="#e1ed5e" stroke-width="0.3" x1="143.8653032363475" x2="146.44561519142675" y1="172.8068346515853" y2="177.08958963109032" /><path d="M 144.38136562736335 173.6633856474863 a86.0,86.0 0 0,1 -40.68145358897372,12.25698825130547" fill="none" id="id90" stroke="none" /><text fill="#e1ed5e" style="font-size:6.75px; font-family:Arial;" text-anchor="middle"><textPath startOffset="21.466115282336833" xlink:href="#id90">June</textPath></text><path d="M 108.92500713936063 119.00905698771935 l 2.5173550144556445 5.361625394905452 a26.9231835311849,26.9231835311849 0 0,0 -0.4211965450391324,0.19335067544149503 l -2.4246904736490924 -5.404163140681021" fill="#ff4506" stroke="none" /><path d="M 108.59647513512805 119.15986991738527 l 0.44171722850588857 0.9845017295353008 a22.07905410680694,22.07905410680694 0 0,0 -0.3480913494226949,0.1525930181251111 l -0.4247052044254399 -0.9919593009548664" fill="#ff0000" stroke="none" /><path d="M 106.57524785965236 119.94407469862006 l 2.0734888356736563 6.289316708376759 a27.622300250662935,27.622300250662935 0 0,0 -0.4528461131329722,0.14498702501625946 l -1.9649213774497438 -6.324076580052725" fill="#ff4f07" stroke="none" /><path d="M 106.2309692047433 120.05430185196036 l 2.2023870297887216 7.088357017814048 a28.422621763297336,28.422621763297336 0 0,0 -0.46846574687126263,0.1411448866491921 l -2.0800463084772134 -7.125217273568966" fill="#ff5a08" stroke="none" /><path d="M 102.70371172650421 120.8252237178851 l 0.691605001527033 5.327057888612632 a26.37176537339144,26.37176537339144 0 0,0 -0.45067159039206495,0.05457005337522969 l -0.5998059880835876 -5.338173470713213" fill="#ff3e05" stroke="none" /><path d="M 102.34483914955558 120.86867818915974 l 0.34742912597801123 3.092061400011298 a24.111519034011792,24.111519034011792 0 0,0 -0.4128436329025813,0.042792930566124834 l -0.29415289646982723 -3.0975836990331813" fill="#ff1d03" stroke="none" /><path d="M 101.98527174616119 120.90594882070398 l 0.5937350613257071 6.252340431043918 a27.2804683096656,27.2804683096656 0 0,0 -0.46786741316180314,0.04036956909100409 l -0.4860233304223623 -6.261634252413586" fill="#ff4a06" stroke="none" /><path d="M 100.90346689309514 120.98055641714683 l 0.3774960643870285 8.766317323471524 a29.774441446293014,29.774441446293014 0 0,0 -0.5122333207047808,0.01764235126984246 l -0.22654239200759535 -8.77151647316746" fill="#ff6d0a" stroke="none" /><line stroke="#e1ed5e" stroke-width="0.3" x1="102.19456741930631" x2="102.32365962044197" y1="184.97166512339345" y2="189.96999836594603" /><path d="M 102.22038585953345 185.97133177190398 a86.0,86.0 0 0,1 -42.740103519485714,-10.115201625700543" fill="none" id="id91" stroke="none" /><text fill="#e1ed5e" style="font-size:6.75px; font-family:Arial;" text-anchor="middle"><textPath startOffset="22.20632615414155" xlink:href="#id91">July</textPath></text><path d="M 99.81925306533755 120.99922214144158 l -0.06280820852007284 7.297072702683081 a28.297343002716815,28.297343002716815 0 0,0 -0.4870381157197861,-0.008384802846372276 l 0.1884060141325269 -7.294910422557549" fill="#ff5908" stroke="none" /><path d="M 99.09653310690486 120.98055641714683 l -0.38257603836587634 8.8842858749209 a29.892519324266367,29.892519324266367 0 0,0 -0.5138836257733577,-0.026561913664544023 l 0.5354477325527228 -8.876384154494154" fill="#ff6e0a" stroke="none" /><path d="M 98.37488393609728 120.93702456842531 l -0.7416183191892606 9.554567402386665 a30.583306108964013,30.583306108964013 0 0,0 -0.5245119751139624,-0.04525710024412275 l 0.9059746120447646 -9.54038604986388" fill="#ff780b" stroke="none" /><path d="M 97.65516085044442 120.86867818915974 l -1.5114779383965078 13.45190210270482 a34.53655184081285,34.53655184081285 0 0,0 -0.5902010170491329,-0.07146512380438624 l 1.74280637849703 -13.423891450175086" fill="#ffac0f" stroke="none" /><path d="M 97.2962882734958 120.8252237178851 l -1.137233425101279 8.759491725773715 a29.83300600911523,29.83300600911523 0 0,0 -0.5086831662293155,-0.07049885170781296 l 1.2878451825174255 -8.738618308573297" fill="#ff6e0a" stroke="none" /><path d="M 96.93821686468263 120.77559828337769 l -1.502270847535933 10.193594471543399 a31.303697683338562,31.303697683338562 0 0,0 -0.5324075309014134,-0.08315110681290995 l 1.6775142420458633 -10.166225057383382" fill="#ff810b" stroke="none" /><path d="M 96.22490169976321 120.6578951692458 l -1.236803470043329 6.767971161840186 a27.880052068917184,27.880052068917184 0 0,0 -0.4713486377091913,-0.0903350882361768 l 1.3531197223242155 -6.745678875255542" fill="#ff5307" stroke="none" /><path d="M 95.86986931433489 120.58985236759428 l -1.4519095676385347 7.2381737828620185 a28.382357421820714,28.382357421820714 0 0,0 -0.4781866857430088,-0.10020866931950818 l 1.5762877148109304 -7.21210913281597" fill="#ff5a08" stroke="none" /><path d="M 95.51606077576429 120.51570834832081 l -4.2681159941061715 19.528235899943702 a40.989217380953036,40.989217380953036 0 0,0 -0.6879939628067526,-0.1565851860187766 l 4.603630106305787 -19.45187398034724" fill="#fffd18" stroke="none" /><path d="M 94.81253420990036 120.34920634021253 l -1.8133117069066655 7.113194684269516 a28.340683753079468,28.340683753079468 0 0,0 -0.47168284899802027,-0.12457572747907959 l 1.935484998716175 -7.080927607486855" fill="#ff5908" stroke="none" /><path d="M 94.11515582081647 120.15858648285463 l -4.131175789072884 14.151379694042305 a35.74205415283687,35.74205415283687 0 0,0 -0.589105686057561,-0.17749271070151246 l 4.37415644957069 -14.078171614235067" fill="#ffbc11" stroke="none" /><path d="M 93.76903079525671 120.05430185196036 l -2.1824598112697173 7.024221496979543 a28.355461811908004,28.355461811908004 0 0,0 -0.4648657262823283,-0.14883532557981038 l 2.303046882642986 -6.985613324740026" fill="#ff5908" stroke="none" /><path d="M 92.7421414339146 119.70592522655815 l -8.683104207976186 23.575631944159024 a46.12382773888217,46.12382773888217 0 0,0 -0.7426590329066174,-0.2808100994379189 l 9.087633461643087 -23.422673594614473" fill="#c4ff1e" stroke="none" /><path d="M 91.40352486487194 119.15986991738527 l -0.7170341312047649 1.5981295198620984 a22.75161522817291,22.75161522817291 0 0,0 -0.35593494049714985,-0.16339227367584017 l 0.7444370674693342 -1.5855501758521837" fill="#ff0a01" stroke="none" /><path d="M 91.07499286063937 119.00905698771935 l -3.4395133587701197 7.325697831494059 a29.092966135077724,29.092966135077724 0 0,0 -0.45147757684379947,-0.2167366731321888 l 3.565103603614161 -7.265406881862308" fill="#ff6309" stroke="none" /><path d="M 90.7491055286396 118.85261126421891 l -4.522037607494737 9.215564765137792 a31.265254895230118,31.265254895230118 0 0,0 -0.48110690212838364,-0.24123698834262608 l 4.679998417305882 -9.136359935885864" fill="#ff810b" stroke="none" /><line stroke="#e1ed5e" stroke-width="0.3" x1="58.666819895761336" x2="56.23545636021788" y1="174.27360380694188" y2="178.64263932499728" /><path d="M 58.180547188652646 175.14741091055294 a86.0,86.0 0 0,1 -31.652253787137756,-30.449443065178592" fill="none" id="id92" stroke="none" /><text fill="#e1ed5e" style="font-size:6.75px; font-family:Arial;" text-anchor="middle"><textPath startOffset="22.20632615414155" xlink:href="#id92">August</textPath></text><path d="M 89.4739219176387 118.17145234162733 l -5.15025858787111 8.891030234079592 a31.27499791461086,31.27499791461086 0 0,0 -0.463513532597488,-0.2738519651451739 l 5.30253999149698 -8.80105969664067" fill="#ff810b" stroke="none" /><path d="M 89.1626897886671 117.98757091392108 l -7.563345361352057 12.553503441428528 a35.655873966060284,35.655873966060284 0 0,0 -0.5229881345780311,-0.32126202760439926 l 7.778312695862397 -12.421452946995752" fill="#ffbb11" stroke="none" /><path d="M 88.8546689885994 117.79835938074946 l -5.041456442034424 8.050873811279217 a30.499097440392532,30.499097440392532 0 0,0 -0.44255381005865246,-0.2824587802882473 l 5.17929205414 -7.962900602167166" fill="#ff770a" stroke="none" /><path d="M 88.24862548938628 117.40417183066458 l -13.998600888707807 20.73238794627105 a46.01584971165313,46.01584971165313 0 0,0 -0.6526430492782688,-0.44889384041063807 l 14.353400822608966 -20.48835331649531" fill="#c5ff1e" stroke="none" /><path d="M 87.95078237400918 117.19931262002967 l -4.224148504365531 6.029640507388486 a28.362064604122516,28.362064604122516 0 0,0 -0.39743716851322064,-0.28356086712288014 l 4.327313000727639 -5.956035378421386" fill="#ff5908" stroke="none" /><path d="M 87.65650970185807 116.9893568818739 l -8.655916497159497 11.913846971798506 a35.72632473067297,35.72632473067297 0 0,0 -0.4944098532590716,-0.3657525897708154 l 8.859711320837134 -11.763084433287924" fill="#ffbc11" stroke="none" /><path d="M 87.36589467227662 116.77436683061367 l -7.355307319851919 9.765679479049172 a33.22575320612147,33.22575320612147 0 0,0 -0.4538816223334131,-0.34801707349999794 l 7.522317670678818 -9.637623063721808" fill="#ff9b0e" stroke="none" /><path d="M 86.79598089348748 116.32954008644616 l -9.388587961498079 11.61095892361986 a35.93184352438688,35.93184352438688 0 0,0 -0.4776024221006888,-0.393034278381508 l 9.587060512143456 -11.447629526381172" fill="#ffbe11" stroke="none" /><path d="M 86.51685102203217 116.09983520530335 l -10.398730022828733 12.416820431603352 a37.196018514386864,37.196018514386864 0 0,0 -0.48732899177080047,-0.41531233916377364 l 10.61092449117659 -12.235983702216627" fill="#ffce13" stroke="none" /><path d="M 86.24171649860922 115.8653595955263 l -14.453931060801551 16.667545324631707 a43.06180387590861,43.06180387590861 0 0,0 -0.5558205351524652,-0.490446998126557 l 14.738693948860604 -16.41627518473286" fill="#e8ff1a" stroke="none" /><path d="M 85.70375840098266 115.38237550388516 l -7.015237280909638 7.5482086222734015 a31.304805069132893,31.304805069132893 0 0,0 -0.39155478585913883,-0.3702394896472866 l 7.144127901159593 -7.426334495880185" fill="#ff810b" stroke="none" /><path d="M 85.44109423537348 115.13401014063109 l -8.333682010704743 8.662878247707093 a33.02063706257454,33.02063706257454 0 0,0 -0.40623253131894027,-0.39758403250967395 l 8.481564494399478 -8.51814411227485" fill="#ff980e" stroke="none" /><path d="M 84.67929136418377 114.36230785411682 l -10.716391449418735 10.046017892538375 a35.68889108116662,35.68889108116662 0 0,0 -0.41629152690385496,-0.45180223387903073 l 10.88772938431832 -9.860064403858" fill="#ffbb11" stroke="none" /><path d="M 84.43433777217949 114.09645910891817 l -8.792902136211117 7.962962551653317 a32.862710507131965,32.862710507131965 0 0,0 -0.37610769747417794,-0.4225609852025684 l 8.928668683333633 -7.810427396709884" fill="#ff960d" stroke="none" /><path d="M 83.95833913139862 113.55231037782056 l -9.197751865205989 7.770441544455702 a33.04069770277883,33.04069770277883 0 0,0 -0.363296631708575,-0.4376141963397687 l 9.330144496808101 -7.610966091002172" fill="#ff990e" stroke="none" /><path d="M 83.72743513129214 113.27417163493432 l -9.175365381543068 7.48470667473263 a32.840952828704545,32.840952828704545 0 0,0 -0.3535595802676831,-0.441119938654613 l 9.302842873865613 -7.325658902499757" fill="#ff960d" stroke="none" /><path d="M 83.28015986056508 112.70617746262583 l -9.84873336529153 7.484506602807009 a33.369938883764476,33.369938883764476 0 0,0 -0.34361301498512653,-0.4603257860089575 l 9.976107646971741 -7.313867937288744" fill="#ff9d0e" stroke="none" /><path d="M 83.06392112726016 112.41649034213515 l -8.51383952945517 6.241822979587186 a31.556790120193547,31.556790120193547 0 0,0 -0.31740151243555526,-0.4408429400522059 l 8.620020834266333 -6.094346434083842" fill="#ff850c" stroke="none" /><path d="M 82.6465618267979 111.8261652097733 l -12.156402818615431 8.284446382014698 a35.71088649079034,35.71088649079034 0 0,0 -0.3417989184608932,-0.5109430072127871 l 12.297204842487055 -8.07396646059609" fill="#ffbb11" stroke="none" /><path d="M 82.44556493220864 111.52570212397912 l -10.094290190272394 6.627600457479264 a33.07558620810637,33.07558620810637 0 0,0 -0.30838280573811866,-0.4786169627895036 l 10.206877859387559 -6.452861894768312" fill="#ff990e" stroke="none" /><path d="M 82.24976979558568 111.22182372390057 l -9.991213123104439 6.316517091001836 a32.82043687146176,32.82043687146176 0 0,0 -0.2977835126456701,-0.4801218387194192 l 10.098461275418066 -6.143598920917152" fill="#ff960d" stroke="none" /><path d="M 82.05923443525364 110.91462005526583 l -10.040514595555083 6.10834591056561 a32.75260920420135,32.75260920420135 0 0,0 -0.28887664740000973,-0.48417387719613103 l 10.144172118653325 -5.9346099394833685" fill="#ff950d" stroke="none" /><line stroke="#e1ed5e" stroke-width="0.3" x1="26.63291911575756" x2="22.317208475507996" y1="142.92168965132927" y2="145.44649492493687" /><path d="M 25.769776987707644 143.4266507060508 a86.0,86.0 0 0,1 -11.730757126820373,-40.83630448921669" fill="none" id="id93" stroke="none" /><text fill="#e1ed5e" style="font-size:6.75px; font-family:Arial;" text-anchor="middle"><textPath startOffset="21.46611528233685" xlink:href="#id93">September</textPath></text><path d="M 81.69416730710424 110.29060199501025 l -12.825949069481114 7.210091957932317 a35.71361259428709,35.71361259428709 0 0,0 -0.29663316857871874,-0.5384753638985771 l 12.948158647511349 -6.988246075635917" fill="#ffbb11" stroke="none" /><path d="M 81.35079622478065 109.6543875284942 l -1.383064956285176 0.7159900886921334 a22.55740504699628,22.55740504699628 0 0,0 -0.17554100661667205,-0.3463590596343118 l 1.3951846326881148 -0.6920768173551367" fill="#ff0701" stroke="none" /><path d="M 81.02952815118164 109.00673069616217 l -4.159244331113312 1.9747106918803459 a25.604214995254324,25.604214995254324 0 0,0 -0.1856005446746688,-0.3997670614296397 l 4.1926194926278075 -1.902823563171879" fill="#ff3304" stroke="none" /><path d="M 80.87730276802145 108.67885076344099 l -2.7458726002635325 1.2462163796253953 a24.015438873816652,24.015438873816652 0 0,0 -0.16760365100232485,-0.3779019869386044 l 2.7669173359971375 -1.1987660561940952" fill="#ff1c02" stroke="none" /><path d="M 80.45479744820244 107.68017299344265 l -6.8787772608906215 2.7029752803529172 a28.39078155347219,28.39078155347219 0 0,0 -0.174813831508335,-0.4563837510304819 l 6.9242853719924655 -2.5841679624892775" fill="#ff5a08" stroke="none" /><path d="M 80.32549172779594 107.34259656027581 l -5.614903008148692 2.0955018007825554 a26.9931847617106,26.9931847617106 0 0,0 -0.15871444934641582,-0.4367139994577184 l 5.650141718500332 -1.99854000431872" fill="#ff4606" stroke="none" /><path d="M 80.20201598880116 107.00284435728193 l -5.594399785157127 1.9788232451196195 a26.93405850928282,26.93405850928282 0 0,0 -0.15084248764777236,-0.43841887690775566 l 5.627633103748128 -1.882231665122567" fill="#ff4606" stroke="none" /><path d="M 79.97269907076064 106.31721596034903 l -5.998229178042072 1.8920227558990281 a27.289555102004833,27.289555102004833 0 0,0 -0.13745258666718324,-0.4492030061817962 l 6.029908537215386 -1.7884927771651842" fill="#ff4b06" stroke="none" /><path d="M 79.86692584326677 105.97154293290107 l -5.739395904987619 1.7023256750925964 a26.986533058312475,26.986533058312475 0 0,0 -0.12825974781600713,-0.44648900824565535 l 5.76784828968973 -1.603279191342345" fill="#ff4606" stroke="none" /><path d="M 79.76711848015287 105.62410040840567 l -8.203162012003169 2.2802192943535564 a29.51418034959996,29.51418034959996 0 0,0 -0.1318467635138933,-0.490650855235128 l 8.241196851858836 -2.1386775059428897" fill="#ff6909" stroke="none" /><path d="M 79.67330655649465 105.27499134158121 l -3.5912159892648776 0.9319584270688639 a24.71017233984304,24.71017233984304 0 0,0 -0.10329874063130566,-0.41262712015597924 l 3.6067260441912414 -0.8700034675154928" fill="#ff2603" stroke="none" /><path d="M 79.50377843672027 104.57218783832718 l -5.806852022754392 1.295361592156538 a26.949579150545112,26.949579150545112 0 0,0 -0.09710313392370311,-0.4536335143937132 l 5.828289195402537 -1.1952142583466612" fill="#ff4606" stroke="none" /><path d="M 79.35854240842038 103.8639653848113 l -10.257608745453844 1.9201669721008365 a31.43578355350273,31.43578355350273 0 0,0 -0.09498630020595089,-0.532733615366707 l 10.289141487998984 -1.743314606000916" fill="#ff830c" stroke="none" /><path d="M 79.29508885075956 103.50808413554451 l -2.2079390020281124 0.3740965478882988 a23.239406810702075,23.239406810702075 0 0,0 -0.06343057276541496,-0.3949822371594553 l 2.214051329154818 -0.3360350810356299" fill="#ff1101" stroke="none" /><path d="M 79.23777060512086 103.15116336523772 l -15.425288303121516 2.3411553005485626 a36.6019398593798,36.6019398593798 0 0,0 -0.0891796660732637,-0.6237223768085771 l 15.463302020211378 -2.0752874517595847" fill="#ffc712" stroke="none" /><path d="M 79.1416061653843 102.43462659150553 l -3.6924950329110335 0.4309941919501076 a24.717563121396513,24.717563121396513 0 0,0 -0.04568947204167089,-0.423027766660713 l 3.6993668064537566 -0.36737010340461246" fill="#ff2603" stroke="none" /><path d="M 79.10278846688536 102.07522291339032 l -3.38311874944081 0.33596470689089797 a24.399759514597207,24.399759514597207 0 0,0 -0.03790723832885744,-0.41830321619972366 l 3.388400584046743 -0.2776801021426081" fill="#ff2203" stroke="none" /><path d="M 79.07016306316243 101.71520430193888 l -2.2319247325351386 0.18290667597654417 a23.239406810702075,23.239406810702075 0 0,0 -0.029241195358963426,-0.39897287843515417 l 2.2347424865584373 -0.14446066104462932" fill="#ff1101" stroke="none" /><path d="M 79.04373962182676 101.35467743843564 l -2.950155097766911 0.19070714329323984 a23.956312621388875,23.956312621388875 0 0,0 -0.023059261778921526,-0.41173860939855145 l 2.9530007104333644 -0.1398968175592508" fill="#ff1b02" stroke="none" /><path d="M 79.0095281055655 100.63252640178507 l -3.590290111588888 0.10818972041547985 a24.591919834987486,24.591919834987486 0 0,0 -0.00910830528246926,-0.42322715607796246 l 3.5916204795563647 -0.04637274854738854" fill="#ff2403" stroke="none" /><line stroke="#e1ed5e" stroke-width="0.3" x1="15.007084014347285" x2="10.007500721073583" y1="101.09737516637583" y2="101.16192664675087" /><path d="M 14.007167355692545 101.11028546245083 a86.0,86.0 0 0,1 10.666146001902534,-42.60595125391555" fill="none" id="id94" stroke="none" /><text fill="#e1ed5e" style="font-size:6.75px; font-family:Arial;" text-anchor="middle"><textPath startOffset="22.20632615414155" xlink:href="#id94">October</textPath></text><path d="M 79.05617556472873 98.46500227214037 l -10.798531135605081 -0.7914371517295721 a31.827494975836757,31.827494975836757 0 0,0 0.04474872466161636,-0.5460477852349209 l 10.78330792712397 0.9771988541722714" fill="#ff890c" stroke="none" /><line stroke="#e1ed5e" stroke-width="0.3" x1="26.266209847984243" x2="21.928928074336255" y1="57.711370442889674" y2="55.22380399835377" /><path d="M 25.398753493254645 57.213857153982495 a86.0,86.0 0 0,1 29.58750427330803,-30.492523968695096" fill="none" id="id95" stroke="none" /><text fill="#e1ed5e" style="font-size:6.75px; font-family:Arial;" text-anchor="middle"><textPath startOffset="21.46611528233685" xlink:href="#id95">November</textPath></text><line stroke="#e1ed5e" stroke-width="0.3" x1="56.762969772571076" x2="54.21961505331055" y1="26.818313649435495" y2="22.513508569990535" /><path d="M 56.25429882871897 25.957352633546506 a86.0,86.0 0 0,1 42.265352541879196,-11.944610805530505" fill="none" id="id96" stroke="none" /><text fill="#e1ed5e" style="font-size:6.75px; font-family:Arial;" text-anchor="middle"><textPath startOffset="22.20632615414155" xlink:href="#id96">December</textPath></text></svg>