<?xml version="1.0" encoding="utf-8" ?>
<svg baseProfile="full" height="200mm" version="1.1" viewBox="0,0,200,200" width="200mm" xmlns="http://www.w3.org/2000/svg" xmlns:ev="http://www.w3.org/2001/xml-events" xmlns:xlink="http://www.w3.org/1999/xlink"><defs /><rect fill="#1a1a1a" height="200" width="200" x="0" y="0" /><text alignment-baseline="middle" fill="#e1ed5e" style="dominant-baseline: central; font-size:9.0px; font-family:Arial;" text-anchor="middle" x="100.0" y="100.0">2021</text><line stroke="#e1ed5e" stroke-width="0.3" x1="100.0" x2="100.0" y1="15.0" y2="10.0" /><path d="M 100.0 14.0 a86.0,86.0 0 0,1 42.46469731375804,11.215312516191453" fill="none" id="id61" stroke="none" /><text fill="#e1ed5e" style="font-size:6.75px; font-family:Arial;" text-anchor="middle"><textPath startOffset="22.20632615414155" xlink:href="#id61">January</textPath></text><line stroke="#e1ed5e" stroke-width="0.3" x1="143.23703022742887" x2="145.7803849466894" y1="26.81831364943548" y2="22.513508569990506" /><path d="M 143.74570117128098 25.957352633546492 a86.0,86.0 0 0,1 28.547481713284135,27.462654790039103" fill="none" id="id62" stroke="none" /><text fill="#e1ed5e" style="font-size:6.75px; font-family:Arial;" text-anchor="middle"><textPath startOffset="19.985693538727396" xlink:href="#id62">February</textPath></text><line stroke="#e1ed5e" stroke-width="0.3" x1="172.23445277983987" x2="176.4835382374775" y1="55.19839476539836" y2="52.563006222186495" /><path d="M 173.08426987136738 54.67131705675599 a86.0,86.0 0 0,1 12.851231095245387,41.99856678651699" fill="none" id="id63" stroke="none" /><text fill="#e1ed5e" style="font-size:6.75px; font-family:Arial;" text-anchor="middle"><textPath startOffset="22.20632615414155" xlink:href="#id63">March</textPath></text><line stroke="#e1ed5e" stroke-width="0.3" x1="184.98032266829074" x2="189.97916517819016" y1="98.17113171792111" y2="98.06355123074" /><path d="M 185.9800911702706 98.14961562048488 a86.0,86.0 0 0,1 -9.607161424134198,41.387399972396054" fill="none" id="id64" stroke="none" /><text fill="#e1ed5e" style="font-size:6.75px; font-family:Arial;" text-anchor="middle"><textPath startOffset="21.466115282336823" xlink:href="#id64">April</textPath></text><path d="M 120.99980553446 99.90962569577887 l 0.44444087327975956 -0.0019126860305529287 a21.444444988957606,21.444444988957606 0 0,0 -0.001588627675924994,0.3691411242233649 l -0.44440794831433156 -0.0057379163964967235" fill="#ff0300" stroke="none" /><path d="M 120.89721153311464 102.0752229133903 l 0.43268364893993716 0.0429681740602858 a21.434811918008297,21.434811918008297 0 0,0 -0.03962143173404314,0.36684524966856624 l -0.43187991570484213 -0.05040974561364344" fill="#ff0300" stroke="none" /><path d="M 120.5718875245553 104.21870165774334 l 1.0627022699156699 0.21792962956994186 a22.08481769801585,22.08481769801585 0 0,0 -0.07957471241503816,0.3717465646172294 l -1.0587935187761885 -0.23619001360334027" fill="#ff0c01" stroke="none" /><path d="M 120.32669344350535 105.2749913415812 l 4.497106781971874 1.1670466425343429 a25.646070089259105,25.646070089259105 0 0,0 -0.11456700806414313,0.4263464569797967 l -4.476351697565954 -1.2442840326896878" fill="#ff3e05" stroke="none" /><line stroke="#e1ed5e" stroke-width="0.3" x1="174.80103733775053" x2="179.2010983576182" y1="140.37084112569926" y2="142.7455964860345" /><path d="M 175.68104954172406 140.8457921977663 a86.0,86.0 0 0,1 -30.038265399797805,32.042727171017184" fill="none" id="id65" stroke="none" /><text fill="#e1ed5e" style="font-size:6.75px; font-family:Arial;" text-anchor="middle"><textPath startOffset="22.206326154141568" xlink:href="#id65">May</textPath></text><path d="M 116.498646956653 112.99209946851258 l 0.6590419322525027 0.5189721533069424 a21.838849428905544,21.838849428905544 0 0,0 -0.23511298462888694,0.29333959859856085 l -0.6500110355687618 -0.5302395854837535" fill="#ff0801" stroke="none" /><path d="M 116.0416608686014 113.55231037782055 l 0.7806869486538063 0.6595396775142318 a22.021990556714673,22.021990556714673 0 0,0 -0.24712604899292326,0.28746342541162206 l -0.7692183900901042 -0.672880202087382" fill="#ff0b01" stroke="none" /><path d="M 115.80600337817218 113.82643327865902 l 0.8775101782088087 0.7676093469082467 a22.165868012392895,22.165868012392895 0 0,0 -0.2536842960305528,0.28501699587908386 l -0.8641670325299177 -0.782600512528197" fill="#ff0d01" stroke="none" /><path d="M 115.32070863581623 114.36230785411682 l 0.8014633950159968 0.7513271276575076 a22.098560888756126,22.098560888756126 0 0,0 -0.2625450555094143,0.27527744106032137 l -0.788411788127618 -0.7650116853003361" fill="#ff0c01" stroke="none" /><path d="M 114.81725581225074 114.88116024355365 l 1.3357188133543612 1.3414795528752002 a22.89306950192829,22.89306950192829 0 0,0 -0.2816393140994013,0.27564334606423685 l -1.3124295468791658 -1.364273001862009" fill="#ff1702" stroke="none" /><path d="M 111.7513745106137 117.40417183066458 l 0.6304828087852861 0.9337657591006434 a22.12668853950086,22.12668853950086 0 0,0 -0.3174919566691467,0.21041635657306512 l -0.6143161533761753 -0.944480136765027" fill="#ff0c01" stroke="none" /><line stroke="#e1ed5e" stroke-width="0.3" x1="143.8653032363475" x2="146.44561519142675" y1="172.8068346515853" y2="177.08958963109032" /><path d="M 144.38136562736335 173.6633856474863 a86.0,86.0 0 0,1 -40.68145358897372,12.25698825130547" fill="none" id="id66" stroke="none" /><text fill="#e1ed5e" style="font-size:6.75px; font-family:Arial;" text-anchor="middle"><textPath startOffset="21.466115282336833" xlink:href="#id66">June</textPath></text><path d="M 110.8373102113329 117.98757091392108 l 0.5252402867340904 0.8717843007389267 a22.017784469238634,22.017784469238634 0 0,0 -0.3263162826475888,0.19279341157771945 l -0.5101561330581195 -0.8806962846103956" fill="#ff0b01" stroke="none" /><path d="M 110.21172684928248 118.3499491758327 l 0.4410670242941772 0.7925748111351605 a21.907036356033018,21.907036356033018 0 0,0 -0.3310854094747164,0.18053416350714696 l -0.42735880295081213 -0.800049626402078" fill="#ff0901" stroke="none" /><path d="M 105.53697534728816 120.25689768951611 l 0.11629981338738805 0.42548020775493817 a21.44108848747743,21.44108848747743 0 0,0 -0.35685073061417794,0.09424752132102386 l -0.10895863996171269 -0.427419078379546" fill="#ff0300" stroke="none" /><path d="M 103.06178313531738 120.77559828337769 l 0.11028440528670752 0.7483301069657069 a21.756412981803425,21.756412981803425 0 0,0 -0.3709690212912135,0.05141292607354176 l -0.09738679280866357 -0.7501175985318512" fill="#ff0701" stroke="none" /><line stroke="#e1ed5e" stroke-width="0.3" x1="102.19456741930631" x2="102.32365962044197" y1="184.97166512339345" y2="189.96999836594603" /><path d="M 102.22038585953345 185.97133177190398 a86.0,86.0 0 0,1 -42.740103519485714,-10.115201625700543" fill="none" id="id67" stroke="none" /><text fill="#e1ed5e" style="font-size:6.75px; font-family:Arial;" text-anchor="middle"><textPath startOffset="22.20632615414155" xlink:href="#id67">July</textPath></text><path d="M 100.54218724476979 120.99299961872073 l 0.01945226354034654 0.7531740464664285 a21.753425201879693,21.753425201879693 0 0,0 -0.3744078452792404,0.006445770598799869 l -0.006484728368438175 -0.753397294344388" fill="#ff0701" stroke="none" /><path d="M 100.18074693466247 120.99922214144158 l 0.007053188794455878 0.8194411627333956 a21.81947151668257,21.81947151668257 0 0,0 -0.37560024691382204,0.0 l 0.007053188794455313 -0.8194411627333956" fill="#ff0801" stroke="none" /><path d="M 99.81925306533755 120.99922214144158 l -0.021633747319737207 2.5134139429107627 a23.513507045433,23.513507045433 0 0,0 -0.4047013942005829,-0.006967301516040298 l 0.064894831412988 -2.5126691641155627" fill="#ff2003" stroke="none" /><path d="M 99.09653310690486 120.98055641714683 l -0.03874439164909992 0.899732907818212 a21.900566728951983,21.900566728951983 0 0,0 -0.37649361417420163,-0.019460419389501712 l 0.05422607423679046 -0.8989326816665084" fill="#ff0901" stroke="none" /><path d="M 98.37488393609728 120.93702456842531 l -0.08366209619127554 1.0778524699313745 a22.08109448859768,22.08109448859768 0 0,0 -0.37869674526449437,-0.03267554865422178 l 0.1022031591973116 -1.0762526689984893" fill="#ff0c01" stroke="none" /><path d="M 98.01472825383883 120.90594882070398 l -0.08604578565938696 0.9061070831793145 a21.910183455912854,21.910183455912854 0 0,0 -0.37515179872084153,-0.038886017840572135 l 0.10163018098582183 -0.9044916968829817" fill="#ff0901" stroke="none" /><path d="M 97.65516085044442 120.86867818915974 l -0.12089906756740415 1.0759815806179376 a22.082752486197904,22.082752486197904 0 0,0 -0.37737591861143716,-0.04569496826555827 l 0.13940240923023067 -1.0737410836270307" fill="#ff0c01" stroke="none" /><path d="M 95.51606077576429 120.51570834832081 l -0.09621410127351471 0.4402156991901871 a21.450607384645853,21.450607384645853 0 0,0 -0.36004318506534894,-0.08194465672089926 l 0.10377743573172628 -0.4384943088916011" fill="#ff0300" stroke="none" /><path d="M 94.81253420990036 120.34920634021253 l -1.6544405982443113 6.489980748509474 a27.69753863812241,27.69753863812241 0 0,0 -0.46097878402961096,-0.12174868663319012 l 1.7659098250854115 -6.460540712572702" fill="#ff5a08" stroke="none" /><line stroke="#e1ed5e" stroke-width="0.3" x1="58.666819895761336" x2="56.23545636021788" y1="174.27360380694188" y2="178.64263932499728" /><path d="M 58.180547188652646 175.14741091055294 a86.0,86.0 0 0,1 -31.652253787137756,-30.449443065178592" fill="none" id="id68" stroke="none" /><text fill="#e1ed5e" style="font-size:6.75px; font-family:Arial;" text-anchor="middle"><textPath startOffset="22.20632615414155" xlink:href="#id68">August</textPath></text><path d="M 83.06392112726016 112.41649034213515 l -0.3626217969184623 0.2658519763115267 a21.449635230947397,21.449635230947397 0 0,0 -0.2157426860451521,-0.2996477215281562 l 0.36714427533922184 -0.2595706493322323" fill="#ff0300" stroke="none" /><line stroke="#e1ed5e" stroke-width="0.3" x1="26.63291911575756" x2="22.317208475507996" y1="142.92168965132927" y2="145.44649492493687" /><path d="M 25.769776987707644 143.4266507060508 a86.0,86.0 0 0,1 -11.730757126820373,-40.83630448921669" fill="none" id="id69" stroke="none" /><text fill="#e1ed5e" style="font-size:6.75px; font-family:Arial;" text-anchor="middle"><textPath startOffset="21.46611528233685" xlink:href="#id69">September</textPath></text><path d="M 81.87401531095188 110.60418214915194 l -0.3675332080342807 0.21501668189163262 a21.42580844578244,21.42580844578244 0 0,0 -0.1834947085616909,-0.31993849119232604 l 0.3711799127483488 -0.20865834484099965" fill="#ff0200" stroke="none" /><path d="M 80.20201598880116 107.00284435728193 l -0.5490372593092561 0.19420272645520448 a21.582371540403937,21.582371540403937 0 0,0 -0.12087070395911531,-0.3513068440275603 l 0.5522987942115999 -0.18472317933834734" fill="#ff0500" stroke="none" /><path d="M 80.0844068197444 106.66101706037122 l -0.2468941947894035 0.08257682453713017 a21.26033761804884,21.26033761804884 0 0,0 -0.11309259323556152,-0.3480632123775466 l 0.24827903904121434 -0.07831471218178017" fill="#ff0000" stroke="none" /><path d="M 79.97269907076064 106.31721596034903 l -0.32891505028699725 0.1037497470384762 a21.34489001191082,21.34489001191082 0 0,0 -0.10751037652673662,-0.3513501309981319 l 0.3306521993198642 -0.0980726434882965" fill="#ff0100" stroke="none" /><path d="M 79.07016306316243 101.71520430193888 l -0.41322942580044053 0.03386423367557025 a21.41461469422802,21.41461469422802 0 0,0 -0.026945134052323638,-0.3676449461352576 l 0.4137511185170995 -0.026746151043552012" fill="#ff0200" stroke="none" /><line stroke="#e1ed5e" stroke-width="0.3" x1="15.007084014347285" x2="10.007500721073583" y1="101.09737516637583" y2="101.16192664675087" /><path d="M 14.007167355692545 101.11028546245083 a86.0,86.0 0 0,1 10.666146001902534,-42.60595125391555" fill="none" id="id70" stroke="none" /><text fill="#e1ed5e" style="font-size:6.75px; font-family:Arial;" text-anchor="middle"><textPath startOffset="22.20632615414155" xlink:href="#id70">October</textPath></text><path d="M 79.21141760316559 97.0276538004421 l -62.36574719050324 -8.91703859867371 a84.0,84.0 0 0,0 0.21697642624279112,-1.4296035504316318 l 62.20301487082115 9.989241261497433" fill="#4dd2ff" stroke="none" /><path d="M 79.3925641242962 95.95851677861259 l -0.8687126891963358 -0.17036994698271365 a21.885261348532524,21.885261348532524 0 0,0 0.07568205181975177,-0.36905256260673946 l 0.8656513414615895 0.18529816575285563" fill="#ff0901" stroke="none" /><path d="M 79.54389044137918 95.25157060432595 l -0.8593175168705623 -0.19947138753987553 a21.882165193854117,21.882165193854117 0 0,0 0.08832808893872757,-0.3661769529709074 l 0.85575662767102 0.21423357217017971" fill="#ff0901" stroke="none" /><path d="M 80.52162464483688 92.15188598940014 l -1.1115910867711734 -0.4478758327159109 a22.198427096539497,22.198427096539497 0 0,0 0.14585245355048546,-0.35319328518533877 l 1.103716946334488 0.46694368835456096" fill="#ff0d01" stroke="none" /><path d="M 80.95270993114464 91.15688171328213 l -0.795198254882147 -0.3691880684283106 a21.876721218197346,21.876721218197346 0 0,0 0.1615145890709426,-0.3401909159390495 l 0.7887254719694529 0.3828214000078923" fill="#ff0901" stroke="none" /><path d="M 81.10775173730289 90.83032412892265 l -0.7771158712717527 -0.3771864817117601 a21.86381636900938,21.86381636900938 0 0,0 0.16724777039555375,-0.3371612995201495 l 0.7705080879227862 0.39050736973087113" fill="#ff0901" stroke="none" /><path d="M 81.6062741919709 89.86733742301443 l -1.0406789655171456 -0.5732850928955714 a22.188136569172972,22.188136569172972 0 0,0 0.18716470700899884,-0.33294512936978277 l 1.030656617215716 0.5911137322001387" fill="#ff0d01" stroke="none" /><line stroke="#e1ed5e" stroke-width="0.3" x1="26.266209847984243" x2="21.928928074336255" y1="57.711370442889674" y2="55.22380399835377" /><path d="M 25.398753493254645 57.213857153982495 a86.0,86.0 0 0,1 29.58750427330803,-30.492523968695096" fill="none" id="id71" stroke="none" /><text fill="#e1ed5e" style="font-size:6.75px; font-family:Arial;" text-anchor="middle"><textPath startOffset="21.46611528233685" xlink:href="#id71">November</textPath></text><path d="M 83.6137871275137 86.86637796730984 l -0.3444921993297967 -0.27611202017304265 a21.441489210607823,21.441489210607823 0 0,0 0.2333053627024594,-0.2860047883366074 l 0.3396883445509447 0.28200097811773234" fill="#ff0300" stroke="none" /><path d="M 88.09926311788651 82.69761687909137 l -1.239060514615471 -1.8014598546489098 a23.18644198797746,23.18644198797746 0 0,0 0.33078805585776905,-0.22334957192123286 l 1.2078677643511624 1.8225213388688082" fill="#ff1c02" stroke="none" /><line stroke="#e1ed5e" stroke-width="0.3" x1="56.762969772571076" x2="54.21961505331055" y1="26.818313649435495" y2="22.513508569990535" /><path d="M 56.25429882871897 25.957352633546506 a86.0,86.0 0 0,1 42.265352541879196,-11.944610805530505" fill="none" id="id72" stroke="none" /><text fill="#e1ed5e" style="font-size:6.75px; font-family:Arial;" text-anchor="middle"><textPath startOffset="22.20632615414155" xlink:href="#id72">December</textPath></text></svg>