<?xml version="1.0" encoding="utf-8" ?>
<svg baseProfile="full" height="200mm" version="1.1" viewBox="0,0,200,200" width="200mm" xmlns="http://www.w3.org/2000/svg" xmlns:ev="http://www.w3.org/2001/xml-events" xmlns:xlink="http://www.w3.org/1999/xlink"><defs /><rect fill="#1a1a1a" height="200" width="200" x="0" y="0" /><text alignment-baseline="middle" fill="#e1ed5e" style="dominant-baseline: central; font-size:9.0px; font-family:Arial;" text-anchor="middle" x="100.0" y="100.0">2023</text><line stroke="#e1ed5e" stroke-width="0.3" x1="100.0" x2="100.0" y1="15.0" y2="10.0" /><path d="M 100.0 14.0 a86.0,86.0 0 0,1 42.46469731375804,11.215312516191453" fill="none" id="id85" stroke="none" /><text fill="#e1ed5e" style="font-size:6.75px; font-family:Arial;" text-anchor="middle"><textPath startOffset="22.20632615414155" xlink:href="#id85">January</textPath></text><line stroke="#e1ed5e" stroke-width="0.3" x1="143.23703022742887" x2="145.7803849466894" y1="26.81831364943548" y2="22.513508569990506" /><path d="M 143.74570117128098 25.957352633546492 a86.0,86.0 0 0,1 28.547481713284135,27.462654790039103" fill="none" id="id86" stroke="none" /><text fill="#e1ed5e" style="font-size:6.75px; font-family:Arial;" text-anchor="middle"><textPath startOffset="19.985693538727396" xlink:href="#id86">February</textPath></text><path d="M 114.94478906791727 85.2469230424477 l 3.8243097358317626 -3.7752513993899637 a26.373813179128344,26.373813179128344 0 0,0 0.3161538704573581,0.3258243542161028 l -3.8887278699922296 3.708862849623747" fill="#ff4206" stroke="none" /><path d="M 115.9244219780498 86.31012108654704 l 1.7037596646830298 -1.4646850943341 a23.246797592255547,23.246797592255547 0 0,0 0.2582491023184027,0.30568548118500016 l -1.72871938048855 1.4351406635199933" fill="#ff1502" stroke="none" /><path d="M 116.15771136456269 86.58626213691792 l 4.596107808028455 -3.8155765959882277 a26.973510838934942,26.973510838934942 0 0,0 0.29349942384237926,0.3597955898682454 l -4.661105723947243 3.7358968365118814" fill="#ff4a06" stroke="none" /><path d="M 116.38621287248628 86.86637796730983 l 2.998838014819281 -2.403581921606232 a24.84320640780554,24.84320640780554 0 0,0 0.2645753208603616,0.3359837894481613 l -3.0397674162736066 2.3516057382050324" fill="#ff2c04" stroke="none" /><path d="M 116.60985879189232 87.15038557335679 l 2.355819747612046 -1.8224944471089009 a23.978484966049294,23.978484966049294 0 0,0 0.2497462656690172,0.32863681069222594 l -2.3868419535051766 1.7816728605356413" fill="#ff2003" stroke="none" /><path d="M 117.04232023915458 87.72973835380427 l 12.022999892707233 -8.656412529836333 a35.815060050730324,35.815060050730324 0 0,0 0.3559119549311202,0.5034122198095741 l -12.170224467442235 8.448173809694964" fill="#ffc011" stroke="none" /><path d="M 117.2510076193507 88.02491185347247 l 6.025570735024981 -4.182755133915865 a28.335048956420742,28.335048956420742 0 0,0 0.27468203483837866,0.4030619921424672 l -6.096677235532093 4.078415118502991" fill="#ff5d08" stroke="none" /><path d="M 117.45458315368197 88.32363383020206 l 2.4688719142658875 -1.6515692321885935 a23.970355106340474,23.970355106340474 0 0,0 0.2264666240363474,0.3449242053893625 l -2.4969351736601597 1.608826962821557" fill="#ff2003" stroke="none" /><path d="M 117.65298651832404 88.62581576622439 l 2.50376928336662 -1.613230321017884 a23.978484966049294,23.978484966049294 0 0,0 0.22057055139390266,0.3488896421726621 l -2.5311674310064785 1.5698930311310157" fill="#ff2003" stroke="none" /><line stroke="#e1ed5e" stroke-width="0.3" x1="172.23445277983987" x2="176.4835382374775" y1="55.19839476539836" y2="52.563006222186495" /><path d="M 173.08426987136738 54.67131705675599 a86.0,86.0 0 0,1 12.851231095245387,41.99856678651699" fill="none" id="id87" stroke="none" /><text fill="#e1ed5e" style="font-size:6.75px; font-family:Arial;" text-anchor="middle"><textPath startOffset="22.20632615414155" xlink:href="#id87">March</textPath></text><path d="M 117.84615892207809 88.93136811851018 l 5.0504001066666016 -3.1323838299888993 a26.942926021396694,26.942926021396694 0 0,0 0.2410547689220687,0.3962306590240386 l -5.103570673874894 3.044985397757779" fill="#ff4906" stroke="none" /><path d="M 118.03404312379186 89.2402003453031 l 6.459262646616902 -3.853843063232727 a28.521580970381653,28.521580970381653 0 0,0 0.24792088928354214,0.4237771645225924 l -6.524643210370772 3.7420864863562393" fill="#ff5f08" stroke="none" /><path d="M 118.21658344932153 89.55222093294921 l 5.113246315888094 -2.9326063239262297 a26.894528627301362,26.894528627301362 0 0,0 0.22686477320801654,0.4035671172854005 l -5.162968730388544 2.8441556967060353" fill="#ff4906" stroke="none" /><path d="M 118.3937258080291 89.86733742301442 l 3.850403807089616 -2.1210951478546725 a25.395981585937644,25.395981585937644 0 0,0 0.20763258812869048,0.38471165187740325 l -3.8863444944367713 2.0545025126448104" fill="#ff3404" stroke="none" /><path d="M 118.56541770881063 90.18545643968196 l 4.6401581408170784 -2.453003477438652 a26.248646838197168,26.248646838197168 0 0,0 0.207727499848567,0.40126341137219257 l -4.681695073825762 2.3727673438061143" fill="#ff4006" stroke="none" /><path d="M 118.73160827565052 90.50648371742162 l 2.0832108129396265 -1.0558087421886837 a23.33548697089721,23.33548697089721 0 0,0 0.17850534879670674,0.3598558906301308 l -2.1010761746897417 1.0197932630596032" fill="#ff1602" stroke="none" /><path d="M 118.89224826269711 90.83032412892265 l 2.081129248980663 -1.0101116814482782 a23.313314626236796,23.313314626236796 0 0,0 0.1721208765327217,0.3625304622740927 l -2.098208319355141 0.9741388035336452" fill="#ff1602" stroke="none" /><path d="M 119.04729006885535 91.15688171328212 l 5.368891865912218 -2.492624707621329 a26.91930551677329,26.91930551677329 0 0,0 0.1915086606267486,0.42196394825610517 l -5.411002843502313 2.399838750523161" fill="#ff4906" stroke="none" /><path d="M 119.196687751892 91.48605970444005 l 6.8618123929758905 -3.0432886020856444 a28.506402256206492,28.506402256206492 0 0,0 0.19507784919897328,0.45026657205438525 l -6.9131809520175445 2.9247228854446563" fill="#ff5f08" stroke="none" /><path d="M 119.34039704204932 91.81776055985345 l 5.430269423456645 -2.2973553516314356 a26.89624182195725,26.89624182195725 0 0,0 0.1767189559854557,0.4279389691406333 l -5.469010066328298 2.2035418120374994" fill="#ff4906" stroke="none" /><path d="M 119.47837535516314 92.15188598940014 l 20.561977023416596 -8.284712509163807 a43.16825118206231,43.16825118206231 0 0,0 0.27176767840931176,0.6916190984339808 l -20.701538251707607 7.929544405834041" fill="#e4ff1a" stroke="none" /><path d="M 119.61058180528143 92.48833698450437 l 4.407195298914772 -1.6881378766645536 a25.719446990210397,25.719446990210397 0 0,0 0.15480095646848946,0.414789601142134 l -4.435600843884886 1.6120251384930864" fill="#ff3805" stroke="none" /><path d="M 119.7369772167798 92.82701384747503 l 6.961776998090986 -2.530110333299606 a28.407280018321043,28.407280018321043 0 0,0 0.16306714708484088,0.4610127836670293 l -7.004297225985637 2.409899923205962" fill="#ff5e08" stroke="none" /><path d="M 119.85752413597 93.16781622104841 l 6.994489342657517 -2.4065254208802247 a28.396907851656145,28.396907851656145 0 0,0 0.1550507763230745,0.4635820859706788 l -7.034877412752362 2.2857702319872315" fill="#ff5e08" stroke="none" /><path d="M 119.97218684219823 93.5106431181261 l 1.419868293302635 -0.46134317455062734 a22.49293787380138,22.49293787380138 0 0,0 0.11647541179611068,0.3692588851701867 l -1.427599188866952 0.4368341229540216" fill="#ff0a01" stroke="none" /><path d="M 120.08093135843002 93.85539295169968 l 5.57062234047631 -1.704566620230013 a26.825579852943065,26.825579852943065 0 0,0 0.13131006740198456,0.4427122695483053 l -5.599138304989998 1.6084249639351778" fill="#ff4806" stroke="none" /><path d="M 120.18372546131832 94.20196356495316 l 9.232723837909809 -2.6522194482638466 a30.60611562853878,30.60611562853878 0 0,0 0.1410988997341974,0.5076078152225056 l -9.27700950821037 2.492900329622389" fill="#ff7c0b" stroke="none" /><path d="M 120.28053869075195 94.5502522615342 l 31.652427524497746 -8.5055800513447 a53.77531174837877,53.77531174837877 0 0,0 0.23252359817003804,0.8960082760944109 l -31.794147454538088 7.959475349701438" fill="#6eff28" stroke="none" /><path d="M 120.45610955862082 95.25157060432595 l 2.9013435611528284 -0.6734821698743668 a23.978484966049294,23.978484966049294 0 0,0 0.08986863609596836,0.40286347414953255 l -2.9125065842508344 0.6234405261748703" fill="#ff2003" stroke="none" /><path d="M 120.53481517161879 95.60439243477599 l 2.92696071121982 -0.6265345238233807 a23.993266529156237,23.993266529156237 0 0,0 0.08297180517364117,0.40459998886351556 l -2.9373118123084585 0.5760588787964533" fill="#ff2003" stroke="none" /><path d="M 120.67395015179393 96.31383870115 l 11.94218628146732 -2.1292894957755486 a33.13052706761278,33.13052706761278 0 0,0 0.09527099316509524,0.5622947946420955 l -11.97706913615264 1.9234089128176153" fill="#ff9d0e" stroke="none" /><path d="M 120.78858239683441 97.02765380044208 l 43.86699277870602 -6.27209141935893 a65.3131152845277,65.3131152845277 0 0,0 0.14954837604175633,1.1143091061458235 l -43.968457153805616 5.5160639711484425" fill="#36ff6d" stroke="none" /><path d="M 120.83666639777658 97.38593545837742 l 5.882885556388162 -0.7380375652133523 a26.92900007735086,26.92900007735086 0 0,0 0.053742137486100065,0.4604298142106358 l -5.894718046877851 0.6366640126778638" fill="#ff4906" stroke="none" /><path d="M 120.87857604477298 97.74499172005257 l 11.126322983630654 -1.2017079325550009 a32.191030564306104,32.191030564306104 0 0,0 0.05475981614324963,0.5514238755153489 l -11.145359925456134 1.010008526335217" fill="#ff910d" stroke="none" /><path d="M 120.96714384426684 98.82574320788733 l 5.904019941647274 -0.3306523563124041 a26.913271721484108,26.913271721484108 0 0,0 0.021923284275527043,0.4627658810983434 l -5.908836834156298 0.22897536859106093" fill="#ff4906" stroke="none" /><path d="M 120.98425023603335 99.18683210126433 l 8.919115336193736 -0.34562770625274036 a29.92580959306526,29.92580959306526 0 0,0 0.015516255167213458,0.5149089699261818 l -8.923743285816595 0.19204858890155946" fill="#ff720a" stroke="none" /><line stroke="#e1ed5e" stroke-width="0.3" x1="184.98032266829074" x2="189.97916517819016" y1="98.17113171792111" y2="98.06355123074" /><path d="M 185.9800911702706 98.14961562048488 a86.0,86.0 0 0,1 -9.607161424134198,41.387399972396054" fill="none" id="id88" stroke="none" /><text fill="#e1ed5e" style="font-size:6.75px; font-family:Arial;" text-anchor="middle"><textPath startOffset="21.466115282336823" xlink:href="#id88">April</textPath></text><path d="M 120.99980553446 99.90962569577887 l 9.020410051134016 -0.03882003958668982 a30.020493583284292,30.020493583284292 0 0,0 -0.0022239506303796557,0.5167678042859225 l -9.019741803214133 -0.11645724290291744" fill="#ff740a" stroke="none" /><path d="M 120.92983693683757 101.71520430193887 l 6.482787634257254 0.5312657366796593 a27.504519874198905,27.504519874198905 0 0,0 -0.042730765004806874,0.4715304311308255 l -6.472682272975372 -0.6427775563590553" fill="#ff5107" stroke="none" /><path d="M 120.8583938346157 102.4346265915055 l 62.575181503847105 7.303879774516526 a84.0,84.0 0 0,0 -0.1799939630126075,1.4347289828504204 l -62.44018603158764 -8.379926511654341" fill="#4dd2ff" stroke="none" /><path d="M 120.49622156327973 104.57218783832717 l 5.780615186871732 1.2895088186797983 a26.92269743716029,26.92269743716029 0 0,0 -0.10479266914935419,0.4514440760164573 l -5.757561951791826 -1.3888215520448206" fill="#ff4906" stroke="none" /><path d="M 120.41448212921028 104.9243191809786 l 7.193358962766689 1.7351601324890737 a28.39967525318479,28.39967525318479 0 0,0 -0.11872238880591321,0.47423692768793413 l -7.162425259665715 -1.858724899574404" fill="#ff5e08" stroke="none" /><path d="M 120.23288151984713 105.62410040840565 l 7.2614184756714835 2.018444410627723 a28.536731129449787,28.536731129449787 0 0,0 -0.13562742313908313,0.47213685259347693 l -7.225598415646301 -2.143138738725782" fill="#ff5f08" stroke="none" /><path d="M 120.02730092923936 106.31721596034902 l 7.079221903222539 2.233000530221138 a28.423050189984817,28.423050189984817 0 0,0 -0.15119404552263987,0.4653274248239579 l -7.039735606683652 -2.3545268550228915" fill="#ff5e08" stroke="none" /><path d="M 119.79798401119884 107.00284435728193 l 13.911518183506058 4.920712965395063 a35.75614293295598,35.75614293295598 0 0,0 -0.2102388653452133,0.5784870634302596 l -13.824755057155617 -5.159447825831454" fill="#ffbf11" stroke="none" /><path d="M 119.26925614724726 108.34839909993367 l 6.811502323246203 2.9510812161116164 a28.423304132505635,28.423304132505635 0 0,0 -0.19836612485776925,0.44726324442670246 l -6.759695113657161 -3.0678927970310066" fill="#ff5e08" stroke="none" /><line stroke="#e1ed5e" stroke-width="0.3" x1="174.80103733775053" x2="179.2010983576182" y1="140.37084112569926" y2="142.7455964860345" /><path d="M 175.68104954172406 140.8457921977663 a86.0,86.0 0 0,1 -30.038265399797805,32.042727171017184" fill="none" id="id89" stroke="none" /><text fill="#e1ed5e" style="font-size:6.75px; font-family:Arial;" text-anchor="middle"><textPath startOffset="22.206326154141568" xlink:href="#id89">May</textPath></text><path d="M 117.75023020441432 111.22182372390056 l 5.325144944341707 3.3665950909617828 a27.30008977592669,27.30008977592669 0 0,0 -0.25453451464268373,0.3950432191956811 l -5.266405566321972 -3.4577599100789165" fill="#ff4e07" stroke="none" /><path d="M 117.35343817320211 111.8261652097733 l 6.1656470255724605 4.201816356032953 a28.461264231601543,28.461264231601543 0 0,0 -0.27937996141528965,0.4024676715608629 l -6.092406156995034 -4.307325289780835" fill="#ff5e08" stroke="none" /><path d="M 116.93607887273984 112.41649034213515 l 8.312444589442284 6.0941726086592425 a31.307069168133147,31.307069168133147 0 0,0 -0.3223714752574405,0.43186927230091415 l -8.206311847489753 -6.236354760469472" fill="#ff850c" stroke="none" /><path d="M 116.71984013943494 112.70617746262583 l 9.64689175481218 7.331117856221801 a33.116427260165324,33.116427260165324 0 0,0 -0.34881561657344234,0.45089120523947757 l -9.519269321020671 -7.496087055574531" fill="#ff9d0e" stroke="none" /><path d="M 116.27256486870786 113.27417163493432 l 4.0162772617896785 3.276235439011872 a26.183068752718423,26.183068752718423 0 0,0 -0.2878940623840503,0.34678694418022954 l -3.959287199512085 -3.344883640305872" fill="#ff3f05" stroke="none" /><path d="M 116.0416608686014 113.55231037782055 l 13.537801672137011 11.43700091885652 a38.72221950355092,38.72221950355092 0 0,0 -0.43453243200267877,0.5054593874865445 l -13.338926730563553 -11.668337405504591" fill="#ffe415" stroke="none" /><path d="M 115.32070863581623 114.36230785411682 l 2.7876642651893095 2.613279406474149 a24.821034063145124,24.821034063145124 0 0,0 -0.29488978032163193,0.3091907557134258 l -2.7422679334887134 -2.660877278770082" fill="#ff2c04" stroke="none" /><path d="M 114.81725581225074 114.88116024355365 l 4.986963846750173 5.00847181641695 a28.067856700912674,28.067856700912674 0 0,0 -0.3453015293042939,0.33795022276236986 l -4.9000123650700855 -5.093572142101892" fill="#ff5908" stroke="none" /><path d="M 113.48314897796784 116.09983520530334 l 4.722183774536204 5.638622009103454 a28.35479964118934,28.35479964118934 0 0,0 -0.37688912280886755,0.3101540895908533 l -4.624424523182646 -5.719071217551485" fill="#ff5d08" stroke="none" /><path d="M 113.20401910651253 116.32954008644616 l 4.6782881814402115 5.78568493263508 a28.440465741358114,28.440465741358114 0 0,0 -0.38332670151048953,0.30453791500621435 l -4.578003987212371 -5.86535676164642" fill="#ff5e08" stroke="none" /><path d="M 111.45004920935366 117.60387380957326 l 0.8301291129269063 1.2762816894865685 a22.52250100001527,22.52250100001527 0 0,0 -0.32681028181527905,0.2085857843478241 l -0.8080370290646968 -1.2903819026582015" fill="#ff0b01" stroke="none" /><line stroke="#e1ed5e" stroke-width="0.3" x1="143.8653032363475" x2="146.44561519142675" y1="172.8068346515853" y2="177.08958963109032" /><path d="M 144.38136562736335 173.6633856474863 a86.0,86.0 0 0,1 -40.68145358897372,12.25698825130547" fill="none" id="id90" stroke="none" /><text fill="#e1ed5e" style="font-size:6.75px; font-family:Arial;" text-anchor="middle"><textPath startOffset="21.466115282336833" xlink:href="#id90">June</textPath></text><path d="M 108.92500713936063 119.00905698771935 l 2.5173550144556445 5.361625394905452 a26.9231835311849,26.9231835311849 0 0,0 -0.4211965450391324,0.19335067544149503 l -2.4246904736490924 -5.404163140681021" fill="#ff4906" stroke="none" /><path d="M 108.59647513512805 119.15986991738527 l 0.44171722850588857 0.9845017295353008 a22.07905410680694,22.07905410680694 0 0,0 -0.3480913494226949,0.1525930181251111 l -0.4247052044254399 -0.9919593009548664" fill="#ff0400" stroke="none" /><path d="M 106.57524785965236 119.94407469862006 l 2.0734888356736563 6.289316708376759 a27.622300250662935,27.622300250662935 0 0,0 -0.4528461131329722,0.14498702501625946 l -1.9649213774497438 -6.324076580052725" fill="#ff5307" stroke="none" /><path d="M 106.2309692047433 120.05430185196036 l 2.2023870297887216 7.088357017814048 a28.422621763297336,28.422621763297336 0 0,0 -0.46846574687126263,0.1411448866491921 l -2.0800463084772134 -7.125217273568966" fill="#ff5e08" stroke="none" /><path d="M 102.70371172650421 120.8252237178851 l 0.691605001527033 5.327057888612632 a26.37176537339144,26.37176537339144 0 0,0 -0.45067159039206495,0.05457005337522969 l -0.5998059880835876 -5.338173470713213" fill="#ff4106" stroke="none" /><path d="M 102.34483914955558 120.86867818915974 l 0.34742912597801123 3.092061400011298 a24.111519034011792,24.111519034011792 0 0,0 -0.4128436329025813,0.042792930566124834 l -0.29415289646982723 -3.0975836990331813" fill="#ff2203" stroke="none" /><path d="M 101.98527174616119 120.90594882070398 l 0.5937350613257071 6.252340431043918 a27.2804683096656,27.2804683096656 0 0,0 -0.46786741316180314,0.04036956909100409 l -0.4860233304223623 -6.261634252413586" fill="#ff4e07" stroke="none" /><path d="M 100.90346689309514 120.98055641714683 l 0.3774960643870285 8.766317323471524 a29.774441446293014,29.774441446293014 0 0,0 -0.5122333207047808,0.01764235126984246 l -0.22654239200759535 -8.77151647316746" fill="#ff700a" stroke="none" /><line stroke="#e1ed5e" stroke-width="0.3" x1="102.19456741930631" x2="102.32365962044197" y1="184.97166512339345" y2="189.96999836594603" /><path d="M 102.22038585953345 185.97133177190398 a86.0,86.0 0 0,1 -42.740103519485714,-10.115201625700543" fill="none" id="id91" stroke="none" /><text fill="#e1ed5e" style="font-size:6.75px; font-family:Arial;" text-anchor="middle"><textPath startOffset="22.20632615414155" xlink:href="#id91">July</textPath></text><path d="M 99.81925306533755 120.99922214144158 l -0.06280820852007284 7.297072702683081 a28.297343002716815,28.297343002716815 0 0,0 -0.4870381157197861,-0.008384802846372276 l 0.1884060141325269 -7.294910422557549" fill="#ff5c08" stroke="none" /><path d="M 99.09653310690486 120.98055641714683 l -0.38257603836587634 8.8842858749209 a29.892519324266367,29.892519324266367 0 0,0 -0.5138836257733577,-0.026561913664544023 l 0.5354477325527228 -8.876384154494154" fill="#ff720a" stroke="none" /><path d="M 98.37488393609728 120.93702456842531 l -0.7416183191892606 9.554567402386665 a30.583306108964013,30.583306108964013 0 0,0 -0.5245119751139624,-0.04525710024412275 l 0.9059746120447646 -9.54038604986388" fill="#ff7b0b" stroke="none" /><path d="M 97.65516085044442 120.86867818915974 l -1.5114779383965078 13.45190210270482 a34.53655184081285,34.53655184081285 0 0,0 -0.5902010170491329,-0.07146512380438624 l 1.74280637849703 -13.423891450175086" fill="#ffaf10" stroke="none" /><path d="M 97.2962882734958 120.8252237178851 l -1.137233425101279 8.759491725773715 a29.83300600911523,29.83300600911523 0 0,0 -0.5086831662293155,-0.07049885170781296 l 1.2878451825174255 -8.738618308573297" fill="#ff710a" stroke="none" /><path d="M 96.93821686468263 120.77559828337769 l -1.502270847535933 10.193594471543399 a31.303697683338562,31.303697683338562 0 0,0 -0.5324075309014134,-0.08315110681290995 l 1.6775142420458633 -10.166225057383382" fill="#ff850c" stroke="none" /><path d="M 96.22490169976321 120.6578951692458 l -1.236803470043329 6.767971161840186 a27.880052068917184,27.880052068917184 0 0,0 -0.4713486377091913,-0.0903350882361768 l 1.3531197223242155 -6.745678875255542" fill="#ff5608" stroke="none" /><path d="M 95.86986931433489 120.58985236759428 l -1.4519095676385347 7.2381737828620185 a28.382357421820714,28.382357421820714 0 0,0 -0.4781866857430088,-0.10020866931950818 l 1.5762877148109304 -7.21210913281597" fill="#ff5d08" stroke="none" /><path d="M 95.51606077576429 120.51570834832081 l -4.2681159941061715 19.528235899943702 a40.989217380953036,40.989217380953036 0 0,0 -0.6879939628067526,-0.1565851860187766 l 4.603630106305787 -19.45187398034724" fill="#feff18" stroke="none" /><path d="M 94.81253420990036 120.34920634021253 l -1.8133117069066655 7.113194684269516 a28.340683753079468,28.340683753079468 0 0,0 -0.47168284899802027,-0.12457572747907959 l 1.935484998716175 -7.080927607486855" fill="#ff5d08" stroke="none" /><path d="M 94.11515582081647 120.15858648285463 l -4.131175789072884 14.151379694042305 a35.74205415283687,35.74205415283687 0 0,0 -0.589105686057561,-0.17749271070151246 l 4.37415644957069 -14.078171614235067" fill="#ffbf11" stroke="none" /><path d="M 93.76903079525671 120.05430185196036 l -2.1824598112697173 7.024221496979543 a28.355461811908004,28.355461811908004 0 0,0 -0.4648657262823283,-0.14883532557981038 l 2.303046882642986 -6.985613324740026" fill="#ff5d08" stroke="none" /><path d="M 92.7421414339146 119.70592522655815 l -8.683104207976186 23.575631944159024 a46.12382773888217,46.12382773888217 0 0,0 -0.7426590329066174,-0.2808100994379189 l 9.087633461643087 -23.422673594614473" fill="#c2ff1e" stroke="none" /><path d="M 91.40352486487194 119.15986991738527 l -0.7170341312047649 1.5981295198620984 a22.75161522817291,22.75161522817291 0 0,0 -0.35593494049714985,-0.16339227367584017 l 0.7444370674693342 -1.5855501758521837" fill="#ff0e01" stroke="none" /><path d="M 91.07499286063937 119.00905698771935 l -3.4395133587701197 7.325697831494059 a29.092966135077724,29.092966135077724 0 0,0 -0.45147757684379947,-0.2167366731321888 l 3.565103603614161 -7.265406881862308" fill="#ff6709" stroke="none" /><path d="M 90.7491055286396 118.85261126421891 l -4.522037607494737 9.215564765137792 a31.265254895230118,31.265254895230118 0 0,0 -0.48110690212838364,-0.24123698834262608 l 4.679998417305882 -9.136359935885864" fill="#ff840c" stroke="none" /><line stroke="#e1ed5e" stroke-width="0.3" x1="58.666819895761336" x2="56.23545636021788" y1="174.27360380694188" y2="178.64263932499728" /><path d="M 58.180547188652646 175.14741091055294 a86.0,86.0 0 0,1 -31.652253787137756,-30.449443065178592" fill="none" id="id92" stroke="none" /><text fill="#e1ed5e" style="font-size:6.75px; font-family:Arial;" text-anchor="middle"><textPath startOffset="22.20632615414155" xlink:href="#id92">August</textPath></text><path d="M 89.4739219176387 118.17145234162733 l -5.15025858787111 8.891030234079592 a31.27499791461086,31.27499791461086 0 0,0 -0.463513532597488,-0.2738519651451739 l 5.30253999149698 -8.80105969664067" fill="#ff840c" stroke="none" /><path d="M 89.1626897886671 117.98757091392108 l -7.563345361352057 12.553503441428528 a35.655873966060284,35.655873966060284 0 0,0 -0.5229881345780311,-0.32126202760439926 l 7.778312695862397 -12.421452946995752" fill="#ffbe11" stroke="none" /><path d="M 88.8546689885994 117.79835938074946 l -5.041456442034424 8.050873811279217 a30.499097440392532,30.499097440392532 0 0,0 -0.44255381005865246,-0.2824587802882473 l 5.17929205414 -7.962900602167166" fill="#ff7a0b" stroke="none" /><path d="M 88.24862548938628 117.40417183066458 l -13.998600888707807 20.73238794627105 a46.01584971165313,46.01584971165313 0 0,0 -0.6526430492782688,-0.44889384041063807 l 14.353400822608966 -20.48835331649531" fill="#c3ff1e" stroke="none" /><path d="M 87.95078237400918 117.19931262002967 l -4.224148504365531 6.029640507388486 a28.362064604122516,28.362064604122516 0 0,0 -0.39743716851322064,-0.28356086712288014 l 4.327313000727639 -5.956035378421386" fill="#ff5d08" stroke="none" /><path d="M 87.65650970185807 116.9893568818739 l -8.655916497159497 11.913846971798506 a35.72632473067297,35.72632473067297 0 0,0 -0.4944098532590716,-0.3657525897708154 l 8.859711320837134 -11.763084433287924" fill="#ffbf11" stroke="none" /><path d="M 87.36589467227662 116.77436683061367 l -7.355307319851919 9.765679479049172 a33.22575320612147,33.22575320612147 0 0,0 -0.4538816223334131,-0.34801707349999794 l 7.522317670678818 -9.637623063721808" fill="#ff9e0e" stroke="none" /><path d="M 86.79598089348748 116.32954008644616 l -9.388587961498079 11.61095892361986 a35.93184352438688,35.93184352438688 0 0,0 -0.4776024221006888,-0.393034278381508 l 9.587060512143456 -11.447629526381172" fill="#ffc112" stroke="none" /><path d="M 86.51685102203217 116.09983520530335 l -10.398730022828733 12.416820431603352 a37.196018514386864,37.196018514386864 0 0,0 -0.48732899177080047,-0.41531233916377364 l 10.61092449117659 -12.235983702216627" fill="#ffd113" stroke="none" /><path d="M 86.24171649860922 115.8653595955263 l -14.453931060801551 16.667545324631707 a43.06180387590861,43.06180387590861 0 0,0 -0.5558205351524652,-0.490446998126557 l 14.738693948860604 -16.41627518473286" fill="#e5ff1a" stroke="none" /><path d="M 85.70375840098266 115.38237550388516 l -7.015237280909638 7.5482086222734015 a31.304805069132893,31.304805069132893 0 0,0 -0.39155478585913883,-0.3702394896472866 l 7.144127901159593 -7.426334495880185" fill="#ff850c" stroke="none" /><path d="M 85.44109423537348 115.13401014063109 l -8.333682010704743 8.662878247707093 a33.02063706257454,33.02063706257454 0 0,0 -0.40623253131894027,-0.39758403250967395 l 8.481564494399478 -8.51814411227485" fill="#ff9c0e" stroke="none" /><path d="M 84.67929136418377 114.36230785411682 l -10.716391449418735 10.046017892538375 a35.68889108116662,35.68889108116662 0 0,0 -0.41629152690385496,-0.45180223387903073 l 10.88772938431832 -9.860064403858" fill="#ffbe11" stroke="none" /><path d="M 84.43433777217949 114.09645910891817 l -8.792902136211117 7.962962551653317 a32.862710507131965,32.862710507131965 0 0,0 -0.37610769747417794,-0.4225609852025684 l 8.928668683333633 -7.810427396709884" fill="#ff990e" stroke="none" /><path d="M 83.95833913139862 113.55231037782056 l -9.197751865205989 7.770441544455702 a33.04069770277883,33.04069770277883 0 0,0 -0.363296631708575,-0.4376141963397687 l 9.330144496808101 -7.610966091002172" fill="#ff9c0e" stroke="none" /><path d="M 83.72743513129214 113.27417163493432 l -9.175365381543068 7.48470667473263 a32.840952828704545,32.840952828704545 0 0,0 -0.3535595802676831,-0.441119938654613 l 9.302842873865613 -7.325658902499757" fill="#ff990e" stroke="none" /><path d="M 83.28015986056508 112.70617746262583 l -9.84873336529153 7.484506602807009 a33.369938883764476,33.369938883764476 0 0,0 -0.34361301498512653,-0.4603257860089575 l 9.976107646971741 -7.313867937288744" fill="#ffa00e" stroke="none" /><path d="M 83.06392112726016 112.41649034213515 l -8.51383952945517 6.241822979587186 a31.556790120193547,31.556790120193547 0 0,0 -0.31740151243555526,-0.4408429400522059 l 8.620020834266333 -6.094346434083842" fill="#ff880c" stroke="none" /><path d="M 82.6465618267979 111.8261652097733 l -12.156402818615431 8.284446382014698 a35.71088649079034,35.71088649079034 0 0,0 -0.3417989184608932,-0.5109430072127871 l 12.297204842487055 -8.07396646059609" fill="#ffbe11" stroke="none" /><path d="M 82.44556493220864 111.52570212397912 l -10.094290190272394 6.627600457479264 a33.07558620810637,33.07558620810637 0 0,0 -0.30838280573811866,-0.4786169627895036 l 10.206877859387559 -6.452861894768312" fill="#ff9c0e" stroke="none" /><path d="M 82.24976979558568 111.22182372390057 l -9.991213123104439 6.316517091001836 a32.82043687146176,32.82043687146176 0 0,0 -0.2977835126456701,-0.4801218387194192 l 10.098461275418066 -6.143598920917152" fill="#ff990e" stroke="none" /><path d="M 82.05923443525364 110.91462005526583 l -10.040514595555083 6.10834591056561 a32.75260920420135,32.75260920420135 0 0,0 -0.28887664740000973,-0.48417387719613103 l 10.144172118653325 -5.9346099394833685" fill="#ff980e" stroke="none" /><line stroke="#e1ed5e" stroke-width="0.3" x1="26.63291911575756" x2="22.317208475507996" y1="142.92168965132927" y2="145.44649492493687" /><path d="M 25.769776987707644 143.4266507060508 a86.0,86.0 0 0,1 -11.730757126820373,-40.83630448921669" fill="none" id="id93" stroke="none" /><text fill="#e1ed5e" style="font-size:6.75px; font-family:Arial;" text-anchor="middle"><textPath startOffset="21.46611528233685" xlink:href="#id93">September</textPath></text><path d="M 81.69416730710424 110.29060199501025 l -12.825949069481114 7.210091957932317 a35.71361259428709,35.71361259428709 0 0,0 -0.29663316857871874,-0.5384753638985771 l 12.948158647511349 -6.988246075635917" fill="#ffbe11" stroke="none" /><path d="M 81.35079622478065 109.6543875284942 l -1.383064956285176 0.7159900886921334 a22.55740504699628,22.55740504699628 0 0,0 -0.17554100661667205,-0.3463590596343118 l 1.3951846326881148 -0.6920768173551367" fill="#ff0b01" stroke="none" /><path d="M 81.02952815118164 109.00673069616217 l -4.205924665305905 1.9968734088770626 a25.655889356643787,25.655889356643787 0 0,0 -0.18597512322048157,-0.4005738702932486 l 4.239674405366213 -1.9241794713049867" fill="#ff3705" stroke="none" /><path d="M 80.87730276802145 108.67885076344099 l -5.494867957601876 2.493850024937424 a27.034307070274117,27.034307070274117 0 0,0 -0.1886723199648031,-0.4254062734828265 l 5.53698136229796 -2.3988954149619017" fill="#ff4b06" stroke="none" /><path d="M 80.45479744820244 107.68017299344265 l -14.664363091752671 5.762275682988919 a36.75586766679396,36.75586766679396 0 0,0 -0.22632114037240186,-0.5908530811861318 l 14.761378511718583 -5.508999034969628" fill="#ffcc13" stroke="none" /><path d="M 80.32549172779594 107.34259656027581 l -11.22855964493042 4.190538451331862 a32.98503918274157,32.98503918274157 0 0,0 -0.1939453375647926,-0.5336542727702855 l 11.299029243500438 -3.996636381555459" fill="#ff9b0e" stroke="none" /><path d="M 80.20201598880116 107.00284435728193 l -11.187587183264043 3.9572176507266597 a32.86683102257534,32.86683102257534 0 0,0 -0.18406860409973366,-0.5349895241175128 l 11.254046618307004 -3.76405542351985" fill="#ff9a0e" stroke="none" /><path d="M 79.97269907076064 106.31721596034903 l -11.998918264407457 3.7848214412243895 a33.58168958677183,33.58168958677183 0 0,0 -0.1691449377281014,-0.5527754431560375 l 12.062289974641688 -3.577719025516304" fill="#ffa30f" stroke="none" /><path d="M 79.86692584326677 105.97154293290107 l -11.480761627335218 3.4052356051699766 a32.97512075389681,32.97512075389681 0 0,0 -0.15672189765755928,-0.5455694857273666 l 11.537676161878881 -3.207108643938014" fill="#ff9b0e" stroke="none" /><path d="M 79.76711848015287 105.62410040840567 l -16.40485713913267 4.560030841159686 a38.02683819819991,38.02683819819991 0 0,0 -0.16987480200062896,-0.6321673332218258 l 16.48092001747507 -4.276972574762322" fill="#ffdc14" stroke="none" /><path d="M 79.67330655649465 105.27499134158121 l -7.180908215570162 1.8635214215780342 a28.418770443215188,28.418770443215188 0 0,0 -0.11880221459810944,-0.47455579204722903 l 7.2119217444633295 -1.7396377901334132" fill="#ff5e08" stroke="none" /><path d="M 79.50377843672027 104.57218783832718 l -11.615161168625058 2.5910482315697427 a32.90065123896403,32.90065123896403 0 0,0 -0.11854568583753013,-0.5538059783420121 l 11.65804089318703 -2.390728433811567" fill="#ff9a0e" stroke="none" /><path d="M 79.35854240842038 103.8639653848113 l -20.515798658541996 3.840442735531538 a41.87215836952974,41.87215836952974 0 0,0 -0.12652082930874178,-0.7095960014307128 l 20.578865930189927 -3.4867279833676115" fill="#f3ff19" stroke="none" /><path d="M 79.29508885075956 103.50808413554451 l -4.416344367409786 0.7482721128692205 a25.47928663142357,25.47928663142357 0 0,0 -0.06954419094471508,-0.43305174339786207 l 4.428570312715792 -0.6721411397781447" fill="#ff3505" stroke="none" /><path d="M 79.23777060512086 103.15116336523772 l -30.852469145167944 4.682597839004676 a52.20579393118194,52.20579393118194 0 0,0 -0.12719804709146668,-0.8896228451015038 l 30.92850124327601 -4.1508295219227715" fill="#7fff26" stroke="none" /><path d="M 79.1416061653843 102.43462659150553 l -7.3834558084425845 0.861809302814494 a28.433581569448346,28.433581569448346 0 0,0 -0.05255839031467114,-0.48662541895470507 l 7.397196500258308 -0.7345875619750069" fill="#ff5e08" stroke="none" /><path d="M 79.10278846688536 102.07522291339032 l -6.766355172577252 0.6719410995107312 a27.79963728169927,27.79963728169927 0 0,0 -0.043189256650776504,-0.4765898482386135 l 6.776919025505103 -0.5553698627235515" fill="#ff5507" stroke="none" /><path d="M 79.07016306316243 101.71520430193888 l -4.467142106507381 0.3660831845740832 a25.48211730075855,25.48211730075855 0 0,0 -0.032063106266910425,-0.4374756107554339 l 4.472781771438626 -0.28913443732188865" fill="#ff3505" stroke="none" /><path d="M 79.04373962182676 101.35467743843564 l -5.903481612263926 0.38161929676552014 a26.915803278845747,26.915803278845747 0 0,0 -0.02590793347899112,-0.4626035562327046 l 5.909175896630448 -0.27994402419737796" fill="#ff4906" stroke="none" /><path d="M 79.0095281055655 100.63252640178507 l -7.182826001354569 0.21644711505936767 a28.186086467567225,28.186086467567225 0 0,0 -0.01043950541427131,-0.4850827953523251 l 7.185487569453849 -0.09277450391691369" fill="#ff5b08" stroke="none" /><line stroke="#e1ed5e" stroke-width="0.3" x1="15.007084014347285" x2="10.007500721073583" y1="101.09737516637583" y2="101.16192664675087" /><path d="M 14.007167355692545 101.11028546245083 a86.0,86.0 0 0,1 10.666146001902534,-42.60595125391555" fill="none" id="id94" stroke="none" /><text fill="#e1ed5e" style="font-size:6.75px; font-family:Arial;" text-anchor="middle"><textPath startOffset="22.20632615414155" xlink:href="#id94">October</textPath></text><path d="M 79.05617556472873 98.46500227214037 l -21.599030331150924 -1.58301854490591 a42.656963290348294,42.656963290348294 0 0,0 0.059974707611442746,-0.7318433432233897 l 21.56858113971998 1.954575805337078" fill="#eaff1a" stroke="none" /><path d="M 79.12142395522702 97.74499172005258 l -0.8497061533088079 -0.09177323238542108 a21.854647806498864,21.854647806498864 0 0,0 0.04361526546672654,-0.3736689591251544 l 0.8480005348384925 0.10638592983543722" fill="#ff0100" stroke="none" /><path d="M 79.16333360222342 97.38593545837743 l -2.5153797439736545 -0.3155670332246049 a23.53509719909339,23.53509719909339 0 0,0 0.053888649328341816,-0.4015330306743129 l 2.509575095587479 0.35881840596357717" fill="#ff1902" stroke="none" /><path d="M 79.21141760316559 97.0276538004421 l -3.674802899162172 -0.5254223795996938 a24.71217524164403,24.71217524164403 0 0,0 0.06383285081687505,-0.42057873171836874 l 3.6652141549059944 0.5886002237101546" fill="#ff2a04" stroke="none" /><path d="M 79.26566170972629 96.67025291283419 l -4.392892022656812 -0.7054587039093956 a25.449176587374723,25.449176587374723 0 0,0 0.0731823047597468,-0.4319261053047833 l 4.3800978563768425 0.7809705975300069" fill="#ff3505" stroke="none" /><path d="M 79.46518482838121 95.60439243477599 l -4.783340373164215 -1.0239043768157063 a25.891699632888873,25.891699632888873 0 0,0 0.09703914719836368,-0.4350074694256429 l 4.765006838963814 1.1060900157913085" fill="#ff3b05" stroke="none" /><path d="M 79.54389044137918 95.25157060432595 l -15.197698332593736 -3.527806560786723 a36.60177726218562,36.60177726218562 0 0,0 0.14774429352346938,-0.6124954798783485 l 15.134721238809451 3.788887272324468" fill="#ffca12" stroke="none" /><path d="M 79.71946130924805 94.55025226153421 l -5.721535550586715 -1.537480138117842 a26.924509619515735,26.924509619515735 0 0,0 0.12412612986582874,-0.4465477314983466 l 5.694222650154526 1.6357391730351312" fill="#ff4906" stroke="none" /><path d="M 79.81627453868168 94.20196356495316 l -5.015028574656432 -1.440631882076731 a26.217847432062044,26.217847432062044 0 0,0 0.12833524316385503,-0.4326826410816864 l 4.9894874343808695 1.5267439099049567" fill="#ff3f05" stroke="none" /><path d="M 79.91906864156998 93.8553929516997 l -3.893797989602766 -1.1914715579925823 a25.07201022313793,25.07201022313793 0 0,0 0.12983064869875152,-0.4115986357991446 l 3.872711857135811 1.2583203602181414" fill="#ff2f04" stroke="none" /><path d="M 80.14247586403 93.16781622104843 l -3.503384552977268 -1.2053751993645292 a24.704947057284734,24.704947057284734 0 0,0 0.14181453602440172,-0.40092879029178796 l 3.482116936143057 1.2655016160829282" fill="#ff2a04" stroke="none" /><path d="M 80.2630227832202 92.82701384747504 l -17.506123689517946 -6.3622297087390045 a39.62638809591013,39.62638809591013 0 0,0 0.2385044585512746,-0.6390733719609853 l 17.394014642465045 6.662626217729331" fill="#ffef16" stroke="none" /><path d="M 80.38941819471856 92.48833698450439 l -0.731803373657295 -0.2803109255553029 a21.78365195889621,21.78365195889621 0 0,0 0.13713996648087684,-0.34900625612261826 l 0.7268698572947271 0.2928661865736846" fill="#ff0000" stroke="none" /><path d="M 80.52162464483688 92.15188598940014 l -3.8145534526015195 -1.536937750180927 a25.11254126917717,25.11254126917717 0 0,0 0.1649993372534171,-0.3995589827891795 l 3.7875324284619025 1.6023713034234177" fill="#ff3004" stroke="none" /><path d="M 80.65960295795068 91.81776055985345 l -3.43461196436444 -1.4530631100965294 a24.729336636411194,24.729336636411194 0 0,0 0.1692302578133353,-0.39060676743350203 l 3.409090996708424 1.5119690221166306" fill="#ff2a04" stroke="none" /><path d="M 80.95270993114464 91.15688171328213 l -4.364735848584684 -2.026423457603793 a25.812204386499722,25.812204386499722 0 0,0 0.1905700375718467,-0.40138910054515275 l 4.329207617171085 2.101254973789478" fill="#ff3a05" stroke="none" /><path d="M 81.26839172434947 90.50648371742162 l -29.563523667672253 -14.983326000590882 a54.143656854502346,54.143656854502346 0 0,0 0.42848404873495344,-0.8276947984224483 l 29.301230185777186 15.489993521273664" fill="#6aff28" stroke="none" /><line stroke="#e1ed5e" stroke-width="0.3" x1="26.266209847984243" x2="21.928928074336255" y1="57.711370442889674" y2="55.22380399835377" /><path d="M 25.398753493254645 57.213857153982495 a86.0,86.0 0 0,1 29.58750427330803,-30.492523968695096" fill="none" id="id95" stroke="none" /><text fill="#e1ed5e" style="font-size:6.75px; font-family:Arial;" text-anchor="middle"><textPath startOffset="21.46611528233685" xlink:href="#id95">November</textPath></text><path d="M 82.15384107792192 88.93136811851018 l -3.8312328070462542 -2.376225930669002 a25.5083028398025,25.5083028398025 0 0,0 0.2346428654881231,-0.3711486635961814 l 3.7897623453121683 2.441822241979399" fill="#ff3505" stroke="none" /><path d="M 82.34701348167596 88.62581576622439 l -5.646869529772549 -3.6383948013021294 a27.71751830785864,27.71751830785864 0 0,0 0.26186899484798093,-0.3988444449525325 l 5.5834038995666475 3.735057310232329" fill="#ff5407" stroke="none" /><path d="M 82.95767976084542 87.72973835380427 l -3.6370113967884237 -2.6186036186703876 a25.48162211839447,25.48162211839447 0 0,0 0.25935120669049755,-0.3537547544610934 l 3.591397577584293 2.6808208168029815" fill="#ff3505" stroke="none" /><path d="M 84.07557802195018 86.31012108654704 l -1.470764926065043 -1.264384589640837 a22.939540630733045,22.939540630733045 0 0,0 0.2599903483762434,-0.2972139120701423 l 1.4487827141109562 1.2895140579139224" fill="#ff1101" stroke="none" /><path d="M 84.31358615837235 86.03803664274999 l -3.3512019656913723 -2.9827951449017878 a25.486381781714904,25.486381781714904 0 0,0 0.29449679128669026,-0.3251907124283083 l 3.299361533788637 3.0400386445996523" fill="#ff3505" stroke="none" /><path d="M 84.5562425177563 85.77008943001954 l -4.365545834749464 -4.022423098074347 a26.936150100462456,26.936150100462456 0 0,0 0.3171188821496717,-0.33828031300263484 l 4.295659630629337 4.096972827955032" fill="#ff4906" stroke="none" /><path d="M 85.31137513191541 84.99185889309783 l -1.0543439464492035 -1.07727870141878 a22.507372070175315,22.507372070175315 0 0,0 0.27921655078715785,-0.2686061006342597 l 1.0356441520496182 1.095267888815353" fill="#ff0b01" stroke="none" /><path d="M 85.57189188830299 84.74124197986013 l -4.065271314474899 -4.299315668663394 a26.916971022331193,26.916971022331193 0 0,0 0.3394000818493148,-0.31543538692177686 l 3.990663348830728 4.368655641659818" fill="#ff4906" stroke="none" /><path d="M 85.83668400450813 84.49514656593479 l -3.0439407925928466 -3.3322603171564236 a25.51326205422488,25.51326205422488 0 0,0 0.32679938872243475,-0.29340371788687886 l 2.9861304162744404 3.384163043812581" fill="#ff3505" stroke="none" /><line stroke="#e1ed5e" stroke-width="0.3" x1="56.762969772571076" x2="54.21961505331055" y1="26.818313649435495" y2="22.513508569990535" /><path d="M 56.25429882871897 25.957352633546506 a86.0,86.0 0 0,1 42.265352541879196,-11.944610805530505" fill="none" id="id96" stroke="none" /><text fill="#e1ed5e" style="font-size:6.75px; font-family:Arial;" text-anchor="middle"><textPath startOffset="22.20632615414155" xlink:href="#id96">December</textPath></text><path d="M 90.58718382345135 81.22770947309562 l -0.8015632813839979 -1.5985841550085929 a22.788288286241237,22.788288286241237 0 0,0 0.35216449164452474,-0.17280558661637252 l 0.7739275227290472 1.612144901759795" fill="#ff0f01" stroke="none" /><path d="M 91.56875222667455 80.76684994638697 l -0.6092124865232169 -1.3897201793672695 a22.51738657918027,22.51738657918027 0 0,0 0.3563282520179111,-0.15256116150143773 l 0.5852004767149976 1.4000008688314933" fill="#ff0b01" stroke="none" /><path d="M 92.23578459929587 80.48803036053334 l -1.3693179975890808 -3.4411836633628634 a24.70361671660511,24.70361671660511 0 0,0 0.396454034232921,-0.15381800599940273 l 1.3098807983564833 3.464244373252818" fill="#ff2a04" stroke="none" /><path d="M 96.75951476605007 79.25152402106235 l -0.5247873720458177 -3.360156703960694 a24.400890304174887,24.400890304174887 0 0,0 0.41554834656813155,-0.061241024305388025 l 0.46687004504903734 3.3686922124270513" fill="#ff2603" stroke="none" /><path d="M 97.83486435360386 79.11191278185805 l -0.3812509985096376 -3.678108631266769 a24.697814953085633,24.697814953085633 0 0,0 0.42324395320907393,-0.04019211322316825 l 0.3178819182103273 3.684126289005118" fill="#ff2a04" stroke="none" /></svg>