<?xml version="1.0" encoding="utf-8" ?>
<svg baseProfile="full" height="200mm" version="1.1" viewBox="0,0,200,200" width="200mm" xmlns="http://www.w3.org/2000/svg" xmlns:ev="http://www.w3.org/2001/xml-events" xmlns:xlink="http://www.w3.org/1999/xlink"><defs /><rect fill="#1a1a1a" height="200" width="200" x="0" y="0" /><text alignment-baseline="middle" fill="#e1ed5e" style="dominant-baseline: central; font-size:9.0px; font-family:Arial;" text-anchor="middle" x="100.0" y="100.0">2016</text><line stroke="#e1ed5e" stroke-width="0.3" x1="100.0" x2="100.0" y1="15.0" y2="10.0" /><path d="M 100.0 14.0 a86.0,86.0 0 0,1 42.35913384403234,11.155469271406648" fill="none" id="id1" stroke="none" /><text fill="#e1ed5e" style="font-size:6.75px; font-family:Arial;" text-anchor="middle"><textPath startOffset="22.145653131862478" xlink:href="#id1">January</textPath></text><line stroke="#e1ed5e" stroke-width="0.3" x1="143.13028292997686" x2="145.6673583964461" y1="26.7553504044142" y2="22.446841604673864" /><path d="M 143.63769802327073 25.89364864446614 a86.0,86.0 0 0,1 29.32050498858742,28.57503671076993" fill="none" id="id2" stroke="none" /><text fill="#e1ed5e" style="font-size:6.75px; font-family:Arial;" text-anchor="middle"><textPath startOffset="20.669276256404974" xlink:href="#id2">February</textPath></text><line stroke="#e1ed5e" stroke-width="0.3" x1="172.87174338648825" x2="177.1583165268699" y1="56.24261187166439" y2="53.66864786411523" /><path d="M 173.72905801456457 55.72781907015455 a86.0,86.0 0 0,1 12.242430191666344,42.057860355516425" fill="none" id="id3" stroke="none" /><text fill="#e1ed5e" style="font-size:6.75px; font-family:Arial;" text-anchor="middle"><textPath startOffset="22.145653131862474" xlink:href="#id3">March</textPath></text><line stroke="#e1ed5e" stroke-width="0.3" x1="184.99686870605535" x2="189.99668451229388" y1="99.2704041080226" y2="99.22748670261217" /><path d="M 185.99683186730306 99.26182062694052 a86.0,86.0 0 0,1 -10.086455211305974,41.156179273409016" fill="none" id="id4" stroke="none" /><text fill="#e1ed5e" style="font-size:6.75px; font-family:Arial;" text-anchor="middle"><textPath startOffset="21.40746469413373" xlink:href="#id4">April</textPath></text><line stroke="#e1ed5e" stroke-width="0.3" x1="174.33088141563837" x2="178.70328620479359" y1="141.23008692659167" y2="143.65538615756765" /><path d="M 175.20536237346943 141.71514677278685 a86.0,86.0 0 0,1 -30.301960400862466,31.631185727798858" fill="none" id="id5" stroke="none" /><text fill="#e1ed5e" style="font-size:6.75px; font-family:Arial;" text-anchor="middle"><textPath startOffset="22.145653131862474" xlink:href="#id5">May</textPath></text><line stroke="#e1ed5e" stroke-width="0.3" x1="143.1302829299769" x2="145.66735839644613" y1="173.24464959558577" y2="177.55315839532614" /><path d="M 143.63769802327073 174.10635135553383 a86.0,86.0 0 0,1 -40.68552437913181,11.842963189579606" fill="none" id="id6" stroke="none" /><text fill="#e1ed5e" style="font-size:6.75px; font-family:Arial;" text-anchor="middle"><textPath startOffset="21.407464694133747" xlink:href="#id6">June</textPath></text><line stroke="#e1ed5e" stroke-width="0.3" x1="101.45913802915013" x2="101.54496967792366" y1="184.9874750549273" y2="189.98673829345242" /><path d="M 101.47630435890484 185.9873277026323 a86.0,86.0 0 0,1 -42.54439059252881,-10.42667462771756" fill="none" id="id7" stroke="none" /><text fill="#e1ed5e" style="font-size:6.75px; font-family:Arial;" text-anchor="middle"><textPath startOffset="22.145653131862474" xlink:href="#id7">July</textPath></text><path d="M 92.25597844496254 119.51999308798841 l -8.366632034976702 21.089378216703267 a43.688375992473695,43.688375992473695 0 0,0 -0.6947399171676779,-0.2825446761492038 l 8.72742641333482 -20.942646283974774" fill="red" stroke="none" /><path d="M 91.92203290615298 119.3841803445677 l -9.462435851221223 22.706401364111418 a45.59915354532748,45.59915354532748 0 0,0 -0.7199561865499273,-0.30730648479700506 l 9.85082711294158 -22.54062022965501" fill="red" stroke="none" /><path d="M 91.59046798132341 119.24265499422711 l -7.452351440099581 17.052438511332895 a39.609760911133264,39.609760911133264 0 0,0 -0.6207162586641297,-0.27763848730839347 l 7.743981101619346 -16.921996273114647" fill="red" stroke="none" /><path d="M 91.26138138417905 119.09545874513695 l -12.768511047088024 27.901500987246024 a51.68433854103588,51.68433854103588 0 0,0 -0.8035961833207118,-0.37612358974408455 l 13.245595944280225 -27.678201165931416" fill="red" stroke="none" /><path d="M 90.93487009805054 118.94263497670748 l -11.53642723418791 24.106695921210523 a47.72493108629881,47.72493108629881 0 0,0 -0.7359633231891392,-0.35999654096424516 l 11.948550806639119 -23.905105630149055" fill="red" stroke="none" /><line stroke="#e1ed5e" stroke-width="0.3" x1="58.13341422392154" x2="55.67067388415222" y1="173.97424548756322" y2="178.32567169271397" /><path d="M 57.64086615596768 174.84453072859336 a86.0,86.0 0 0,1 -31.369924170532247,-30.572349798747897" fill="none" id="id8" stroke="none" /><text fill="#e1ed5e" style="font-size:6.75px; font-family:Arial;" text-anchor="middle"><textPath startOffset="22.145653131862474" xlink:href="#id8">August</textPath></text><path d="M 89.65649057296885 118.27599006163327 l -15.153622994895107 26.774999839868784 a51.76577491785941,51.76577491785941 0 0,0 -0.769603087447567,-0.44433054970702324 l 15.611018550203074 -26.51092239288559" fill="red" stroke="none" /><path d="M 87.2517909369889 116.68781488649013 l -26.958692662655235 35.28979408107611 a65.40879053030217,65.40879053030217 0 0,0 -0.886413872302926,-0.6892807885291282 l 27.560516479593392 -34.821812240926185" fill="red" stroke="none" /><path d="M 85.86807049272751 115.53346607816431 l -42.10908169994548 46.28525721361285 a83.57395462125582,83.57395462125582 0 0,0 -1.052913346968656,-0.9745608748706454 l 42.8974248182281 -45.55557859260983" fill="red" stroke="none" /><path d="M 83.8745106332314 113.45245675266167 l -28.864571601924744 24.07985223438901 a58.58992920175096,58.58992920175096 0 0,0 -0.6376626037925555,-0.7778446941378512 l 29.27368102495593 -23.58080525855266" fill="red" stroke="none" /><path d="M 83.64595745247003 113.17365903436017 l -9.068958574296863 7.305311069559886 a32.64532435981698,32.64532435981698 0 0,0 -0.34780261628027764,-0.4394372438550719 l 9.193027621218702 -7.148553881790134" fill="red" stroke="none" /><path d="M 83.4222238831116 112.89097897827486 l -31.61921240568082 24.58729081375389 a61.05383206031186,61.05383206031186 0 0,0 -0.6362624010162949,-0.8328879072277817 l 32.03662678405141 -24.040881993285236" fill="red" stroke="none" /><path d="M 82.98947788004972 112.3143062007846 l -30.371391047435722 21.986544943453204 a58.49439361700288,58.49439361700288 0 0,0 -0.5818378879636831,-0.8184278549758892 l 30.744344033929366 -21.46193986176781" fill="red" stroke="none" /><path d="M 82.576782715395 111.72311816256416 l -52.26965185381499 35.16935448769248 a84.0,84.0 0 0,0 -0.7947022443170932,-1.2032804866437559 l 52.86567853705281 -34.266894122709665" fill="red" stroke="none" /><path d="M 82.18462484594161 111.11811171558189 l -31.94234717513037 19.934387083064024 a58.652268609394426,58.652268609394426 0 0,0 -0.5257255195073659,-0.8587331263086442 l 32.27984065909314 -19.383116840630823" fill="red" stroke="none" /><line stroke="#e1ed5e" stroke-width="0.3" x1="26.387840678322732" x2="22.057713659400548" y1="142.50000000000003" y2="145.00000000000006" /><path d="M 25.521815274538298 143.00000000000003 a86.0,86.0 0 0,1 -11.493303480769221,-40.785679425670985" fill="none" id="id9" stroke="none" /><text fill="#e1ed5e" style="font-size:6.75px; font-family:Arial;" text-anchor="middle"><textPath startOffset="21.40746469413373" xlink:href="#id9">September</textPath></text><path d="M 81.81346652052679 110.50000000000001 l -27.18171535030166 15.693370674532463 a52.3867413490649,52.3867413490649 0 0,0 -0.44295892280232735,-0.7826659730875011 l 27.447107638125363 -15.224447931345841" fill="red" stroke="none" /><path d="M 80.68587082218212 108.24405325689762 l -20.133415529049387 8.593757882460496 a42.89079933231582,42.89079933231582 0 0,0 -0.28323073212209365,-0.6796506505653478 l 20.277972105707963 -8.246874722453867" fill="red" stroke="none" /><path d="M 80.41425534168474 107.57618678355246 l -19.75446618710571 7.64145189543986 a42.18090464092184,42.18090464092184 0 0,0 -0.25543413329878645,-0.6775693859756637 l 19.882731004218932 -7.301214229270052" fill="red" stroke="none" /><path d="M 79.06263194458094 101.62068470465958 l -24.763423572758608 1.916845599367908 a45.83750076186557,45.83750076186557 0 0,0 -0.0539922951877057,-0.7850361223492976 l 24.79267982911138 -1.4914660528642671" fill="red" stroke="none" /><path d="M 79.03789590574601 101.26102812881392 l -46.11680591206246 2.7742725255383003 a67.20017722451718,67.20017722451718 0 0,0 -0.05938707035826974,-1.1520932995670847 l 46.1576345718773 -1.9822074325944845" fill="red" stroke="none" /><line stroke="#e1ed5e" stroke-width="0.3" x1="15.003131293944662" x2="10.003315487706104" y1="100.72959589197737" y2="100.7725132973878" /><path d="M 14.003168132696942 100.73817937305945 a86.0,86.0 0 0,1 10.791469493833604,-42.45332614584628" fill="none" id="id10" stroke="none" /><text fill="#e1ed5e" style="font-size:6.75px; font-family:Arial;" text-anchor="middle"><textPath startOffset="22.145653131862435" xlink:href="#id10">October</textPath></text><path d="M 81.63589988554816 89.8137432299009 l -32.568645098236345 -18.06527842678164 a58.24340113593301,58.24340113593301 0 0,0 0.49248022616277143,-0.8701653710857651 l 32.25373150705221 18.62170056796651" fill="red" stroke="none" /><line stroke="#e1ed5e" stroke-width="0.3" x1="26.387840678322718" x2="22.05771365940052" y1="57.49999999999999" y2="54.99999999999999" /><path d="M 25.521815274538284 56.99999999999999 a86.0,86.0 0 0,1 29.574782752854787,-30.34633250058573" fill="none" id="id11" stroke="none" /><text fill="#e1ed5e" style="font-size:6.75px; font-family:Arial;" text-anchor="middle"><textPath startOffset="21.40746469413373" xlink:href="#id11">November</textPath></text><path d="M 81.81346652052679 89.5 l -32.77734980672917 -18.92401173423762 a58.84802346847523,58.84802346847523 0 0,0 0.5126119332992308,-0.8705271304149639 l 32.44766416330016 19.483890032946157" fill="red" stroke="none" /><path d="M 81.99639281039701 89.18935116829357 l -17.817791264614204 -10.699071707675834 a41.78325818911346,41.78325818911346 0 0,0 0.37452132098203317,-0.6117524314541728 l 17.63150197917678 11.00336125525455" fill="red" stroke="none" /><path d="M 82.18462484594161 88.88188828441811 l -13.855797233144811 -8.647042243814967 a37.332619402053794,37.332619402053794 0 0,0 0.34396197045530746,-0.540765348120498 l 13.705317571063615 8.883621266614137" fill="red" stroke="none" /><path d="M 82.98947788004972 87.6856937992154 l -3.46010880693129 -2.5048519402359126 a25.271608151306378,25.271608151306378 0 0,0 0.2574069497825494,-0.3492219638161274 l 3.416599837564922 2.5638802133209033" fill="red" stroke="none" /><path d="M 83.2033758604659 87.39550010848427 l -15.814335277552344 -11.867372016805213 a40.771892141524745,40.771892141524745 0 0,0 0.4248975226045795,-0.5562044964831035 l 15.608285777593458 12.1370974265292" fill="red" stroke="none" /><path d="M 83.42222388311158 87.10902102172516 l -9.357533046010753 -7.276474295110593 a32.853712619875196,32.853712619875196 0 0,0 0.35002278052957375,-0.44224234885701 l 9.231243834839617 7.4360365878822865" fill="red" stroke="none" /><path d="M 85.08716467003674 85.21462403516908 l -18.639910724554074 -18.48059620558387 a47.24840391210839,47.24840391210839 0 0,0 0.5759987220220083,-0.5710756856039456 l 18.319920082402092 18.797851901416486" fill="red" stroke="none" /><path d="M 85.60350026404147 84.71141617570332 l -4.3279892612403765 -4.596174613601226 a27.313185576563104,27.313185576563104 0 0,0 0.34410741686360635,-0.31850068782351126 l 4.2484520730628175 4.6697930475571034" fill="red" stroke="none" /><path d="M 86.13680546590413 84.22622945171909 l -25.169780743473503 -28.63859013314951 a59.12724363875598,59.12724363875598 0 0,0 0.768148827129248,-0.6635086616505456 l 24.674452436581404 29.066442927264767" fill="red" stroke="none" /><path d="M 86.68645165197937 83.75963576809568 l -12.256178586570817 -14.950545048853858 a40.33216777300791,40.33216777300791 0 0,0 0.5392011920083316,-0.4343423122322204 l 11.997726624207239 15.158735654879477" fill="red" stroke="none" /><path d="M 86.96720088162412 83.53348406188908 l -7.974443480037661 -10.075448832512091 a33.84937422573117,33.84937422573117 0 0,0 0.4587235849982455,-0.3567062342594353 l 7.800309950404171 10.210856118392332" fill="red" stroke="none" /><line stroke="#e1ed5e" stroke-width="0.3" x1="56.869717070023135" x2="54.33264160355391" y1="26.7553504044142" y2="22.446841604673864" /><path d="M 56.362301976729285 25.89364864446614 a86.0,86.0 0 0,1 42.16139366436587,-11.88097634709845" fill="none" id="id12" stroke="none" /><text fill="#e1ed5e" style="font-size:6.75px; font-family:Arial;" text-anchor="middle"><textPath startOffset="22.145653131862474" xlink:href="#id12">December</textPath></text></svg>