<?xml version="1.0" encoding="utf-8" ?>
<svg baseProfile="full" height="200mm" version="1.1" viewBox="0,0,200,200" width="200mm" xmlns="http://www.w3.org/2000/svg" xmlns:ev="http://www.w3.org/2001/xml-events" xmlns:xlink="http://www.w3.org/1999/xlink"><defs /><rect fill="#1a1a1a" height="200" width="200" x="0" y="0" /><text alignment-baseline="middle" fill="#e1ed5e" style="dominant-baseline: central; font-size:9.0px; font-family:Arial;" text-anchor="middle" x="100.0" y="100.0">2022</text><line stroke="#e1ed5e" stroke-width="0.3" x1="100.0" x2="100.0" y1="15.0" y2="10.0" /><path d="M 100.0 14.0 a86.0,86.0 0 0,1 42.46469731375804,11.215312516191453" fill="none" id="id73" stroke="none" /><text fill="#e1ed5e" style="font-size:6.75px; font-family:Arial;" text-anchor="middle"><textPath startOffset="22.20632615414155" xlink:href="#id73">January</textPath></text><path d="M 109.41281617654863 81.2277094730956 l 7.072245627841044 -14.104413292828278 a36.778185337846296,36.778185337846296 0 0,0 0.5634759722842403,0.2886342785294889 l -7.313982087714039 13.98058648898629" fill="red" stroke="none" /><line stroke="#e1ed5e" stroke-width="0.3" x1="143.23703022742887" x2="145.7803849466894" y1="26.81831364943548" y2="22.513508569990506" /><path d="M 143.74570117128098 25.957352633546492 a86.0,86.0 0 0,1 28.547481713284135,27.462654790039103" fill="none" id="id74" stroke="none" /><text fill="#e1ed5e" style="font-size:6.75px; font-family:Arial;" text-anchor="middle"><textPath startOffset="19.985693538727396" xlink:href="#id74">February</textPath></text><path d="M 113.34407831869373 83.78471172551755 l 8.000921487285208 -9.722458552726081 a33.59130433891496,33.59130433891496 0 0,0 0.44331318196394187,0.37126204089019693 l -8.167092206208267 9.583295354442066" fill="red" stroke="none" /><path d="M 114.94478906791727 85.2469230424477 l 8.936226670228143 -8.82159254151187 a33.55693601441668,33.55693601441668 0 0,0 0.4022609521646114,0.41456527094159673 l -9.086751886095863 8.66646307502016" fill="red" stroke="none" /><path d="M 115.19652480421416 85.50635884689758 l 9.086751886095863 -8.66646307502016 a33.55693601441668,33.55693601441668 0 0,0 0.39506529320524075,0.42142810966037686 l -9.234584501271566 8.508765548481728" fill="red" stroke="none" /><path d="M 116.38621287248628 86.86637796730983 l 12.260455585519974 -9.826809334277382 a36.71257308198594,36.71257308198594 0 0,0 0.3909817695562872,0.4965071425161405 l -12.427791435670226 9.614309797808202" fill="red" stroke="none" /><path d="M 116.60985879189232 87.15038557335679 l 12.356125905418798 -9.55886836131259 a36.62196568103593,36.62196568103593 0 0,0 0.3814335719394937,0.5019218695316406 l -12.518835417582405 9.344761715899917" fill="red" stroke="none" /><line stroke="#e1ed5e" stroke-width="0.3" x1="172.23445277983987" x2="176.4835382374775" y1="55.19839476539836" y2="52.563006222186495" /><path d="M 173.08426987136738 54.67131705675599 a86.0,86.0 0 0,1 12.851231095245387,41.99856678651699" fill="none" id="id75" stroke="none" /><text fill="#e1ed5e" style="font-size:6.75px; font-family:Arial;" text-anchor="middle"><textPath startOffset="22.20632615414155" xlink:href="#id75">March</textPath></text><path d="M 117.84615892207809 88.93136811851018 l 13.328916692756817 -8.266925835152797 a36.68445354376008,36.68445354376008 0 0,0 0.32821091758930787,0.5394924512667046 l -13.469243408632348 8.036265610679012" fill="red" stroke="none" /><path d="M 119.04729006885535 91.15688171328212 l 20.841804580450994 -9.676260641137102 a43.97848642023506,43.97848642023506 0 0,0 0.3128706654591441,0.6893690387609333 l -21.005277562873484 9.316069593534106" fill="red" stroke="none" /><line stroke="#e1ed5e" stroke-width="0.3" x1="184.98032266829074" x2="189.97916517819016" y1="98.17113171792111" y2="98.06355123074" /><path d="M 185.9800911702706 98.14961562048488 a86.0,86.0 0 0,1 -9.607161424134198,41.387399972396054" fill="none" id="id76" stroke="none" /><text fill="#e1ed5e" style="font-size:6.75px; font-family:Arial;" text-anchor="middle"><textPath startOffset="21.466115282336823" xlink:href="#id76">April</textPath></text><path d="M 120.95626037817324 101.35467743843564 l 14.155200296716819 0.9150358953581258 a35.184744838380624,35.184744838380624 0 0,0 -0.044271525768914195,0.6040497952258485 l -14.137352212283567 -1.1585588270807445" fill="red" stroke="none" /><path d="M 120.8583938346157 102.4346265915055 l 62.575181503847105 7.303879774516526 a84.0,84.0 0 0,0 -0.1799939630126075,1.4347289828504204 l -62.44018603158764 -8.379926511654341" fill="red" stroke="none" /><path d="M 120.64145759157962 103.86396538481128 l 24.417224266996108 4.570767783343679 a45.8413517956257,45.8413517956257 0 0,0 -0.15186599604323048,0.7743614420070205 l -24.334928337977214 -4.990392952418644" fill="red" stroke="none" /><path d="M 118.97047184881838 109.00673069616215 l 5.701326110039085 2.7068545945164924 a27.311274135138518,27.311274135138518 0 0,0 -0.20528550856830477,0.42294895120985554 l -5.6538873448560665 -2.8045925016916233" fill="red" stroke="none" /><path d="M 118.64920377521936 109.65438752849418 l 49.25625237612442 25.499155587130378 a76.46517225969055,76.46517225969055 0 0,0 -0.6151713838774382,1.1636724249071115 l -48.81002848402209 -26.343243027123624" fill="red" stroke="none" /><line stroke="#e1ed5e" stroke-width="0.3" x1="174.80103733775053" x2="179.2010983576182" y1="140.37084112569926" y2="142.7455964860345" /><path d="M 175.68104954172406 140.8457921977663 a86.0,86.0 0 0,1 -30.038265399797805,32.042727171017184" fill="none" id="id77" stroke="none" /><text fill="#e1ed5e" style="font-size:6.75px; font-family:Arial;" text-anchor="middle"><textPath startOffset="22.206326154141568" xlink:href="#id77">May</textPath></text><path d="M 117.75023020441432 111.22182372390056 l 20.85466921388105 13.184472485333075 a45.67280978601551,45.67280978601551 0 0,0 -0.4258340015241381,0.6609038268983906 l -20.62463034897986 -13.541497912152918" fill="red" stroke="none" /><path d="M 117.55443506779139 111.5257021239791 l 25.764910780696894 16.916447938223065 a51.82201872661624,51.82201872661624 0 0,0 -0.4960030873998726,0.7414573170801704 l -25.4699045878863 -17.357442169509042" fill="red" stroke="none" /><path d="M 116.71984013943494 112.70617746262583 l 2.512464157515869 1.9093373613416746 a24.15563706756926,24.15563706756926 0 0,0 -0.2544315354809928,0.3288870573253176 l -2.4792258048168074 -1.952302412780245" fill="red" stroke="none" /><path d="M 115.56566222782051 114.09645910891815 l 3.705390340961667 3.355648006455555 a25.9990290179315,25.9990290179315 0 0,0 -0.30326454983646556,0.3291337733714654 l -3.6470793831294794 -3.4189330346283553" fill="red" stroke="none" /><line stroke="#e1ed5e" stroke-width="0.3" x1="143.8653032363475" x2="146.44561519142675" y1="172.8068346515853" y2="177.08958963109032" /><path d="M 144.38136562736335 173.6633856474863 a86.0,86.0 0 0,1 -40.68145358897372,12.25698825130547" fill="none" id="id78" stroke="none" /><text fill="#e1ed5e" style="font-size:6.75px; font-family:Arial;" text-anchor="middle"><textPath startOffset="21.466115282336833" xlink:href="#id78">June</textPath></text><path d="M 107.2578585660854 119.70592522655815 l 7.3467480032239205 19.94727032659462 a42.25719406942311,42.25719406942311 0 0,0 -0.6847284078332314,0.2455192455791394 l -7.002300034760955 -20.07077711321372" fill="red" stroke="none" /><path d="M 105.88484417918355 120.15858648285463 l 5.552346401194064 19.019612364106084 a40.81348543390864,40.81348543390864 0 0,0 -0.6760828334987374,0.19106776195563502 l -5.2241323995907205 -19.11236891940024" fill="red" stroke="none" /><path d="M 105.18746579009965 120.34920634021253 l 7.402691930343186 29.039016671893236 a50.96772158650139,50.96772158650139 0 0,0 -0.8520024403363736,0.2094014707182949 l -6.901736205263601 -29.16213940092556" fill="red" stroke="none" /><path d="M 101.98527174616119 120.90594882070398 l 0.894971015912029 9.424512433045617 a30.466911202707777,30.466911202707777 0 0,0 -0.5225157709770993,0.04508485935160526 l -0.7326109271933879 -9.438521544675886" fill="red" stroke="none" /><path d="M 101.26447882468166 120.96189622390904 l 0.7581637005562052 12.568457851237662 a33.59130433891496,33.59130433891496 0 0,0 -0.5774696030429692,0.02984858238446853 l -0.5417060290997564 -12.579646240384331" fill="red" stroke="none" /><line stroke="#e1ed5e" stroke-width="0.3" x1="102.19456741930631" x2="102.32365962044197" y1="184.97166512339345" y2="189.96999836594603" /><path d="M 102.22038585953345 185.97133177190398 a86.0,86.0 0 0,1 -42.740103519485714,-10.115201625700543" fill="none" id="id79" stroke="none" /><text fill="#e1ed5e" style="font-size:6.75px; font-family:Arial;" text-anchor="middle"><textPath startOffset="22.20632615414155" xlink:href="#id79">July</textPath></text><path d="M 96.58105272829116 120.7198165907248 l -4.470313226740128 27.091400597954117 a48.45774365646231,48.45774365646231 0 0,0 -0.8218226306377524,-0.1428843985177544 l 4.93598482884993 -27.010437620915358" fill="red" stroke="none" /><path d="M 93.76903079525671 120.05430185196036 l -1.9375292665622013 6.2359153900274436 a27.52998165467302,27.52998165467302 0 0,0 -0.45133262160675786,-0.14450245282405275 l 2.0445832332598997 -6.201640090543684" fill="red" stroke="none" /><path d="M 93.42475214034765 119.94407469862007 l -7.620707118222022 23.115166951312712 a45.33898354838959,45.33898354838959 0 0,0 -0.7390907784035683,-0.25073972030405267 l 8.017467629562816 -22.980564244110536" fill="red" stroke="none" /><path d="M 92.7421414339146 119.70592522655815 l -13.49783170044215 36.648173808799115 a60.054834580796914,60.054834580796914 0 0,0 -0.9669679980515516,-0.36562455670055055 l 14.126669919253985 -36.410401001991936" fill="red" stroke="none" /><line stroke="#e1ed5e" stroke-width="0.3" x1="58.666819895761336" x2="56.23545636021788" y1="174.27360380694188" y2="178.64263932499728" /><path d="M 58.180547188652646 175.14741091055294 a86.0,86.0 0 0,1 -31.652253787137756,-30.449443065178592" fill="none" id="id80" stroke="none" /><text fill="#e1ed5e" style="font-size:6.75px; font-family:Arial;" text-anchor="middle"><textPath startOffset="22.20632615414155" xlink:href="#id80">August</textPath></text><path d="M 86.79598089348748 116.32954008644616 l -14.842794545352145 18.35622976368361 a44.606349168236065,44.606349168236065 0 0,0 -0.5929030718771648,-0.4879188635192743 l 15.156567745773998 -18.098015781307158" fill="red" stroke="none" /><path d="M 86.51685102203217 116.09983520530335 l -20.01140896948869 23.895040183947877 a52.167762741919994,52.167762741919994 0 0,0 -0.6834834542875877,-0.5824794276007659 l 20.419757900353336 -23.547036366124157" fill="red" stroke="none" /><path d="M 85.44109423537348 115.13401014063109 l -17.375729078661813 18.062103315226192 a46.0630312848418,46.0630312848418 0 0,0 -0.5666850631501981,-0.5546206056879383 l 17.684064094187804 -17.760332606615684" fill="red" stroke="none" /><path d="M 84.43433777217949 114.09645910891817 l -36.741341816791454 33.27342036251452 a70.5686060033859,70.5686060033859 0 0,0 -0.8076447593127117,-0.9073974488711483 l 37.30864542575251 -32.636048743902506" fill="red" stroke="none" /><path d="M 83.72743513129214 113.27417163493432 l -20.00228218784464 16.31664885001764 a46.813258655523306,46.813258655523306 0 0,0 -0.503982821921741,-0.6287960612487975 l 20.280182921821243 -15.969924955190582" fill="red" stroke="none" /><path d="M 82.24976979558568 111.22182372390057 l -16.758477334889818 10.594830397543097 a40.82667379407648,40.82667379407648 0 0,0 -0.3704250001196754,-0.5972430460806629 l 16.938366974677447 -10.30479102009717" fill="red" stroke="none" /><line stroke="#e1ed5e" stroke-width="0.3" x1="26.63291911575756" x2="22.317208475507996" y1="142.92168965132927" y2="145.44649492493687" /><path d="M 25.769776987707644 143.4266507060508 a86.0,86.0 0 0,1 -11.730757126820373,-40.83630448921669" fill="none" id="id81" stroke="none" /><text fill="#e1ed5e" style="font-size:6.75px; font-family:Arial;" text-anchor="middle"><textPath startOffset="21.46611528233685" xlink:href="#id81">September</textPath></text><path d="M 80.0844068197444 106.66101706037122 l -19.396055015927242 6.487251079876299 a41.452172910334795,41.452172910334795 0 0,0 -0.2205013774427957,-0.6786334592801619 l 19.504848644386286 -6.152418720618334" fill="red" stroke="none" /><path d="M 79.4281124754447 104.21870165774334 l -21.014088027379763 4.309384245429755 a42.45140294240038,42.45140294240038 0 0,0 -0.14063556895141832,-0.7170977362154078 l 21.085153529306847 -3.947022782146392" fill="red" stroke="none" /><line stroke="#e1ed5e" stroke-width="0.3" x1="15.007084014347285" x2="10.007500721073583" y1="101.09737516637583" y2="101.16192664675087" /><path d="M 14.007167355692545 101.11028546245083 a86.0,86.0 0 0,1 10.666146001902534,-42.60595125391555" fill="none" id="id82" stroke="none" /><text fill="#e1ed5e" style="font-size:6.75px; font-family:Arial;" text-anchor="middle"><textPath startOffset="22.20632615414155" xlink:href="#id82">October</textPath></text><path d="M 79.91906864156998 93.8553929516997 l -6.061949009947414 -1.8549087165383402 a27.33939367336438,27.33939367336438 0 0,0 0.14157186376574465,-0.44882149613786226 l 6.0291216624134645 1.9589803791026168" fill="red" stroke="none" /><path d="M 80.2630227832202 92.82701384747504 l -29.36479816456402 -10.672013667170559 a52.24393136207186,52.24393136207186 0 0,0 0.3144472953715141,-0.8425624182362336 l 29.17674628069088 11.175899222436135" fill="red" stroke="none" /><path d="M 80.65960295795068 91.81776055985345 l -11.941526935440848 -5.052038614010951 a33.96623151525982,33.96623151525982 0 0,0 0.23244109620843598,-0.536506097561014 l 11.852795129389731 5.256843856158564" fill="red" stroke="none" /><line stroke="#e1ed5e" stroke-width="0.3" x1="26.266209847984243" x2="21.928928074336255" y1="57.711370442889674" y2="55.22380399835377" /><path d="M 25.398753493254645 57.213857153982495 a86.0,86.0 0 0,1 29.58750427330803,-30.492523968695096" fill="none" id="id83" stroke="none" /><text fill="#e1ed5e" style="font-size:6.75px; font-family:Arial;" text-anchor="middle"><textPath startOffset="21.46611528233685" xlink:href="#id83">November</textPath></text><path d="M 83.39014120810768 87.1503855733568 l -5.115436124843384 -3.9573715015834123 a27.467493791948876,27.467493791948876 0 0,0 0.29252347156570474,-0.37147510266480593 l 5.0465585726837086 4.044838998201266" fill="red" stroke="none" /><path d="M 83.84228863543731 86.58626213691792 l -7.452258652437867 -6.18668336104371 a30.68561872224228,30.68561872224228 0 0,0 0.3408871031657103,-0.4035028088209738 l 7.344660935785033 6.314045119493799" fill="red" stroke="none" /><path d="M 84.80347519578584 85.50635884689758 l -14.258053664636117 -13.59857704437834 a40.70313152611881,40.70313152611881 0 0,0 0.48792537068173014,-0.5028499843384646 l 14.021864030251269 13.841991224266927" fill="red" stroke="none" /><path d="M 85.31137513191541 84.99185889309783 l -20.26808372745305 -20.708967876840433 a49.97682813054348,49.97682813054348 0 0,0 0.619990531386113,-0.5964303999755801 l 19.90860995245451 21.054781363578325" fill="red" stroke="none" /><path d="M 85.57189188830299 84.74124197986013 l -21.423052659333422 -22.656413027323385 a52.181087801891096,52.181087801891096 0 0,0 0.6579590792832934,-0.611501257222931 l 21.02988569625527 23.021818870620965" fill="red" stroke="none" /><path d="M 86.65592168130627 83.78471172551755 l -16.033194390185983 -19.48301432205103 a46.23194739663859,46.23194739663859 0 0,0 0.6188401567114237,-0.5003923692791062 l 15.69545083491006 19.75611278859427" fill="red" stroke="none" /><line stroke="#e1ed5e" stroke-width="0.3" x1="56.762969772571076" x2="54.21961505331055" y1="26.818313649435495" y2="22.513508569990535" /><path d="M 56.25429882871897 25.957352633546506 a86.0,86.0 0 0,1 42.265352541879196,-11.944610805530505" fill="none" id="id84" stroke="none" /><text fill="#e1ed5e" style="font-size:6.75px; font-family:Arial;" text-anchor="middle"><textPath startOffset="22.20632615414155" xlink:href="#id84">December</textPath></text><path d="M 91.23893434514133 80.91482961587045 l -6.556488447211516 -14.282703048482896 a36.71569747512215,36.71569747512215 0 0,0 0.5766425504885517,-0.25872270367731853 l 6.30966377825619 14.393446082676743" fill="red" stroke="none" /><path d="M 91.56875222667455 80.76684994638697 l -6.347295967788534 -14.479291685555532 a36.809429269208366,36.809429269208366 0 0,0 0.5824938672679412,-0.24939347484968577 l 6.097118342730284 14.586404688368004" fill="red" stroke="none" /><path d="M 91.90106846888425 80.62456947434976 l -6.097118342730284 -14.586404688368004 a36.809429269208366,36.809429269208366 0 0,0 0.586700463221411,-0.239329850119334 l 5.845134009920493 14.689195424670915" fill="red" stroke="none" /><path d="M 92.57280143429618 80.3572730644239 l -6.674340421352117 -17.651641491999637 a39.87133454269141,39.87133454269141 0 0,0 0.6440505415197901,-0.2372092498078459 l 6.369507554059757 17.763914009613803" fill="red" stroke="none" /></svg>