<?xml version="1.0" encoding="utf-8" ?>
<svg baseProfile="full" height="200mm" version="1.1" viewBox="0,0,200,200" width="200mm" xmlns="http://www.w3.org/2000/svg" xmlns:ev="http://www.w3.org/2001/xml-events" xmlns:xlink="http://www.w3.org/1999/xlink"><defs /><rect fill="#1a1a1a" height="200" width="200" x="0" y="0" /><text alignment-baseline="middle" fill="#e1ed5e" style="dominant-baseline: central; font-size:9.0px; font-family:Arial;" text-anchor="middle" x="100.0" y="100.0">2026</text><line stroke="#e1ed5e" stroke-width="0.3" x1="100.0" x2="100.0" y1="15.0" y2="10.0" /><path d="M 100.0 14.0 a86.0,86.0 0 0,1 42.46469731375804,11.215312516191453" fill="none" id="id121" stroke="none" /><text fill="#e1ed5e" style="font-size:6.75px; font-family:Arial;" text-anchor="middle"><textPath startOffset="22.20632615414155" xlink:href="#id121">January</textPath></text><path d="M 102.52436894288641 79.15227682838746 l 4.474391386716238 -36.952155212719724 a58.22206272019929,58.22206272019929 0 0,0 0.9938929505278026,0.12903582989718473 l -5.109799065751887 36.8696610596584" fill="red" stroke="none" /><path d="M 103.95276090670814 79.375362276772 l 6.988606256126041 -36.46501157666088 a58.12866394969223,58.12866394969223 0 0,0 0.98108338459849,0.1967960973971674 l -7.615256050191657 36.339311523186495" fill="red" stroke="none" /><path d="M 104.307194497241 79.44645832069477 l 7.633096655501831 -36.42444527441635 a58.21564695260832,58.21564695260832 0 0,0 0.9790132994963393,0.2139743878265538 l -8.2589526791517 36.287657388493926" fill="red" stroke="none" /><path d="M 104.66035177308747 79.52364482259891 l 8.2987368488501 -36.462458525585504 a58.39491830471763,58.39491830471763 0 0,0 0.9781880505408673,0.23150550757465518 l -8.92514858635349 36.31420710586998" fill="red" stroke="none" /><line stroke="#e1ed5e" stroke-width="0.3" x1="143.23703022742887" x2="145.7803849466894" y1="26.81831364943548" y2="22.513508569990506" /><path d="M 143.74570117128098 25.957352633546492 a86.0,86.0 0 0,1 28.547481713284135,27.462654790039103" fill="none" id="id122" stroke="none" /><text fill="#e1ed5e" style="font-size:6.75px; font-family:Arial;" text-anchor="middle"><textPath startOffset="19.985693538727396" xlink:href="#id122">February</textPath></text><path d="M 115.4437574822437 85.77008943001954 l 45.52018459732276 -41.9423936625298 a82.89710487508249,82.89710487508249 0 0,0 0.9578814129742,1.0577165807001063 l -46.23540965091299 41.15262429456015" fill="red" stroke="none" /><path d="M 116.60985879189232 87.15038557335679 l 48.849217468178686 -37.7904241916694 a82.76052305348236,82.76052305348236 0 0,0 0.8619865519730242,1.1342732614686148 l -49.49247996037582 36.94396615431975" fill="red" stroke="none" /><path d="M 117.04232023915458 87.72973835380427 l 30.60005927116428 -22.03166754158525 a58.706206413025804,58.706206413025804 0 0,0 0.5833925913136593,0.8251674475798549 l -30.974764482281824 21.5016735936736" fill="red" stroke="none" /><path d="M 117.45458315368197 88.32363383020206 l 51.936628905903284 -34.74337320982168 a83.48612169199224,83.48612169199224 0 0,0 0.7887584497432852,1.2013332325657964 l -52.52698399100449 33.844221913278204" fill="red" stroke="none" /><line stroke="#e1ed5e" stroke-width="0.3" x1="172.23445277983987" x2="176.4835382374775" y1="55.19839476539836" y2="52.563006222186495" /><path d="M 173.08426987136738 54.67131705675599 a86.0,86.0 0 0,1 12.851231095245387,41.99856678651699" fill="none" id="id123" stroke="none" /><text fill="#e1ed5e" style="font-size:6.75px; font-family:Arial;" text-anchor="middle"><textPath startOffset="22.20632615414155" xlink:href="#id123">March</textPath></text><path d="M 118.03404312379186 89.2402003453031 l 53.301855617971356 -31.80192504454673 a83.06810975741112,83.06810975741112 0 0,0 0.722060942678686,1.2342362105313591 l -53.84137623512037 30.879709421661477" fill="red" stroke="none" /><path d="M 119.34039704204932 91.81776055985345 l 34.32124405121131 -14.520107115699616 a58.266356192606196,58.266356192606196 0 0,0 0.3828330256544652,0.9270605376654947 l -34.566098763751974 13.927172007580818" fill="red" stroke="none" /><path d="M 120.18372546131832 94.20196356495316 l 59.440989858033205 -17.075193853217225 a82.84491507333286,82.84491507333286 0 0,0 0.3819277985907018,1.3739974994885107 l -59.726104427190265 16.049485050309762" fill="red" stroke="none" /><path d="M 120.28053869075195 94.5502522615342 l 59.765782420974375 -16.060147245243986 a82.88600066194428,82.88600066194428 0 0,0 0.3583977569859552,1.3810527573130789 l -60.03337650983063 15.028998062382056" fill="red" stroke="none" /><path d="M 120.96714384426684 98.82574320788733 l 61.492285199455935 -3.443851680243734 a82.588645491249,82.588645491249 0 0,0 0.06727589167800858,1.420087743140023 l -61.54245469936744 2.3848528304807113" fill="red" stroke="none" /><line stroke="#e1ed5e" stroke-width="0.3" x1="184.98032266829074" x2="189.97916517819016" y1="98.17113171792111" y2="98.06355123074" /><path d="M 185.9800911702706 98.14961562048488 a86.0,86.0 0 0,1 -9.607161424134198,41.387399972396054" fill="none" id="id124" stroke="none" /><text fill="#e1ed5e" style="font-size:6.75px; font-family:Arial;" text-anchor="middle"><textPath startOffset="21.466115282336823" xlink:href="#id124">April</textPath></text><line stroke="#e1ed5e" stroke-width="0.3" x1="174.80103733775053" x2="179.2010983576182" y1="140.37084112569926" y2="142.7455964860345" /><path d="M 175.68104954172406 140.8457921977663 a86.0,86.0 0 0,1 -30.038265399797805,32.042727171017184" fill="none" id="id125" stroke="none" /><text fill="#e1ed5e" style="font-size:6.75px; font-family:Arial;" text-anchor="middle"><textPath startOffset="22.206326154141568" xlink:href="#id125">May</textPath></text><path d="M 114.29624159901734 115.38237550388516 l 42.43977728053721 45.66407093143626 a83.34053311973554,83.34053311973554 0 0,0 -1.0592202779680553,0.9675726100534274 l -41.64745745310229 -46.38783630807627" fill="red" stroke="none" /><line stroke="#e1ed5e" stroke-width="0.3" x1="143.8653032363475" x2="146.44561519142675" y1="172.8068346515853" y2="177.08958963109032" /><path d="M 144.38136562736335 173.6633856474863 a86.0,86.0 0 0,1 -40.68145358897372,12.25698825130547" fill="none" id="id126" stroke="none" /><text fill="#e1ed5e" style="font-size:6.75px; font-family:Arial;" text-anchor="middle"><textPath startOffset="21.466115282336833" xlink:href="#id126">June</textPath></text><path d="M 110.8373102113329 117.98757091392108 l 31.88902889474522 52.92883173358553 a82.79297203187517,82.79297203187517 0 0,0 -1.227039664255625,0.7249566619649939 l -30.973221359461213 -53.46990696784428" fill="red" stroke="none" /><path d="M 110.5260780823613 118.17145234162733 l 31.023932855714982 53.55745159084039 a82.89414375157898,82.89414375157898 0 0,0 -1.2408512525390587,0.7045877254200871 l -30.097432836254722 -54.08354248205511" fill="red" stroke="none" /><path d="M 107.93186726928326 119.44442032107085 l 23.405033262831527 57.37580937007583 a82.96595099653948,82.96595099653948 0 0,0 -1.3269768736133778,0.5280314836923311 l -22.41393531317628 -57.77018769817423" fill="red" stroke="none" /><path d="M 107.59598834532513 119.57807347666477 l 22.382829393024632 57.69001459065978 a82.87995503479124,82.87995503479124 0 0,0 -1.3344848047291578,0.5045879658229432 l -21.3864743675352 -58.066750806589354" fill="red" stroke="none" /><line stroke="#e1ed5e" stroke-width="0.3" x1="102.19456741930631" x2="102.32365962044197" y1="184.97166512339345" y2="189.96999836594603" /><path d="M 102.22038585953345 185.97133177190398 a86.0,86.0 0 0,1 -42.740103519485714,-10.115201625700543" fill="none" id="id127" stroke="none" /><text fill="#e1ed5e" style="font-size:6.75px; font-family:Arial;" text-anchor="middle"><textPath startOffset="22.20632615414155" xlink:href="#id127">July</textPath></text><path d="M 98.73552117531835 120.96189622390904 l -2.2776502309139635 37.75774401504999 a58.82637867521058,58.82637867521058 0 0,0 -1.0102372761333889,-0.06967187732211366 l 2.9272502678262824 -37.712943793211586" fill="red" stroke="none" /><path d="M 98.37488393609728 120.93702456842531 l -4.793665435787252 61.75872187298553 a82.94448285113891,82.94448285113891 0 0,0 -1.422520324325092,-0.12274103923612961 l 5.856030077853886 -61.66705658147074" fill="red" stroke="none" /><path d="M 95.86986931433489 120.58985236759428 l -12.176370083691051 60.70259792663605 a82.91178711245416,82.91178711245416 0 0,0 -1.3968999156445339,-0.292733959126796 l 13.219461460764972 -60.484007986782714" fill="red" stroke="none" /><path d="M 95.51606077576429 120.51570834832081 l -13.451817672707142 61.54712504496245 a84.0,84.0 0 0,0 -1.4099194024285495,-0.320893065689253 l 14.509257224528554 -61.30645524569551" fill="red" stroke="none" /><path d="M 95.16358092515715 120.4354850818985 l -14.248889230614612 60.206313555512246 a82.86946772238292,82.86946772238292 0 0,0 -1.3852883066200505,-0.34047016187015755 l 15.283130821977874 -59.952122135328054" fill="red" stroke="none" /><path d="M 94.81253420990036 120.34920634021253 l -15.263015584403727 59.873214796650295 a82.78803682603595,82.78803682603595 0 0,0 -1.3778671472178068,-0.36390723681984627 l 16.291373174433023 -59.60161621052686" fill="red" stroke="none" /><path d="M 93.76903079525671 120.05430185196036 l -18.3510577124411 59.062665626382426 a82.84787619683638,82.84787619683638 0 0,0 -1.3582264466247203,-0.43486121683172996 l 19.365005504156763 -58.73803156289099" fill="red" stroke="none" /><path d="M 92.7421414339146 119.70592522655815 l -21.370185239055843 58.02252393927073 a82.83282381902677,82.83282381902677 0 0,0 -1.3337259253204714,-0.5043010225653107 l 22.3657813851366 -57.64607466659878" fill="red" stroke="none" /><line stroke="#e1ed5e" stroke-width="0.3" x1="58.666819895761336" x2="56.23545636021788" y1="174.27360380694188" y2="178.64263932499728" /><path d="M 58.180547188652646 175.14741091055294 a86.0,86.0 0 0,1 -31.652253787137756,-30.449443065178592" fill="none" id="id128" stroke="none" /><text fill="#e1ed5e" style="font-size:6.75px; font-family:Arial;" text-anchor="middle"><textPath startOffset="22.20632615414155" xlink:href="#id128">August</textPath></text><line stroke="#e1ed5e" stroke-width="0.3" x1="26.63291911575756" x2="22.317208475507996" y1="142.92168965132927" y2="145.44649492493687" /><path d="M 25.769776987707644 143.4266507060508 a86.0,86.0 0 0,1 -11.730757126820373,-40.83630448921669" fill="none" id="id129" stroke="none" /><text fill="#e1ed5e" style="font-size:6.75px; font-family:Arial;" text-anchor="middle"><textPath startOffset="21.46611528233685" xlink:href="#id129">September</textPath></text><line stroke="#e1ed5e" stroke-width="0.3" x1="15.007084014347285" x2="10.007500721073583" y1="101.09737516637583" y2="101.16192664675087" /><path d="M 14.007167355692545 101.11028546245083 a86.0,86.0 0 0,1 10.666146001902534,-42.60595125391555" fill="none" id="id130" stroke="none" /><text fill="#e1ed5e" style="font-size:6.75px; font-family:Arial;" text-anchor="middle"><textPath startOffset="22.20632615414155" xlink:href="#id130">October</textPath></text><line stroke="#e1ed5e" stroke-width="0.3" x1="26.266209847984243" x2="21.928928074336255" y1="57.711370442889674" y2="55.22380399835377" /><path d="M 25.398753493254645 57.213857153982495 a86.0,86.0 0 0,1 29.58750427330803,-30.492523968695096" fill="none" id="id131" stroke="none" /><text fill="#e1ed5e" style="font-size:6.75px; font-family:Arial;" text-anchor="middle"><textPath startOffset="21.46611528233685" xlink:href="#id131">November</textPath></text><line stroke="#e1ed5e" stroke-width="0.3" x1="56.762969772571076" x2="54.21961505331055" y1="26.818313649435495" y2="22.513508569990535" /><path d="M 56.25429882871897 25.957352633546506 a86.0,86.0 0 0,1 42.265352541879196,-11.944610805530505" fill="none" id="id132" stroke="none" /><text fill="#e1ed5e" style="font-size:6.75px; font-family:Arial;" text-anchor="middle"><textPath startOffset="22.20632615414155" xlink:href="#id132">December</textPath></text></svg>