<?xml version="1.0" encoding="utf-8" ?>
<svg baseProfile="full" height="200mm" version="1.1" viewBox="0,0,200,200" width="200mm" xmlns="http://www.w3.org/2000/svg" xmlns:ev="http://www.w3.org/2001/xml-events" xmlns:xlink="http://www.w3.org/1999/xlink"><defs /><rect fill="#1a1a1a" height="200" width="200" x="0" y="0" /><text alignment-baseline="middle" fill="#e1ed5e" style="dominant-baseline: central; font-size:9.0px; font-family:Arial;" text-anchor="middle" x="100.0" y="100.0">2024</text><line stroke="#e1ed5e" stroke-width="0.3" x1="100.0" x2="100.0" y1="15.0" y2="10.0" /><path d="M 100.0 14.0 a86.0,86.0 0 0,1 42.35913384403234,11.155469271406648" fill="none" id="id97" stroke="none" /><text fill="#e1ed5e" style="font-size:6.75px; font-family:Arial;" text-anchor="middle"><textPath startOffset="22.145653131862478" xlink:href="#id97">January</textPath></text><path d="M 100.0 79.0 l 0.0 -17.58804015314729 a38.58804015314729,38.58804015314729 0 0,0 0.6624150218568151,0.005686036275080039 l -0.3019220970079603 17.585448515066645" fill="red" stroke="none" /><path d="M 100.36049292484886 79.00309439819443 l 0.3586655335472067 -20.89046921980347 a41.893547932041386,41.893547932041386 0 0,0 0.7189465190974734,0.018517512053078174 l -0.7172253667154215 20.881233990400347" fill="red" stroke="none" /><path d="M 101.44090949804482 79.04949213459386 l 0.8629802718466385 -12.547543754514836 a33.57718526622951,33.57718526622951 0 0,0 0.5746991168028139,0.04448534629177567 l -1.0782483834246859 12.530880641228006" fill="red" stroke="none" /><path d="M 101.80034050326958 79.07731436759882 l 1.0910255250018415 -12.679370394146417 a33.7262237245839,33.7262237245839 0 0,0 0.5763979247679951,0.054585482754191984 l -1.3085230131548495 12.65877315588704" fill="red" stroke="none" /><path d="M 102.51750503828377 79.15144685158666 l 1.2669648610397402 -10.492286545955158 a31.56850400584402,31.56850400584402 0 0,0 0.5374495386580296,0.06958360289389962 l -1.4468922215885613 10.468991346860863" fill="red" stroke="none" /><path d="M 104.29559338865022 79.4440306129975 l 3.6292997334350527 -17.36751304577962 a38.74266963989459,38.74266963989459 0 0,0 0.6498392536990338,0.14162944077436906 l -3.9269014037532206 17.302652146871534" fill="red" stroke="none" /><path d="M 108.4095320186766 80.7573450057729 l 5.080275887665475 -11.624665434976452 a33.6862937680763,33.6862937680763 0 0,0 0.5278908469781796,0.2361188613528399 l -5.279080137499286 11.53574282271376" fill="red" stroke="none" /><path d="M 108.73861861582097 80.90454125486305 l 8.704947085687992 -19.021880375052728 a41.91908307664186,41.91908307664186 0 0,0 0.6517644632705505,0.30505867832763245 l -9.030200262830048 18.869645465154562" fill="red" stroke="none" /><line stroke="#e1ed5e" stroke-width="0.3" x1="143.13028292997686" x2="145.6673583964461" y1="26.7553504044142" y2="22.446841604673864" /><path d="M 143.63769802327073 25.89364864446614 a86.0,86.0 0 0,1 29.32050498858742,28.57503671076993" fill="none" id="id98" stroke="none" /><text fill="#e1ed5e" style="font-size:6.75px; font-family:Arial;" text-anchor="middle"><textPath startOffset="20.669276256404974" xlink:href="#id98">February</textPath></text><path d="M 114.65682725009322 84.96080404539774 l 11.68690354019254 -11.991792592245547 a37.74475451994445,37.74475451994445 0 0,0 0.4601410538008046,0.45620824791305054 l -11.891036514123307 11.789404334103837" fill="red" stroke="none" /><path d="M 115.16444852881244 85.47280134310134 l 22.41830469739777 -21.476228777538417 a52.04526997805843,52.04526997805843 0 0,0 0.612508802699929,0.6504631226302776 l -22.783669333833956 21.088224194963644" fill="red" stroke="none" /><path d="M 115.8921839302757 86.27271002978787 l 15.87019680895971 -13.708298018493016 a41.970946123600015,41.970946123600015 0 0,0 0.4662880907326657,0.5492861984183569 l -16.10317946319949 13.433845037625106" fill="red" stroke="none" /><path d="M 116.1254893667686 86.54754324733833 l 12.94328973212069 -10.797752638586458 a37.85586577823049,37.85586577823049 0 0,0 0.4120037397185793,0.5025775715856514 l -13.126740291077896 10.573972785302312" fill="red" stroke="none" /><path d="M 116.57777611688842 87.10902102172516 l 13.600555223539564 -10.575874004047202 a38.22858709639391,38.22858709639391 0 0,0 0.39839289021830815,0.5215090818793491 l -13.780100091112178 10.34084400892697" fill="red" stroke="none" /><path d="M 116.7966241395341 87.39550010848427 l 30.870158084748812 -23.165542135009197 a59.59545313357869,59.59545313357869 0 0,0 0.607016527012345,0.8235344997917613 l -31.263276631344983 22.63220132594856" fill="red" stroke="none" /><path d="M 117.01052211995028 87.68569379921539 l 17.06279566749592 -12.352148217986615 a42.064533263042584,42.064533263042584 0 0,0 0.41841170885875445,0.58854846764369 l -17.272322474884636 12.057422523633422" fill="red" stroke="none" /><path d="M 117.42321728460499 88.27688183743584 l 17.588712110682287 -11.834470467348385 a42.19946897813723,42.19946897813723 0 0,0 0.3992382464989953,0.6044975900966838 l -17.789274796102006 11.530792998912641" fill="red" stroke="none" /><path d="M 117.62189284568427 88.57770195909679 l 17.583857859182284 -11.397644222178302 a41.95467372753107,41.95467372753107 0 0,0 0.3865470057088258,0.6077160967253782 l -17.776922556517 11.094114450774251" fill="red" stroke="none" /><line stroke="#e1ed5e" stroke-width="0.3" x1="172.87174338648825" x2="177.1583165268699" y1="56.24261187166439" y2="53.66864786411523" /><path d="M 173.72905801456457 55.72781907015455 a86.0,86.0 0 0,1 12.242430191666344,42.057860355516425" fill="none" id="id99" stroke="none" /><text fill="#e1ed5e" style="font-size:6.75px; font-family:Arial;" text-anchor="middle"><textPath startOffset="22.145653131862474" xlink:href="#id99">March</textPath></text><path d="M 118.8641267826498 90.77261029715802 l 15.042087151564587 -7.357838594429851 a37.74521348496178,37.74521348496178 0 0,0 0.2797113395710138,0.5844891205806303 l -15.166177749095512 7.098536971784117" fill="red" stroke="none" /><path d="M 119.0197475246899 91.09779779509293 l 21.65726040830132 -10.136691410269922 a44.912119126920054,44.912119126920054 0 0,0 0.32083407549136156,0.7010803562805243 l -21.828078948647732 9.763422071774713" fill="red" stroke="none" /><path d="M 119.31412917781788 91.75594674310238 l 38.47392890582395 -16.422232448666907 a62.83219960805844,62.83219960805844 0 0,0 0.41491439126488644,0.9956434947551588 l -38.75016914162533 15.759356444470471" fill="red" stroke="none" /><path d="M 119.83427380445688 93.10060997987247 l 21.699951526175333 -7.548369578487062 a43.9753298024596,43.9753298024596 0 0,0 0.2418948420641588,0.7151191186660214 l -21.826331789811857 7.174748785346879" fill="red" stroke="none" /><path d="M 119.94978838288452 93.4421083053983 l 21.932203465254087 -7.209550907943418 a44.086774853485515,44.086774853485515 0 0,0 0.23016505197742645,0.7209887471125138 l -22.05273323300877 6.831993127139517" fill="red" stroke="none" /><path d="M 120.26092885502905 94.47779374421319 l 22.652504223577285 -6.174040757347908 a44.478814426469235,44.478814426469235 0 0,0 0.19445824027067588,0.7383896119738855 l -22.75515194465269 5.784270641001224" fill="red" stroke="none" /><path d="M 120.43855184770803 95.1765574152323 l 24.480999902073545 -5.777449318582583 a46.15349432651685,46.15349432651685 0 0,0 0.17535940706742434,0.772665903521108 l -24.576570170698638 5.356349081122449" fill="red" stroke="none" /><path d="M 120.51834098615036 95.52812308129327 l 24.5092636841226 -5.341679945640113 a46.084607849825055,46.084607849825055 0 0,0 0.16182783231464068,0.7744047599603225 l -24.59734922726161 4.920158734394386" fill="red" stroke="none" /><path d="M 120.592083275326 95.88100663000786 l 24.69509186169052 -4.9397099987222965 a46.184286706770365,46.184286706770365 0 0,0 0.14883151998814495,0.7787494027920655 l -24.776249673960823 4.515058030896917" fill="red" stroke="none" /><path d="M 120.7213421655516 96.59031103205396 l 35.00084196966766 -5.75937522672638 a56.471528605176836,56.471528605176836 0 0,0 0.14918838779459453,0.9578964701695554 l -35.09455184960052 5.157690574625383" fill="red" stroke="none" /><path d="M 120.86939407059847 97.66154086499901 l 21.326029851262483 -2.389626126675479 a42.45949352250021,42.45949352250021 0 0,0 0.07494627815806094,0.7250372553964639 l -21.363908521902207 2.0231843489960832" fill="red" stroke="none" /><path d="M 120.98066250479742 99.09900007780936 l 22.99414991720674 -0.9874677351826202 a44.01534320715217,44.01534320715217 0 0,0 0.0259382690061744,0.7551644009808164 l -23.007712873209766 0.5925970696376838" fill="red" stroke="none" /><path d="M 120.99303781780057 99.45929381324524 l 23.08078924801554 -0.5944792578329334 a44.088443817184896,44.088443817184896 0 0,0 0.01299258810814374,0.7567531211442307 l -23.08759326772235 0.19817922071963637" fill="red" stroke="none" /><line stroke="#e1ed5e" stroke-width="0.3" x1="184.99686870605535" x2="189.99668451229388" y1="99.2704041080226" y2="99.22748670261217" /><path d="M 185.99683186730306 99.26182062694052 a86.0,86.0 0 0,1 -10.086455211305974,41.156179273409016" fill="none" id="id100" stroke="none" /><text fill="#e1ed5e" style="font-size:6.75px; font-family:Arial;" text-anchor="middle"><textPath startOffset="21.40746469413373" xlink:href="#id100">April</textPath></text><path d="M 120.99922638620191 99.81974689727618 l 23.256110669067464 -0.19962573993404767 a44.25696742672952,44.25696742672952 0 0,0 0.0,0.7597576853157463 l -23.256110669067464 -0.19962573993404484" fill="red" stroke="none" /><path d="M 120.99922638620191 100.18025310272382 l 25.099746948007233 0.21545114004456806 a46.10067162543156,46.10067162543156 0 0,0 -0.013585579033395804,0.7912918696801878 l -25.09234993737517 -0.6462899256938269" fill="red" stroke="none" /><path d="M 120.98066250479742 100.90099992219065 l 62.62463449681511 2.6893712625111754 a83.68235448391601,83.68235448391601 0 0,0 -0.07395292808348239,1.4346670481360468 l -62.56923997927505 -3.7640101040239533" fill="red" stroke="none" /><path d="M 120.93736805541906 101.62068470465957 l 22.04132573990152 1.7061380113548703 a43.107260058321,43.107260058321 0 0,0 -0.06344234494424177,0.7372962151549 l -22.008789772259536 -2.084255273885428" fill="red" stroke="none" /><path d="M 120.9064616781168 101.97986365728391 l 38.369624400487766 3.633643323474268 a59.5412952615339,59.5412952615339 0 0,0 -0.10509777923275117,1.0167256770572752 l -38.30159422877335 -4.291773522814474" fill="red" stroke="none" /><path d="M 120.82617615685814 102.69636545807757 l 22.908091713449124 2.9659111082797924 a44.09929208123084,44.09929208123084 0 0,0 -0.10364485144010184,0.7499225143955685 l -22.85380234545381 -3.358721930875446" fill="red" stroke="none" /><path d="M 120.7213421655516 103.40968896794604 l 24.742856820874895 4.071427674113679 a46.07559544584842,46.07559544584842 0 0,0 -0.1351225692707882,0.779351072128466 l -24.669319434111873 -4.4955717791627325" fill="red" stroke="none" /><path d="M 120.51834098615036 104.47187691870673 l 12.31362183968427 2.6836965682427905 a33.6026786867375,33.6026786867375 0 0,0 -0.12767279913187757,0.5625499101874318 l -12.265738178994729 -2.894680812369239" fill="red" stroke="none" /><path d="M 120.43855184770803 104.8234425847677 l 10.271694823166 2.4240920098922194 a31.55385884938199,31.55385884938199 0 0,0 -0.1289387940867207,0.5261142803452036 l -10.228568502562984 -2.6000621148455227" fill="red" stroke="none" /><path d="M 120.35273937422433 105.17358676015961 l 22.809217651243582 5.7980139321943245 a44.534599538120915,44.534599538120915 0 0,0 -0.19470212884515717,0.7393156966161383 l -22.706326041593694 -6.188710133183266" fill="red" stroke="none" /><path d="M 120.26092885502905 105.52220625578681 l 24.145586669522455 6.580987017432976 a46.02636101671679,46.02636101671679 0 0,0 -0.21431080878734993,0.760513455446676 l -24.029057368660528 -6.994508396782661" fill="red" stroke="none" /><path d="M 120.16314734710363 105.8691983318838 l 24.11639118169954 7.019929996941689 a46.11731953833285,46.11731953833285 0 0,0 -0.22778371876592352,0.7582179171322453 l -23.992331142929988 -7.4328855176646575" fill="red" stroke="none" /><path d="M 119.94978838288452 106.5578916946017 l 19.949180608384292 6.557691907051529 a41.99936023058191,41.99936023058191 0 0,0 -0.23102563767933565,0.6829862472333457 l -19.83366954913259 -6.899179828759036" fill="red" stroke="none" /><path d="M 119.83427380445688 106.89939002012753 l 46.639473477722866 16.22362991600413 a70.38063035169436,70.38063035169436 0 0,0 -0.406732444365796,1.1377030358226747 l -46.35410086331313 -17.021867908207724" fill="red" stroke="none" /><path d="M 119.71291397450082 107.23885506374661 l 19.684739967579283 7.228509178154357 a41.969986469472865,41.969986469472865 0 0,0 -0.25415687998285924,0.6741813198083411 l -19.557752403781983 -7.565358778156857" fill="red" stroke="none" /><path d="M 119.4528033332814 107.91128576633889 l 23.263953654623997 9.4612474234863 a46.11427367958149,46.11427367958149 0 0,0 -0.3045170455871113,0.7307300538710697 l -23.0981107645004 -9.859209986798648" fill="red" stroke="none" /><path d="M 119.16976305983485 108.57439118712176 l 9.620372885833712 4.303070425630414 a31.538879900180074,31.538879900180074 0 0,0 -0.22530104505226806,0.4923234438041296 l -9.545087375926387 -4.467582851649233" fill="red" stroke="none" /><path d="M 119.0197475246899 108.90220220490707 l 11.437477424916889 5.353316946951958 a33.62829727952294,33.62829727952294 0 0,0 -0.24920288458019205,0.5207381834351882 l -11.343895282376785 -5.548867632452249" fill="red" stroke="none" /><path d="M 118.8641267826498 109.22738970284198 l 30.262581045779758 14.80294486676598 a54.68903365014944,54.68903365014944 0 0,0 -0.41975158048083705,0.839784341398197 l -30.004009552087187 -15.320261064327923" fill="red" stroke="none" /><line stroke="#e1ed5e" stroke-width="0.3" x1="174.33088141563837" x2="178.70328620479359" y1="141.23008692659167" y2="143.65538615756765" /><path d="M 175.20536237346943 141.71514677278685 a86.0,86.0 0 0,1 -30.301960400862466,31.631185727798858" fill="none" id="id101" stroke="none" /><text fill="#e1ed5e" style="font-size:6.75px; font-family:Arial;" text-anchor="middle"><textPath startOffset="22.145653131862474" xlink:href="#id101">May</textPath></text><path d="M 118.36410011445183 110.18625677009912 l 40.29677954135794 22.351944329323405 a67.08079704937813,67.08079704937813 0 0,0 -0.5672053049400919,1.0021974252665302 l -39.90714087139647 -23.040398524689056" fill="red" stroke="none" /><path d="M 117.81537515405839 111.11811171558189 l 23.055063670157395 14.388064875314793 a48.17632005425456,48.17632005425456 0 0,0 -0.4438697910984335,0.6978370364194237 l -22.80467618743307 -14.781715586412888" fill="red" stroke="none" /><path d="M 117.423217284605 111.72311816256416 l 17.37121022972211 11.688125495037832 a41.93731650505755,41.93731650505755 0 0,0 -0.40701216734071377,0.5938429158560883 l -17.168008325566074 -11.984603145963964" fill="red" stroke="none" /><path d="M 117.21940702142032 112.02048342749411 l 17.178032610823653 11.99160087559898 a41.9495416641555,41.9495416641555 0 0,0 -0.41726789891573485,0.5869395557155894 l -16.969649613377957 -12.284717658024073" fill="red" stroke="none" /><path d="M 117.01052211995028 112.31430620078461 l 16.98965776433508 12.299202016332426 a41.97424232690628,41.97424232690628 0 0,0 -0.4275336030106787,0.580031442689878 l -16.776022141740572 -12.589039768291181" fill="red" stroke="none" /><path d="M 116.79662413953412 112.60449989151573 l 16.73874498482581 12.561066294789311 a41.927636515601165,41.927636515601165 0 0,0 -0.43694192122127506,0.5719710009027555 l -16.52065108625023 -12.846558208932944" fill="red" stroke="none" /><path d="M 116.1254893667686 113.45245675266167 l 32.090825878619775 26.77130829771757 a62.79143516970115,62.79143516970115 0 0,0 -0.6975991995372309,0.8217701029666207 l -31.626532115575433 -27.318245183133747" fill="red" stroke="none" /><path d="M 115.89218393027572 113.72728997021213 l 9.49199499240961 8.198959200842042 a33.542762889929854,33.542762889929854 0 0,0 -0.3801336405744689,0.4325223028038091 l -9.349850287876556 -8.360693781457144" fill="red" stroke="none" /><path d="M 115.6541949942343 113.99807769240083 l 14.033981836366925 12.549273095905702 a39.82649466627018,39.82649466627018 0 0,0 -0.46009519873551213,0.5057252202260505 l -13.816488936789533 -12.788335891689425" fill="red" stroke="none" /><path d="M 115.16444852881244 114.52719865689866 l 24.138678134409947 23.12430761377451 a54.42767393482697,54.42767393482697 0 0,0 -0.652129578317269,0.6691423968337433 l -23.73816175494187 -23.53527270267599" fill="red" stroke="none" /><path d="M 114.91283532996324 114.78537596483092 l 14.887284618303477 14.760043634009854 a41.964019924247594,41.964019924247594 0 0,0 -0.5115775316397393,0.5072051003779409 l -14.631715166533771 -15.013428744616457" fill="red" stroke="none" /><path d="M 114.39649973595853 115.28858382429668 l 25.76969629355061 27.366524442504314 a58.58994422879638,58.58994422879638 0 0,0 -0.7381502353959315,0.6832208379393255 l -25.296116286840707 -27.80486302657602" fill="red" stroke="none" /><path d="M 114.13192950727249 115.5334660781643 l 9.419024484203012 10.3531578783685 a34.99663889254987,34.99663889254987 0 0,0 -0.4478486101933961,0.400468988806507 l -9.23991084718624 -10.513322397058394" fill="red" stroke="none" /><path d="M 113.86319453409587 115.77377054828091 l 19.842958990408622 22.577644809343834 a51.05816139806174,51.05816139806174 0 0,0 -0.6633197216652995,0.5729597770960335 l -19.452459788980466 -22.914948718904586" fill="red" stroke="none" /><path d="M 113.59037401385872 116.0094264158162 l 13.527530913424359 15.935397401521238 a41.9028941287579,41.9028941287579 0 0,0 -0.5523712651303345,0.460807755136546 l -13.251985314132128 -16.165267340569653" fill="red" stroke="none" /><path d="M 113.31354834802062 116.24036423190432 l 7.027497029685584 8.572403721182841 a32.08475620215389,32.08475620215389 0 0,0 -0.42894145652829707,0.3455248742066561 l -6.879304802802035 -8.6917768891829" fill="red" stroke="none" /><path d="M 113.03279911837588 116.46651593811092 l 20.737167518713477 26.200733730078767 a54.41419705295449,54.41419705295449 0 0,0 -0.7374161596157042,0.5734192659389412 l -20.284341414462542 -26.5528540476385" fill="red" stroke="none" /><path d="M 112.7482090630111 116.68781488649013 l 12.675683903812986 16.592877125010904 a41.880530015186245,41.880530015186245 0 0,0 -0.5750536025100901,0.43153094397069625 l -12.388977312392129 -16.808027096245613" fill="red" stroke="none" /><path d="M 112.45986205192187 116.90419585922612 l 12.411678583456895 16.838825730350315 a41.91879100799447,41.91879100799447 0 0,0 -0.5829087141190165,0.4219809563839631 l -12.12078885896391 -17.049407458107353" fill="red" stroke="none" /><path d="M 111.8722381534696 117.32195027204791 l 11.816467092093088 17.240578626761224 a41.90135033733598,41.90135033733598 0 0,0 -0.596802353316432,0.4015552577540772 l -11.518768450679651 -17.440883558572423" fill="red" stroke="none" /><path d="M 111.5731344415666 117.5232005979908 l 11.513019896729954 17.43217951521083 a41.89091931421487,41.89091931421487 0 0,0 -0.6034573795482063,0.39115378265792916 l -11.212076884924738 -17.627247139572653" fill="red" stroke="none" /><path d="M 110.96478420261333 117.91015095944535 l 10.92907049299814 17.85181529877842 a41.93160030438719,41.93160030438719 0 0,0 -0.6171278152005858,0.3705675215056131 l -10.621009921240116 -18.036796820819955" fill="red" stroke="none" /><line stroke="#e1ed5e" stroke-width="0.3" x1="143.1302829299769" x2="145.66735839644613" y1="173.24464959558577" y2="177.55315839532614" /><path d="M 143.63769802327073 174.10635135553383 a86.0,86.0 0 0,1 -40.68552437913181,11.842963189579606" fill="none" id="id102" stroke="none" /><text fill="#e1ed5e" style="font-size:6.75px; font-family:Arial;" text-anchor="middle"><textPath startOffset="21.407464694133747" xlink:href="#id102">June</textPath></text><path d="M 110.65571695917076 118.09573695890943 l 31.967150877512285 54.28721087672828 a84.0,84.0 0 0,0 -1.2488301285584058,0.7210124108953133 l -31.03052828109348 -54.82797018489977" fill="red" stroke="none" /><path d="M 110.34350942703117 118.27599006163325 l 20.569884313936125 36.34501461447838 a62.76218658086957,62.76218658086957 0 0,0 -0.9421973373167005,0.5226209804017967 l -19.94294278846333 -36.69276851031332" fill="red" stroke="none" /><path d="M 110.02825361518725 118.45085714620011 l 9.996008725692036 18.391530181346504 a41.932476510329366,41.932476510329366 0 0,0 -0.6353991908264013,0.33831428011330894 l -9.67882071907908 -18.56041492918238" fill="red" stroke="none" /><path d="M 109.71004243097381 118.62028667847754 l 11.590959255241168 22.227192697189693 a46.067876488738804,46.067876488738804 0 0,0 -0.7043400520949956,0.359641049221268 l -11.20769198143259 -22.4228916980838" fill="red" stroke="none" /><path d="M 109.3889696526874 118.78422872680471 l 9.357101407125857 18.720470887990253 a41.92872134200576,41.92872134200576 0 0,0 -0.6465803175312045,0.31627483385741156 l -9.034360840332583 -18.878339471944887" fill="red" stroke="none" /><path d="M 108.73861861582097 119.09545874513695 l 10.423705653470703 22.777678032193297 a46.04947616395317,46.04947616395317 0 0,0 -0.721631686241727,0.3227766744714364 l -10.03116056437335 -22.95325845757458" fill="red" stroke="none" /><path d="M 108.07796709384702 119.3841803445677 l 11.29124449210905 27.094876347832933 a50.3534414759997,50.3534414759997 0 0,0 -0.8007289116484916,0.32564947750141043 l -10.824461119270117 -27.284713081913637" fill="red" stroke="none" /><path d="M 107.407793817531 119.65005319985036 l 7.3786026005092165 19.57262002857488 a41.91724721657255,41.91724721657255 0 0,0 -0.6754881519468571,0.24804860588071362 l -7.041525296908232 -19.69639948346432" fill="red" stroke="none" /><path d="M 106.38641147887787 120.00534299687104 l 6.36153697507517 19.927423967992926 a41.918206870699684,41.918206870699684 0 0,0 -0.6873774851976415,0.21295130199967652 l -6.018518857005904 -20.033691857799248" fill="red" stroke="none" /><path d="M 105.3480935250658 120.30758222061773 l 5.320080054349994 20.20121050943132 a41.89000138418021,41.89000138418021 0 0,0 -0.6969592738292069,0.1771643219693421 l -4.972515487295389 -20.289560063235932" fill="red" stroke="none" /><path d="M 104.64783097203109 120.47920084513623 l 4.631002458763751 20.405051310611295 a41.92396479546254,41.92396479546254 0 0,0 -0.7031998116808642,0.15325912602861747 l -4.280040230463751 -20.48154189477363" fill="red" stroke="none" /><path d="M 103.94208987418118 120.62667999033965 l 3.939941189406395 20.61543716365024 a41.988553690628436,41.988553690628436 0 0,0 -0.7091372182139274,0.12922842376220461 l -3.5854692376414103 -20.680033761343807" fill="red" stroke="none" /><path d="M 103.2317021107853 120.74984581791261 l 6.434036961034061 41.31113275652934 a62.80916790900704,62.80916790900704 0 0,0 -1.066783491943535,0.15678043660859176 l -5.72392836348284 -41.415494266436816" fill="red" stroke="none" /><path d="M 102.51750503828377 120.84855314841334 l 2.002889399917546 16.58679743220752 a37.70728628489343,37.70728628489343 0 0,0 -0.6432936630446615,0.07208239672633214 l -1.7178598352720853 -16.61873558944082" fill="red" stroke="none" /><path d="M 102.15924093988457 120.88869738790638 l 2.150938141590769 20.80837534610533 a41.919249973011794,41.919249973011794 0 0,0 -0.7164208151374581,0.06784579605343079 l -1.7934177630682957 -20.84223289766394" fill="red" stroke="none" /><path d="M 101.80034050326958 120.92268563240118 l 1.7903272114662065 20.80631600334101 a41.883200357105245,41.883200357105245 0 0,0 -0.716862895542121,0.05548972187277306 l -1.4328953211488498 -20.833983492208837" fill="red" stroke="none" /><path d="M 101.08105385017728 120.97215588758144 l 1.302560063535645 25.269317250873076 a46.30286657761111,46.30286657761111 0 0,0 -0.7941476072186835,0.03410411526081334 l -0.8685866957161319 -25.28795393455972" fill="red" stroke="none" /><path d="M 100.72087961077811 120.9876233191556 l 0.745982844749412 21.718476586199206 a42.731284260943795,42.731284260943795 0 0,0 -0.7333231390620247,0.018887802785983305 l -0.37304639161664344 -21.728082106335233" fill="red" stroke="none" /><line stroke="#e1ed5e" stroke-width="0.3" x1="101.45913802915013" x2="101.54496967792366" y1="184.9874750549273" y2="189.98673829345242" /><path d="M 101.47630435890484 185.9873277026323 a86.0,86.0 0 0,1 -42.54439059252881,-10.42667462771756" fill="none" id="id103" stroke="none" /><text fill="#e1ed5e" style="font-size:6.75px; font-family:Arial;" text-anchor="middle"><textPath startOffset="22.145653131862474" xlink:href="#id103">July</textPath></text><path d="M 100.0 121.0 l 3.5910654816771224e-15 29.323274957133457 a50.32327495713346,50.32327495713346 0 0,0 -0.8638659322509541,-0.007415250055495492 l 0.5033730074020983 -29.318954105272397" fill="red" stroke="none" /><path d="M 99.27912038922189 120.98762331915562 l -0.7171881272279707 20.880149803355287 a41.89246310563679,41.89246310563679 0 0,0 -0.7185040969347694,-0.03085565745523511 l 1.0755179847635787 -20.864761577474223" fill="red" stroke="none" /><path d="M 98.91894614982273 120.97215588758144 l -1.2991040854766684 25.20227219980123 a46.235732512803665,46.235732512803665 0 0,0 -0.7922947370488513,-0.04766248393946641 l 1.7315431746579661 -25.17625773803707" fill="red" stroke="none" /><path d="M 98.19965949673042 120.92268563240118 l -3.5784867443781794 41.58744029608054 a62.741115914164936,62.741115914164936 0 0,0 -1.0722768521573887,-0.10154573274134512 l 4.291863159920584 -41.51988280783401" fill="red" stroke="none" /><path d="M 97.48249496171623 120.84855314841334 l -4.0073994264364 33.18701597750803 a54.42809117575181,54.42809117575181 0 0,0 -0.9266309384514877,-0.11997092678022891 l 4.576508186778682 -33.11333345452741" fill="red" stroke="none" /><path d="M 97.12497278360702 120.80226474461374 l -2.863440806385716 20.718431253564898 a41.915369632410744,41.915369632410744 0 0,0 -0.7119123827169025,-0.10462660421007565 l 3.218678294710304 -20.666223576055938" fill="red" stroke="none" /><path d="M 96.76829788921471 120.74984581791261 l -3.2137405882706993 20.634519958642077 a41.88328380529022,41.88328380529022 0 0,0 -0.7094679188359535,-0.11674267606024792 l 3.5674860101597163 -20.57631128408616" fill="red" stroke="none" /><path d="M 96.41257539226777 120.69131181640829 l -3.566117488686674 20.568418015900082 a41.875272779533205,41.875272779533205 0 0,0 -0.7072240370464432,-0.12887977842206647 l 3.918676259284174 -20.50417006354665" fill="red" stroke="none" /><path d="M 96.05791012581884 120.62667999033965 l -6.302040228517955 32.97493746432854 a54.57174722617571,54.57174722617571 0 0,0 -0.9186335445318715,-0.18375243673927144 l 6.867170258580785 -32.861895630926405" fill="red" stroke="none" /><path d="M 95.70440661134978 120.55596938700252 l -6.841830587835064 32.74063613334406 a54.44786839558943,54.44786839558943 0 0,0 -0.9132659801857961,-0.19904206973602753 l 7.402858984639996 -32.61836260547432" fill="red" stroke="none" /><path d="M 95.00130118170881 120.39639698878247 l -7.9530452629326565 32.451138656115944 a54.41148498694301,54.41148498694301 0 0,0 -0.9052897543897458,-0.23012111545782907 l 8.50894031054778 -32.309832308822855" fill="red" stroke="none" /><path d="M 94.6519064749342 120.30758222061772 l -6.911333031958046 26.24345725121405 a48.138267681908765,48.138267681908765 0 0,0 -0.7973040393596261,-0.21730876138104072 l 7.360818472252368 -26.120947995688866" fill="red" stroke="none" /><path d="M 93.95794788825049 120.11202640906438 l -9.616093647804142 32.00884828857815 a54.422082906434056,54.422082906434056 0 0,0 -0.8924168584508151,-0.27647302395846785 l 10.164151139126592 -31.839058676813032" fill="red" stroke="none" /><path d="M 93.27111125876986 119.89276391827306 l -13.378675374892346 39.551676511044974 a62.75313245280044,62.75313245280044 0 0,0 -1.017479970774894,-0.35393235090193037 l 14.055661117712262 -39.31618572757446" fill="red" stroke="none" /><path d="M 92.59220618246901 119.65005319985036 l -9.580998974368772 25.414738070667227 a48.16071524366539,48.16071524366539 0 0,0 -0.7710937296700505,-0.29827561961633786 l 10.01586496653235 -25.24652256291285" fill="red" stroke="none" /><path d="M 90.6110303473126 118.78422872680471 l -7.736764347921177 15.478711348815793 a38.304566668808064,38.304566668808064 0 0,0 -0.5856454114957865,-0.29903471999851416 l 8.001336981130546 -15.343618677144441" fill="red" stroke="none" /><path d="M 89.97174638481275 118.45085714620012 l -19.942584142936497 36.692108642939054 a62.761435547204854,62.761435547204854 0 0,0 -0.9421860626629766,-0.5226147265414324 l 20.569514393755576 -36.344361000964476" fill="red" stroke="none" /><line stroke="#e1ed5e" stroke-width="0.3" x1="58.13341422392154" x2="55.67067388415222" y1="173.97424548756322" y2="178.32567169271397" /><path d="M 57.64086615596768 174.84453072859336 a86.0,86.0 0 0,1 -31.369924170532247,-30.572349798747897" fill="none" id="id104" stroke="none" /><text fill="#e1ed5e" style="font-size:6.75px; font-family:Arial;" text-anchor="middle"><textPath startOffset="22.145653131862474" xlink:href="#id104">August</textPath></text><path d="M 89.03521579738668 117.91015095944536 l -22.440772614675733 36.65531557653798 a63.979069738178005,63.979069738178005 0 0,0 -0.9317664063142574,-0.5814911506855427 l 23.066703149779705 -36.26468862901089" fill="red" stroke="none" /><path d="M 88.72937992617639 117.7192867562869 l -11.209703209791513 17.62351532800627 a41.886496560411516,41.886496560411516 0 0,0 -0.6033936678067537,-0.391112485476863 l 11.510582509855277 -17.42848900082551" fill="red" stroke="none" /><path d="M 88.4268655584334 117.5232005979908 l -24.149123281504618 36.56485057388936 a64.81972675355433,64.81972675355433 0 0,0 -0.9232295655488538,-0.6211900541276739 l 24.77324913515048 -36.144910845704565" fill="red" stroke="none" /><path d="M 88.1277618465304 117.32195027204791 l -23.595664364515407 34.42677947280076 a62.73677660854655,62.73677660854655 0 0,0 -0.8831094823533928,-0.6164790044213855 l 24.183168938042567 -34.01665565257425" fill="red" stroke="none" /><path d="M 87.54013794807813 116.9041958592261 l -12.394596929111543 16.815651185604136 a41.89000138418021,41.89000138418021 0 0,0 -0.5751836520786774,-0.4316285355914608 l 12.681433570100987 -16.600403622748658" fill="red" stroke="none" /><path d="M 86.13680546590413 115.77377054828092 l -13.812090772386272 15.715623848443556 a41.92258790041055,41.92258790041055 0 0,0 -0.5364793111862716,-0.47972310815835645 l 14.079835110395916 -15.476205210401817" fill="red" stroke="none" /><path d="M 85.86807049272751 115.53346607816431 l -28.09391110608562 30.88012963444015 a62.74745797622257,62.74745797622257 0 0,0 -0.7905290145826874,-0.731701853984825 l 28.619869891982276 -30.393310034322948" fill="red" stroke="none" /><path d="M 84.83555147118756 114.52719865689866 l -45.21539947605994 43.31532988434984 a83.61509524683112,83.61509524683112 0 0,0 -0.9840468096115178,-1.0450236107183664 l 45.95230211940771 -42.53276481368699" fill="red" stroke="none" /><path d="M 84.3458050057657 113.99807769240083 l -15.59823083683323 13.948034197760665 a41.92492444958968,41.92492444958968 0 0,0 -0.4751270553987733,-0.5406073711732248 l 15.835368956190594 -13.67821454877614" fill="red" stroke="none" /><path d="M 83.20337586046588 112.60449989151573 l -16.67784005074396 12.51536209681177 a41.851490046817084,41.851490046817084 0 0,0 -0.4262832951629332,-0.578335159965838 l 16.89022536549072 -12.227220627577053" fill="red" stroke="none" /><path d="M 82.576782715395 111.72311816256416 l -15.61963293021178 10.509586117516086 a39.8261608735303,39.8261608735303 0 0,0 -0.3767849931991445,-0.570500502822072 l 15.797742362331652 -10.239905736354952" fill="red" stroke="none" /><path d="M 82.37810715431573 111.42229804090323 l -17.509246730398257 11.349282189926582 a41.86575968644676,41.86575968644676 0 0,0 -0.3857278012366418,-0.6064281712288588 l 17.70149222326079 -11.04704034401905" fill="red" stroke="none" /><line stroke="#e1ed5e" stroke-width="0.3" x1="26.387840678322732" x2="22.057713659400548" y1="142.50000000000003" y2="145.00000000000006" /><path d="M 25.521815274538298 143.00000000000003 a86.0,86.0 0 0,1 -11.493303480769221,-40.785679425670985" fill="none" id="id105" stroke="none" /><text fill="#e1ed5e" style="font-size:6.75px; font-family:Arial;" text-anchor="middle"><textPath startOffset="21.40746469413373" xlink:href="#id105">September</textPath></text><path d="M 81.4637452351635 109.86951160357371 l -18.43175869547232 9.813873332401807 a41.88161484159084,41.88161484159084 0 0,0 -0.33244415487581913,-0.6375055013792725 l 18.59751091932309 -9.496021587918031" fill="red" stroke="none" /><path d="M 81.29705330413844 109.54985784667822 l -18.66688894850447 9.531446503956074 a41.959513722259274,41.959513722259274 0 0,0 -0.32204943158795535,-0.6443145955375472 l 18.827758293304164 -9.209600052254775" fill="red" stroke="none" /><path d="M 81.1358732173502 109.22738970284198 l -45.00190146055202 22.012685078396053 a71.09719991602199,71.09719991602199 0 0,0 -0.5268666194239917,-1.1009485976603925 l 45.37314733793592 -21.236923978670557" fill="red" stroke="none" /><path d="M 80.68587082218212 108.24405325689762 l -31.458034089228676 13.427564142356145 a55.20390895140732,55.20390895140732 0 0,0 -0.36454073581529317,-0.8747650595615144 l 31.683900669580453 -12.88556657335335" fill="red" stroke="none" /><path d="M 80.41425534168474 107.57618678355246 l -31.18557668597965 12.063251004626558 a54.437437372468324,54.437437372468324 0 0,0 -0.3296557945500602,-0.8744511605084889 l 31.38806316434415 -11.526131563923924" fill="red" stroke="none" /><path d="M 79.56144815229197 104.8234425847677 l -20.662941284478777 4.8763978808648405 a42.23055342703813,42.23055342703813 0 0,0 -0.1604542606612529,-0.7069910782714379 l 20.743606406697698 -4.520972468654376" fill="red" stroke="none" /><path d="M 79.48165901384964 104.47187691870673 l -24.501925605634607 5.340080645587525 a46.07709751317786,46.07709751317786 0 0,0 -0.1618014594852672,-0.7742785564246883 l 24.58998477594424 -4.918685637877427" fill="red" stroke="none" /><path d="M 79.2786578344484 103.40968896794605 l -41.52195114763325 6.83242126038755 a63.08033278606335,63.08033278606335 0 0,0 -0.16664774944725316,-1.069998096480609 l 41.633120389218774 -6.11863498197549" fill="red" stroke="none" /><path d="M 79.22317932658666 103.0534771498775 l -20.71236779346794 3.044004796082341 a41.93485478360097,41.93485478360097 0 0,0 -0.09855785862055162,-0.7131155684359749 l 20.761570168643708 -2.6880009194462806" fill="red" stroke="none" /><line stroke="#e1ed5e" stroke-width="0.3" x1="15.003131293944662" x2="10.003315487706104" y1="100.72959589197737" y2="100.7725132973878" /><path d="M 14.003168132696942 100.73817937305945 a86.0,86.0 0 0,1 10.791469493833604,-42.45332614584628" fill="none" id="id106" stroke="none" /><text fill="#e1ed5e" style="font-size:6.75px; font-family:Arial;" text-anchor="middle"><textPath startOffset="22.145653131862435" xlink:href="#id106">October</textPath></text><path d="M 79.22317932658666 96.9465228501225 l -19.645964347078532 -2.8872802130826134 a40.85699630245066,40.85699630245066 0 0,0 0.1079373900272516,-0.6930354730340941 l 19.59350546491301 3.2241038680481577" fill="red" stroke="none" /><path d="M 79.56144815229197 95.17655741523228 l -21.521447120776745 -5.079002920640975 a43.1126424662515,43.1126424662515 0 0,0 0.17617154706892968,-0.71884003072908 l 21.43108804719152 5.447698775978172" fill="red" stroke="none" /><path d="M 79.64726062577567 94.8264132398404 l -22.250039946876452 -5.65587314639159 a43.9576387872462,43.9576387872462 0 0,0 0.1921796971264479,-0.7297376125225282 l 22.149670768945278 6.036991263286903" fill="red" stroke="none" /><path d="M 79.94057633289273 93.78553927170692 l -29.107320173492976 -9.017522194350772 a51.47214784369228,51.47214784369228 0 0,0 0.2687220742094401,-0.8417680700923232 l 28.94823338350628 9.515859298134485" fill="red" stroke="none" /><path d="M 80.16572619554312 93.10060997987247 l -31.546935698851602 -10.973661827606364 a54.4010539638219,54.4010539638219 0 0,0 0.3143858408799854,-0.8793931503215546 l 31.353909687927676 11.51358993430884" fill="red" stroke="none" /><path d="M 80.5471966667186 92.08871423366112 l -20.104739104057206 -8.176422368788439 a42.70378808399656,42.70378808399656 0 0,0 0.281995797506734,-0.6766872570506474 l 19.961417462013994 8.52034213528035" fill="red" stroke="none" /><path d="M 80.9802524753101 91.09779779509293 l -37.81292117440598 -17.69835639594077 a62.74983624949417,62.74983624949417 0 0,0 0.4650083847638446,-0.9716886783713573 l 37.50353353168223 18.344857576377215" fill="red" stroke="none" /><path d="M 81.29705330413844 90.45014215332179 l -23.650921839717256 -12.076329210849659 a47.55567417854865,47.55567417854865 0 0,0 0.37748319809623154,-0.7238738053748589 l 23.440130572646083 12.480549259329004" fill="red" stroke="none" /><path d="M 81.46374523516351 90.13048839642627 l -22.986986903429628 -12.239275778889914 a47.04230094462021,47.04230094462021 0 0,0 0.3856452796385978,-0.7095438784019422 l 22.77349627417568 12.632074490766476" fill="red" stroke="none" /><line stroke="#e1ed5e" stroke-width="0.3" x1="26.387840678322718" x2="22.05771365940052" y1="57.49999999999999" y2="54.99999999999999" /><path d="M 25.521815274538284 56.99999999999999 a86.0,86.0 0 0,1 29.574782752854787,-30.34633250058573" fill="none" id="id107" stroke="none" /><text fill="#e1ed5e" style="font-size:6.75px; font-family:Arial;" text-anchor="middle"><textPath startOffset="21.40746469413373" xlink:href="#id107">November</textPath></text><path d="M 82.576782715395 88.27688183743585 l -17.43452567461725 -11.730726952041806 a42.013629870211574,42.013629870211574 0 0,0 0.4077528076758016,-0.5949235322392842 l 17.230583130126135 12.028285219351124" fill="red" stroke="none" /><path d="M 83.2033758604659 87.39550010848427 l -17.968590809913334 -13.483965529785639 a43.46525277183743,43.46525277183743 0 0,0 0.4529659344243742,-0.5929469485633385 l 17.734472898134655 13.790433391589861" fill="red" stroke="none" /><path d="M 83.8745106332314 86.54754324733833 l -16.09337549408677 -13.42566621790103 a41.95817855129977,41.95817855129977 0 0,0 0.46614624577892466,-0.5491191054195101 l 15.860534684800733 13.699952105770096" fill="red" stroke="none" /><path d="M 84.10781606972428 86.27271002978789 l -22.114044578789436 -19.10158501053626 a50.2215933437489,50.2215933437489 0 0,0 0.5691515983896682,-0.6475900412495683 l 21.782881916441177 19.47838732959713" fill="red" stroke="none" /><path d="M 86.13680546590413 84.22622945171909 l -13.791322409291231 -15.691993263637205 a41.89112793467729,41.89112793467729 0 0,0 0.5442266341171298,-0.47009000454657957 l 13.519916295411253 15.926427400648494" fill="red" stroke="none" /><path d="M 88.12776184653039 82.6780497279521 l -7.548317908000906 -11.013221411986992 a34.35170959501801,34.35170959501801 0 0,0 0.4892725642897216,-0.32920441679489965 l 7.358149055614195 11.141175502839001" fill="red" stroke="none" /><line stroke="#e1ed5e" stroke-width="0.3" x1="56.869717070023135" x2="54.33264160355391" y1="26.7553504044142" y2="22.446841604673864" /><path d="M 56.362301976729285 25.89364864446614 a86.0,86.0 0 0,1 42.16139366436587,-11.88097634709845" fill="none" id="id108" stroke="none" /><text fill="#e1ed5e" style="font-size:6.75px; font-family:Arial;" text-anchor="middle"><textPath startOffset="22.145653131862474" xlink:href="#id108">December</textPath></text><path d="M 89.65649057296885 81.72400993836675 l -10.290049110571431 -18.18153080491751 a41.891461727417166,41.891461727417166 0 0,0 0.6288822274383074,-0.34883037050082777 l 9.97642269497702 18.355494090851483" fill="red" stroke="none" /><path d="M 89.97174638481275 81.54914285379989 l -9.968911063665157 -18.341673535290322 a41.875731744550535,41.875731744550535 0 0,0 0.6345393422970328,-0.33785645920257595 l 9.652582905581562 18.510100462215473" fill="red" stroke="none" /><path d="M 90.61103034731259 81.2157712731953 l -9.36456324023296 -18.735399552688268 a41.94541097899953,41.94541097899953 0 0,0 0.6468376874304739,-0.316400726372117 l 9.041565303540432 18.893394029157598" fill="red" stroke="none" /><path d="M 91.92203290615298 80.6158196554323 l -8.002126428538242 -19.202190356651396 a41.80283975498023,41.80283975498023 0 0,0 0.6647558021784064,-0.27035039761429197 l 7.671316165169395 19.33672801084498" fill="red" stroke="none" /><path d="M 92.25597844496254 80.48000691201159 l -10.248136530890804 -25.83199863611202 a48.79058214381037,48.79058214381037 0 0,0 0.7811784307541412,-0.3021765986397189 l 9.803185837643133 26.00411512288978" fill="red" stroke="none" /><path d="M 92.93061703081487 80.22567764915836 l -7.029825074551938 -19.663671879165832 a41.88249104753301,41.88249104753301 0 0,0 0.6790831644791319,-0.2362203756000944 l 6.691236138027801 19.781450687334512" fill="red" stroke="none" /><path d="M 93.61358852112211 79.99465700312896 l -12.726195423336282 -39.86462590628206 a62.846677868150536,62.846677868150536 0 0,0 1.030563915085606,-0.31927133523767104 l 12.039990875379061 40.07721382932637" fill="red" stroke="none" /><path d="M 94.30408787586887 79.78721728523814 l -6.001455731706188 -21.297049187840784 a43.12649486495633,43.12649486495633 0 0,0 0.7142950965012823,-0.19468430488062646 l 5.634979234270228 21.396933986865548" fill="red" stroke="none" /><path d="M 94.6519064749342 79.69241777938228 l -5.374091612694338 -20.406301193952938 a42.10208494627857,42.10208494627857 0 0,0 0.7004878868764393,-0.1780612816074188 l 5.02299843259252 20.49554770739562" fill="red" stroke="none" /><path d="M 97.48249496171623 79.15144685158666 l -1.6952104384999327 -14.038774257589806 a35.14075390799109,35.14075390799109 0 0,0 0.5995081198054579,-0.0671761352784759 l 1.4539664170936755 14.065806153375252" fill="red" stroke="none" /><path d="M 97.84075906011542 79.11130261209362 l -2.159591299096078 -20.89208679545739 a42.00340746755289,42.00340746755289 0 0,0 0.7178591085438967,-0.06798200393440859 l 1.800632627167166 20.926080554896984" fill="red" stroke="none" /><path d="M 99.27912038922189 79.0123766808444 l -0.5742357609495267 -16.71824763387143 a37.72810660704316,37.72810660704316 0 0,0 0.6474622526903788,-0.016676330922581212 l 0.287160194188404 16.725641682144058" fill="red" stroke="none" /><path d="M 99.63950707515114 79.00309439819443 l -0.3605865147874836 -21.00235674653313 a42.00545194808463,42.00545194808463 0 0,0 0.7210794396363306,-0.0061895997459321655 l 5.144851898573075e-15 21.005451948084627" fill="red" stroke="none" /></svg>