<?xml version="1.0" encoding="utf-8" ?>
<svg baseProfile="full" height="200mm" version="1.1" viewBox="0,0,200,200" width="200mm" xmlns="http://www.w3.org/2000/svg" xmlns:ev="http://www.w3.org/2001/xml-events" xmlns:xlink="http://www.w3.org/1999/xlink"><defs /><rect fill="#1a1a1a" height="200" width="200" x="0" y="0" /><text alignment-baseline="middle" fill="#e1ed5e" style="dominant-baseline: central; font-size:9.0px; font-family:Arial;" text-anchor="middle" x="100.0" y="100.0">2019</text><line stroke="#e1ed5e" stroke-width="0.3" x1="100.0" x2="100.0" y1="15.0" y2="10.0" /><path d="M 100.0 14.0 a86.0,86.0 0 0,1 42.46469731375804,11.215312516191453" fill="none" id="id37" stroke="none" /><text fill="#e1ed5e" style="font-size:6.75px; font-family:Arial;" text-anchor="middle"><textPath startOffset="22.20632615414155" xlink:href="#id37">January</textPath></text><line stroke="#e1ed5e" stroke-width="0.3" x1="143.23703022742887" x2="145.7803849466894" y1="26.81831364943548" y2="22.513508569990506" /><path d="M 143.74570117128098 25.957352633546492 a86.0,86.0 0 0,1 28.547481713284135,27.462654790039103" fill="none" id="id38" stroke="none" /><text fill="#e1ed5e" style="font-size:6.75px; font-family:Arial;" text-anchor="middle"><textPath startOffset="19.985693538727396" xlink:href="#id38">February</textPath></text><line stroke="#e1ed5e" stroke-width="0.3" x1="172.23445277983987" x2="176.4835382374775" y1="55.19839476539836" y2="52.563006222186495" /><path d="M 173.08426987136738 54.67131705675599 a86.0,86.0 0 0,1 12.851231095245387,41.99856678651699" fill="none" id="id39" stroke="none" /><text fill="#e1ed5e" style="font-size:6.75px; font-family:Arial;" text-anchor="middle"><textPath startOffset="22.20632615414155" xlink:href="#id39">March</textPath></text><line stroke="#e1ed5e" stroke-width="0.3" x1="184.98032266829074" x2="189.97916517819016" y1="98.17113171792111" y2="98.06355123074" /><path d="M 185.9800911702706 98.14961562048488 a86.0,86.0 0 0,1 -9.607161424134198,41.387399972396054" fill="none" id="id40" stroke="none" /><text fill="#e1ed5e" style="font-size:6.75px; font-family:Arial;" text-anchor="middle"><textPath startOffset="21.466115282336823" xlink:href="#id40">April</textPath></text><line stroke="#e1ed5e" stroke-width="0.3" x1="174.80103733775053" x2="179.2010983576182" y1="140.37084112569926" y2="142.7455964860345" /><path d="M 175.68104954172406 140.8457921977663 a86.0,86.0 0 0,1 -30.038265399797805,32.042727171017184" fill="none" id="id41" stroke="none" /><text fill="#e1ed5e" style="font-size:6.75px; font-family:Arial;" text-anchor="middle"><textPath startOffset="22.206326154141568" xlink:href="#id41">May</textPath></text><line stroke="#e1ed5e" stroke-width="0.3" x1="143.8653032363475" x2="146.44561519142675" y1="172.8068346515853" y2="177.08958963109032" /><path d="M 144.38136562736335 173.6633856474863 a86.0,86.0 0 0,1 -40.68145358897372,12.25698825130547" fill="none" id="id42" stroke="none" /><text fill="#e1ed5e" style="font-size:6.75px; font-family:Arial;" text-anchor="middle"><textPath startOffset="21.466115282336833" xlink:href="#id42">June</textPath></text><line stroke="#e1ed5e" stroke-width="0.3" x1="102.19456741930631" x2="102.32365962044197" y1="184.97166512339345" y2="189.96999836594603" /><path d="M 102.22038585953345 185.97133177190398 a86.0,86.0 0 0,1 -42.740103519485714,-10.115201625700543" fill="none" id="id43" stroke="none" /><text fill="#e1ed5e" style="font-size:6.75px; font-family:Arial;" text-anchor="middle"><textPath startOffset="22.20632615414155" xlink:href="#id43">July</textPath></text><path d="M 91.40352486487194 119.15986991738527 l -8.19671818389058 18.268889479021404 a41.023449048124085,41.023449048124085 0 0,0 -0.6417864731577788,-0.29461269218802005 l 8.509972652815778 -18.125089716499307" fill="red" stroke="none" /><path d="M 90.42595943632237 118.69057910512821 l -6.747921943389443 13.173389859725436 a35.80110303154443,35.80110303154443 0 0,0 -0.5460675714566637,-0.2856767446388553 l 6.973680417372602 -13.055283696141863" fill="red" stroke="none" /><line stroke="#e1ed5e" stroke-width="0.3" x1="58.666819895761336" x2="56.23545636021788" y1="174.27360380694188" y2="178.64263932499728" /><path d="M 58.180547188652646 175.14741091055294 a86.0,86.0 0 0,1 -31.652253787137756,-30.449443065178592" fill="none" id="id44" stroke="none" /><text fill="#e1ed5e" style="font-size:6.75px; font-family:Arial;" text-anchor="middle"><textPath startOffset="22.20632615414155" xlink:href="#id44">August</textPath></text><path d="M 89.1626897886671 117.98757091392108 l -11.056399929446881 18.351212054041348 a42.42454114449748,42.42454114449748 0 0,0 -0.6222686240872762,-0.3822482130501392 l 11.370647753466466 -18.15817537416283" fill="red" stroke="none" /><path d="M 87.65650970185807 116.9893568818739 l -10.474808725986035 14.41733735084087 a38.82080902018605,38.82080902018605 0 0,0 -0.5372338362750778,-0.3974327486292155 l 10.721427532679677 -14.234894653471889" fill="red" stroke="none" /><path d="M 87.07902340077011 116.55440617244103 l -26.168212107530074 33.52681654577577 a63.530256907274705,63.530256907274705 0 0,0 -0.8562744382545434,-0.6802762006184465 l 26.741444038501974 -33.0714064311522" fill="red" stroke="none" /><path d="M 85.18274418774928 114.88116024355367 l -24.716660149593505 24.823259113030566 a56.03009394710723,56.03009394710723 0 0,0 -0.677588935089862,-0.6863940138595123 l 25.1402897097389 -24.394124605190388" fill="red" stroke="none" /><path d="M 84.67929136418377 114.36230785411682 l -9.462780457867208 8.870827670078508 a33.9705742951507,33.9705742951507 0 0,0 -0.39624829504976766,-0.43004926428778695 l 9.614075160912705 -8.706627150989377" fill="red" stroke="none" /><path d="M 83.95833913139862 113.55231037782056 l -13.807323406552083 11.6646981771567 a39.07504808340171,39.07504808340171 0 0,0 -0.42964690032427905,-0.5175373691493661 l 14.006066306769899 -11.425299550893573" fill="red" stroke="none" /><path d="M 82.05923443525364 110.91462005526583 l -53.82229669423909 32.743860165797486 a84.0,84.0 0 0,0 -0.7408764972070725,-1.2417516244555555 l 54.3779540671444 -31.812546447455823" fill="red" stroke="none" /><line stroke="#e1ed5e" stroke-width="0.3" x1="26.63291911575756" x2="22.317208475507996" y1="142.92168965132927" y2="145.44649492493687" /><path d="M 25.769776987707644 143.4266507060508 a86.0,86.0 0 0,1 -11.730757126820373,-40.83630448921669" fill="none" id="id45" stroke="none" /><text fill="#e1ed5e" style="font-size:6.75px; font-family:Arial;" text-anchor="middle"><textPath startOffset="21.46611528233685" xlink:href="#id45">September</textPath></text><path d="M 80.87730276802145 108.67885076344099 l -40.81967875920946 18.526042423050306 a65.82700549741992,65.82700549741992 0 0,0 -0.4594064057661876,-1.0358401652536604 l 41.13252624970693 -17.82065392130395" fill="red" stroke="none" /><path d="M 79.50377843672027 104.57218783832718 l -10.81637012914373 2.4128581849406388 a32.08222664410306,32.08222664410306 0 0,0 -0.11559678661363891,-0.5400297029070941 l 10.856300954481808 -2.226314662617381" fill="red" stroke="none" /><path d="M 79.18660465613746 102.79330883721812 l -14.050638542277563 1.8856977518699212 a35.176611000416955,35.176611000416955 0 0,0 -0.07537592403949919,-0.6008202776279904 l 14.08101597556391 -1.6435597199545222" fill="red" stroke="none" /><path d="M 79.07016306316243 101.71520430193888 l -14.444205964878433 1.1837055531687344 a35.4926272563822,35.4926272563822 0 0,0 -0.04465892162655369,-0.6093355039158599 l 14.462441445169322 -0.934896912756114" fill="red" stroke="none" /><path d="M 79.04373962182676 101.35467743843564 l -42.49619490161011 2.7470853775292334 a63.584892382006416,63.584892382006416 0 0,0 -0.06120393826018765,-1.0928374321158802 l 42.53718519075783 -2.0151762290779156" fill="red" stroke="none" /><line stroke="#e1ed5e" stroke-width="0.3" x1="15.007084014347285" x2="10.007500721073583" y1="101.09737516637583" y2="101.16192664675087" /><path d="M 14.007167355692545 101.11028546245083 a86.0,86.0 0 0,1 10.666146001902534,-42.60595125391555" fill="none" id="id46" stroke="none" /><text fill="#e1ed5e" style="font-size:6.75px; font-family:Arial;" text-anchor="middle"><textPath startOffset="22.20632615414155" xlink:href="#id46">October</textPath></text><path d="M 79.3925641242962 95.95851677861259 l -41.479510830075874 -8.134866853995911 a63.26968035642833,63.26968035642833 0 0,0 0.21879470165319345,-1.066920668617688 l 41.33333683250769 8.847663178777001" fill="red" stroke="none" /><path d="M 79.81627453868168 94.20196356495316 l -12.425727893506641 -3.5694511995122893 a33.92825183654653,33.92825183654653 0 0,0 0.16607734333837532,-0.5599302402671328 l 12.362444653056558 3.782810826525961" fill="red" stroke="none" /><path d="M 80.02781315780177 93.51064311812611 l -39.89282587716595 -12.961964865880976 a62.94579942795481,62.94579942795481 0 0,0 0.3436921765765962,-1.027595861998077 l 39.66379640681758 13.646733830801375" fill="red" stroke="none" /><path d="M 80.2630227832202 92.82701384747504 l -14.47007355413102 -5.258841619453107 a36.39605286560338,36.39605286560338 0 0,0 0.21906162280306932,-0.586976238525562 l 14.377407342826322 5.507140995008011" fill="red" stroke="none" /><path d="M 81.6062741919709 89.86733742301443 l -11.280172294324732 -6.213976486414785 a33.878501107014245,33.878501107014245 0 0,0 0.28577702836064295,-0.5083654455958497 l 11.171537624671657 6.407225441945418" fill="red" stroke="none" /><line stroke="#e1ed5e" stroke-width="0.3" x1="26.266209847984243" x2="21.928928074336255" y1="57.711370442889674" y2="55.22380399835377" /><path d="M 25.398753493254645 57.213857153982495 a86.0,86.0 0 0,1 29.58750427330803,-30.492523968695096" fill="none" id="id47" stroke="none" /><text fill="#e1ed5e" style="font-size:6.75px; font-family:Arial;" text-anchor="middle"><textPath startOffset="21.46611528233685" xlink:href="#id47">November</textPath></text><path d="M 82.7489923806493 88.02491185347247 l -14.59708317772938 -10.132820157091935 a38.76932417492344,38.76932417492344 0 0,0 0.38526993781137825,-0.5449370045944589 l 14.420500620114122 10.38258366201818" fill="red" stroke="none" /><path d="M 83.39014120810768 87.1503855733568 l -35.17225335288282 -27.20973728695157 a65.46860925579188,65.46860925579188 0 0,0 0.6972279671069348,-0.8854087136171807 l 34.69867130518191 27.811138394521798" fill="red" stroke="none" /><path d="M 83.6137871275137 86.86637796730984 l -20.962144322638267 -16.801251312345485 a47.86435445462456,47.86435445462456 0 0,0 0.5208131985081785,-0.6384553997252499 l 20.669832632053694 17.159590881678817" fill="red" stroke="none" /><path d="M 84.07557802195018 86.31012108654704 l -10.243833045624744 -8.806400269820339 a34.50884159278379,34.50884159278379 0 0,0 0.3911135751231367,-0.4471104271834914 l 10.090727606923764 8.981426253206774" fill="red" stroke="none" /><path d="M 85.05521093208273 85.24692304244772 l -30.70111314489106 -30.307278533722368 a64.14034631822085,64.14034631822085 0 0,0 0.7824028805523077,-0.7790429939363995 l 30.174874464171438 30.831257378308877" fill="red" stroke="none" /><line stroke="#e1ed5e" stroke-width="0.3" x1="56.762969772571076" x2="54.21961505331055" y1="26.818313649435495" y2="22.513508569990535" /><path d="M 56.25429882871897 25.957352633546506 a86.0,86.0 0 0,1 42.265352541879196,-11.944610805530505" fill="none" id="id48" stroke="none" /><text fill="#e1ed5e" style="font-size:6.75px; font-family:Arial;" text-anchor="middle"><textPath startOffset="22.20632615414155" xlink:href="#id48">December</textPath></text><path d="M 90.26544431104013 81.39251694778311 l -7.805727753558517 -14.920552259954084 a37.83901022936605,37.83901022936605 0 0,0 0.5797287953009531,-0.29695960574171915 l 7.5477384706688 15.052704391008309" fill="red" stroke="none" /><path d="M 91.23893434514133 80.91482961587045 l -18.394199374814995 -40.070060307481675 a65.09031984104519,65.09031984104519 0 0,0 1.022283399918743,-0.4586687626976803 l 17.701733856429477 40.38074940069588" fill="red" stroke="none" /><path d="M 93.59665428221793 80.00007090966166 l -13.208337740794406 -41.25434262959439 a64.31721334152121,64.31721334152121 0 0,0 1.0572972777132281,-0.32850741084492446 l 12.496255090370449 41.47559017532184" fill="red" stroke="none" /></svg>