<?xml version="1.0" encoding="utf-8" ?>
<svg baseProfile="full" height="200mm" version="1.1" viewBox="0,0,200,200" width="200mm" xmlns="http://www.w3.org/2000/svg" xmlns:ev="http://www.w3.org/2001/xml-events" xmlns:xlink="http://www.w3.org/1999/xlink"><defs /><rect fill="#1a1a1a" height="200" width="200" x="0" y="0" /><text alignment-baseline="middle" fill="#e1ed5e" style="dominant-baseline: central; font-size:9.0px; font-family:Arial;" text-anchor="middle" x="100.0" y="100.0">2020</text><line stroke="#e1ed5e" stroke-width="0.3" x1="100.0" x2="100.0" y1="15.0" y2="10.0" /><path d="M 100.0 14.0 a86.0,86.0 0 0,1 42.35913384403234,11.155469271406648" fill="none" id="id49" stroke="none" /><text fill="#e1ed5e" style="font-size:6.75px; font-family:Arial;" text-anchor="middle"><textPath startOffset="22.145653131862478" xlink:href="#id49">January</textPath></text><path d="M 103.58742460773223 79.30868818359171 l 10.075578909122825 -58.11326166691902 a79.98023797783254,79.98023797783254 0 0,0 1.3507720196694342,0.24615565856720154 l -11.071685662343313 57.93173783442045" fill="#48faff" stroke="none" /><line stroke="#e1ed5e" stroke-width="0.3" x1="143.13028292997686" x2="145.6673583964461" y1="26.7553504044142" y2="22.446841604673864" /><path d="M 143.63769802327073 25.89364864446614 a86.0,86.0 0 0,1 29.32050498858742,28.57503671076993" fill="none" id="id50" stroke="none" /><text fill="#e1ed5e" style="font-size:6.75px; font-family:Arial;" text-anchor="middle"><textPath startOffset="20.669276256404974" xlink:href="#id50">February</textPath></text><line stroke="#e1ed5e" stroke-width="0.3" x1="172.87174338648825" x2="177.1583165268699" y1="56.24261187166439" y2="53.66864786411523" /><path d="M 173.72905801456457 55.72781907015455 a86.0,86.0 0 0,1 12.242430191666344,42.057860355516425" fill="none" id="id51" stroke="none" /><text fill="#e1ed5e" style="font-size:6.75px; font-family:Arial;" text-anchor="middle"><textPath startOffset="22.145653131862474" xlink:href="#id51">March</textPath></text><path d="M 120.592083275326 95.88100663000786 l 10.553006538831724 -2.110896861951593 a31.762055220561834,31.762055220561834 0 0,0 0.10235504959591875,0.5355648706129127 l -10.5876878807098 1.929429426305366" fill="#ff5607" stroke="none" /><path d="M 120.7213421655516 96.59031103205396 l 10.323335353076777 -1.6987009038589582 a31.462162184407966,31.462162184407966 0 0,0 0.08311780057594537,0.5336759043845628 l -10.350974645790988 1.5212368175429543" fill="#ff5107" stroke="none" /><path d="M 120.77682067341334 96.94652285012252 l 10.441008876370608 -1.5344687489391504 a31.55316353980742,31.55316353980742 0 0,0 0.07415817336760173,0.5365716006352382 l -10.465811566293423 1.3550088401038265" fill="#ff5307" stroke="none" /><path d="M 120.98066250479742 99.09900007780936 l 21.960232851283216 -0.9430668877005322 a42.98047319866558,42.98047319866558 0 0,0 0.025328419469384116,0.7374092971213785 l -21.97318595774945 0.5659513260150336" fill="#fff316" stroke="none" /><line stroke="#e1ed5e" stroke-width="0.3" x1="184.99686870605535" x2="189.99668451229388" y1="99.2704041080226" y2="99.22748670261217" /><path d="M 185.99683186730306 99.26182062694052 a86.0,86.0 0 0,1 -10.086455211305974,41.156179273409016" fill="none" id="id52" stroke="none" /><text fill="#e1ed5e" style="font-size:6.75px; font-family:Arial;" text-anchor="middle"><textPath startOffset="21.40746469413373" xlink:href="#id52">April</textPath></text><path d="M 120.9064616781168 101.97986365728391 l 9.7938384221372 0.9274866811918075 a30.837657372704086,30.837657372704086 0 0,0 -0.05443229429886914,0.5265830703447669 l -9.776473735356666 -1.0954742738195058" fill="#ff4806" stroke="none" /><path d="M 118.5362547648365 109.86951160357373 l 7.171378785151151 3.81835527357654 a29.124562183611236,29.124562183611236 0 0,0 -0.23875851525361488,0.43928877613462913 l -7.104774920282197 -3.9408988831857723" fill="#ff2e04" stroke="none" /><line stroke="#e1ed5e" stroke-width="0.3" x1="174.33088141563837" x2="178.70328620479359" y1="141.23008692659167" y2="143.65538615756765" /><path d="M 175.20536237346943 141.71514677278685 a86.0,86.0 0 0,1 -30.301960400862466,31.631185727798858" fill="none" id="id53" stroke="none" /><text fill="#e1ed5e" style="font-size:6.75px; font-family:Arial;" text-anchor="middle"><textPath startOffset="22.145653131862474" xlink:href="#id53">May</textPath></text><path d="M 116.35404254752997 113.17365903436017 l 6.773822318355365 5.456511765944405 a29.698171615491326,29.698171615491326 0 0,0 -0.32321959931036426,0.3942753563869317 l -6.679155899806374 -5.5719894040298295" fill="#ff3705" stroke="none" /><path d="M 116.1254893667686 113.45245675266167 l 8.995175237695166 7.504095107778808 a32.714291312044196,32.714291312044196 0 0,0 -0.3634486673386611,0.4281416162462676 l -8.865032006849392 -7.657403506474632" fill="#ff6409" stroke="none" /><path d="M 115.89218393027572 113.72728997021213 l 8.125473393232816 7.018590390314917 a31.737035388372124,31.737035388372124 0 0,0 -0.3596696802470191,0.40923807246855565 l -8.003792649027213 -7.157040740594766" fill="#ff5507" stroke="none" /><path d="M 115.6541949942343 113.99807769240083 l 10.541265581228291 9.426064683403537 a35.14103869840174,35.14103869840174 0 0,0 -0.4059665134779398,0.4462283131779756 l -10.377901366908471 -9.605630572139184" fill="#ff870c" stroke="none" /><path d="M 114.39649973595853 115.28858382429668 l 9.768811571476927 10.37413936119803 a35.249647258952756,35.249647258952756 0 0,0 -0.44409558268586274,0.41104824137194945 l -9.589286217477097 -10.540305348702358" fill="#ff880c" stroke="none" /><path d="M 112.7482090630111 116.68781488649013 l 6.456350334076696 8.451569838936422 a31.635482705488833,31.635482705488833 0 0,0 -0.43438080392823086,0.32596745337076705 l -6.3103165412376985 -8.561156319571204" fill="#ff5407" stroke="none" /><line stroke="#e1ed5e" stroke-width="0.3" x1="143.1302829299769" x2="145.66735839644613" y1="173.24464959558577" y2="177.55315839532614" /><path d="M 143.63769802327073 174.10635135553383 a86.0,86.0 0 0,1 -40.68552437913181,11.842963189579606" fill="none" id="id54" stroke="none" /><text fill="#e1ed5e" style="font-size:6.75px; font-family:Arial;" text-anchor="middle"><textPath startOffset="21.407464694133747" xlink:href="#id54">June</textPath></text><path d="M 108.4095320186766 119.2426549942271 l 2.774208239164451 6.347931360487844 a27.92765933860153,27.92765933860153 0 0,0 -0.4409443937747249,0.18821294152801912 l -2.664828770219295 -6.394618951675267" fill="#ff1c02" stroke="none" /><path d="M 108.07796709384702 119.3841803445677 l 5.464386959781187 13.112539463249812 a35.20556989428831,35.20556989428831 0 0,0 -0.559844905116462,0.22768404909680023 l -5.238487593474284 -13.204410768925904" fill="#ff880c" stroke="none" /><path d="M 107.407793817531 119.65005319985036 l 5.196775800703046 13.785065225471572 a35.73209089006983,35.73209089006983 0 0,0 -0.5758155805371604,0.21144745705010287 l -4.959371068511758 -13.872243531530396" fill="#ff8f0d" stroke="none" /><path d="M 107.06938296918513 119.77432235084164 l 4.7923659724333145 13.40510055476943 a35.23599285252758,35.23599285252758 0 0,0 -0.571316770597548,0.1987336296883481 l -4.561543429790745 -13.485392617026367" fill="#ff880c" stroke="none" /><path d="M 104.64783097203109 120.47920084513623 l 3.1091730785125993 13.699590264859626 a35.0479795934214,35.0479795934214 0 0,0 -0.5878674111604093,0.12812296613076865 l -2.873543250733054 -13.750944689124113" fill="#ff860c" stroke="none" /><path d="M 103.94208987418118 120.62667999033965 l 2.6279386311890542 13.750485379546825 a34.99935390017792,34.99935390017792 0 0,0 -0.5910978655498785,0.10771772160909285 l -2.3915060320881185 -13.793571275087281" fill="#ff850c" stroke="none" /><path d="M 101.80034050326958 120.92268563240118 l 1.3955770221980117 16.21872043550826 a37.27865251763979,37.27865251763979 0 0,0 -0.6380525498971408,0.049389302688390674 l -1.116955477525635 -16.240287505191706" fill="#ffa50f" stroke="none" /><path d="M 101.44090949804482 120.95050786540614 l 0.9680608723778131 14.075392624216356 a35.1086434280009,35.1086434280009 0 0,0 -0.6016211250730255,0.036192032927350196 l -0.7262953951723226 -14.089936634968398" fill="#ff860c" stroke="none" /><path d="M 101.08105385017728 120.97215588758144 l 0.7325991655937519 14.212228097078322 a35.23109725287587,35.23109725287587 0 0,0 -0.6042539836310843,0.02594926600198827 l -0.4885194213618381 -14.22270993150614" fill="#ff880c" stroke="none" /><path d="M 100.72087961077811 120.9876233191556 l 0.5003446299192372 14.566987976220515 a35.57557832293601,35.57557832293601 0 0,0 -0.6105221319914093,0.015724884449004786 l -0.2502091838570842 -14.573430578019567" fill="#ff8d0d" stroke="none" /><line stroke="#e1ed5e" stroke-width="0.3" x1="101.45913802915013" x2="101.54496967792366" y1="184.9874750549273" y2="189.98673829345242" /><path d="M 101.47630435890484 185.9873277026323 a86.0,86.0 0 0,1 -42.54439059252881,-10.42667462771756" fill="none" id="id55" stroke="none" /><text fill="#e1ed5e" style="font-size:6.75px; font-family:Arial;" text-anchor="middle"><textPath startOffset="22.145653131862474" xlink:href="#id55">July</textPath></text><path d="M 100.0 121.0 l 2.19543841062778e-15 17.92711508458055 a38.92711508458055,38.92711508458055 0 0,0 -0.6682356939413483,-0.005735999744394573 l 0.307742769092494 -17.92447348303059" fill="#ffbc11" stroke="none" /><path d="M 99.63950707515114 120.99690560180557 l -0.24200907637010327 14.095815426762675 a35.097892783618626,35.097892783618626 0 0,0 -0.6023244411137462,-0.015513741011203742 l 0.48394683155459334 -14.089583968401424" fill="#ff860c" stroke="none" /><path d="M 99.27912038922189 120.98762331915562 l -1.2183521869391414 35.47099458389172 a56.491912301563794,56.491912301563794 0 0,0 -0.9689015021628505,-0.04160879942945381 l 1.8270794497028306 -35.44485321603644" fill="#67ff28" stroke="none" /><path d="M 98.19965949673042 120.92268563240118 l -1.5073392336842522 17.5175667438937 a38.58229837626965,38.58229837626965 0 0,0 -0.6593906539453711,-0.06244498049450508 l 1.8078294510146387 -17.48911000789401" fill="#ffb711" stroke="none" /><path d="M 96.76829788921471 120.74984581791261 l -5.647739444325072 36.26253864747828 a57.69970939926965,57.69970939926965 0 0,0 -0.9773849857438486,-0.16082832746554038 l 6.269401933121984 -36.16024432151707" fill="#5aff2a" stroke="none" /><path d="M 96.41257539226777 120.69131181640829 l -0.9042223908879361 5.215314462891989 a26.293120353726472,26.293120353726472 0 0,0 -0.4440598350489772,-0.08092249435731957 l 0.9936169594879705 -5.1990237946033035" fill="#ff0200" stroke="none" /><path d="M 92.59220618246901 119.65005319985036 l -5.221294559535665 13.850104146278893 a35.80159794549928,35.80159794549928 0 0,0 -0.5732138226824558,-0.22173142064897777 l 5.45828064471165 -13.758432837491876" fill="#ff900d" stroke="none" /><path d="M 91.59046798132341 119.24265499422711 l -25.22859605602977 57.72796498268131 a84.0,84.0 0 0,0 -1.3163463885774596,-0.5887849963605802 l 26.215855847462862 -57.28637623541087" fill="#4dd2ff" stroke="none" /><line stroke="#e1ed5e" stroke-width="0.3" x1="58.13341422392154" x2="55.67067388415222" y1="173.97424548756322" y2="178.32567169271397" /><path d="M 57.64086615596768 174.84453072859336 a86.0,86.0 0 0,1 -31.369924170532247,-30.572349798747897" fill="none" id="id56" stroke="none" /><text fill="#e1ed5e" style="font-size:6.75px; font-family:Arial;" text-anchor="middle"><textPath startOffset="22.145653131862474" xlink:href="#id56">August</textPath></text><path d="M 89.34428304082925 118.09573695890944 l -25.367159044595248 43.07898184840106 a70.99291384875119,70.99291384875119 0 0,0 -1.0448373422471227,-0.627394803404186 l 26.1029291433998 -42.63717304446095" fill="#3cffa2" stroke="none" /><path d="M 88.72937992617639 117.7192867562869 l -11.041098329770584 17.358440452087162 a41.57234326119217,41.57234326119217 0 0,0 -0.598868149393053,-0.3881790991168645 l 11.337452111420648 -17.166347511266405" fill="#ffe015" stroke="none" /><path d="M 88.1277618465304 117.32195027204791 l -3.854513692828224 5.623850671373686 a27.81798886638212,27.81798886638212 0 0,0 -0.39157781250362356,-0.2733517245930073 l 3.9504865965056126 -5.556854130975551" fill="#ff1a02" stroke="none" /><path d="M 86.68645165197938 116.24036423190432 l -4.27926047636088 5.220001983139642 a27.74985117825024,27.74985117825024 0 0,0 -0.365803382348929,-0.305166191803606 l 4.3682381928717025 -5.145773607424165" fill="#ff1902" stroke="none" /><path d="M 85.86807049272751 115.53346607816431 l -4.679452316205133 5.143537814900187 a27.953650496893395,27.953650496893395 0 0,0 -0.3521763668844056,-0.3259691875003356 l 4.767058454403506 -5.062450881267473" fill="#ff1c02" stroke="none" /><path d="M 82.98947788004972 112.3143062007846 l -5.505069613661137 3.9852458614278197 a27.796173631337176,27.796173631337176 0 0,0 -0.276485761439332,-0.3889118487249355 l 5.5726704736304296 -3.8901567859933803" fill="#ff1a02" stroke="none" /><path d="M 82.576782715395 111.72311816256416 l -5.725941517932679 3.852668993915873 a27.901410337276427,27.901410337276427 0 0,0 -0.2639680168410205,-0.3996812215319655 l 5.791233973694426 -3.7538078940448467" fill="#ff1b02" stroke="none" /><line stroke="#e1ed5e" stroke-width="0.3" x1="26.387840678322732" x2="22.057713659400548" y1="142.50000000000003" y2="145.00000000000006" /><path d="M 25.521815274538298 143.00000000000003 a86.0,86.0 0 0,1 -11.493303480769221,-40.785679425670985" fill="none" id="id57" stroke="none" /><text fill="#e1ed5e" style="font-size:6.75px; font-family:Arial;" text-anchor="middle"><textPath startOffset="21.40746469413373" xlink:href="#id57">September</textPath></text><path d="M 81.81346652052679 110.50000000000001 l -5.742134299915442 3.3152227837791677 a27.63044556755833,27.63044556755833 0 0,0 -0.2336307258281574,-0.4128031064745791 l 5.798198390764977 -3.216162907205467" fill="#ff1702" stroke="none" /><path d="M 81.29705330413844 109.54985784667822 l -6.428652717805731 3.282515883675745 a28.218205198852036,28.218205198852036 0 0,0 -0.2165815601409517,-0.4333082025173408 l 6.484054191158419 -3.1716758249946513" fill="#ff2003" stroke="none" /><path d="M 81.1358732173502 109.22738970284198 l -7.796255221821779 3.8135391043242923 a29.67897897128423,29.67897897128423 0 0,0 -0.21993641573825812,-0.45958251966353775 l 7.86057089551995 -3.67914408259565" fill="#ff3605" stroke="none" /><path d="M 80.5471966667186 107.91128576633889 l -6.699850205627284 2.724770752074469 a28.232728975235034,28.232728975235034 0 0,0 -0.17872839996619225,-0.45051232194696955 l 6.745637280559601 -2.609357412913934" fill="#ff2003" stroke="none" /><path d="M 80.28708602549918 107.23885506374661 l -8.149541923787268 2.9926246773324423 a29.681637865457496,29.681637865457496 0 0,0 -0.17153135829377036,-0.4798037377468201 l 8.199713452124982 -2.852285983204701" fill="#ff3605" stroke="none" /><path d="M 80.16572619554312 106.89939002012753 l -45.558234714734716 15.847518947471507 a69.23584359284419,69.23584359284419 0 0,0 -0.38084520403375766,-1.1259011739678637 l 45.82356534034084 -15.063116099029482" fill="#39ff8d" stroke="none" /><path d="M 79.94057633289273 106.21446072829308 l -19.89947404142552 6.164907925391058 a41.83255041644968,41.83255041644968 0 0,0 -0.20662028918227882,-0.6877717430807283 l 20.00237065061143 -5.822398578719607" fill="#ffe315" stroke="none" /><path d="M 79.73907114497094 105.5222062557868 l -25.057734427500066 6.829596945010679 a46.97178178466817,46.97178178466817 0 0,0 -0.20535731777034227,-0.779775184499133 l 25.17128122607514 -6.398441256138743" fill="#d8ff1c" stroke="none" /><path d="M 79.64726062577567 105.17358676015961 l -17.01437189498319 4.324986801520986 a38.55546529756829,38.55546529756829 0 0,0 -0.15754951635712114,-0.6428557906413371 l 17.0861089378566 -4.032275186271549" fill="#ffb711" stroke="none" /><path d="M 79.22317932658666 103.0534771498775 l -8.405744450262064 1.235354966480928 a29.496036820560548,29.496036820560548 0 0,0 -0.06932338842781036,-0.5015895052563307 l 8.425712355245087 -1.0908771530245118" fill="#ff3404" stroke="none" /><path d="M 79.0935383218832 101.97986365728391 l -42.666602267881 4.040571595067452 a63.85749838593491,63.85749838593491 0 0,0 -0.09398113993781487,-1.0922033041652597 l 42.72967703051655 -3.30754724352653" fill="#32ff4b" stroke="none" /><line stroke="#e1ed5e" stroke-width="0.3" x1="15.003131293944662" x2="10.003315487706104" y1="100.72959589197737" y2="100.7725132973878" /><path d="M 14.003168132696942 100.73817937305945 a86.0,86.0 0 0,1 10.791469493833604,-42.45332614584628" fill="none" id="id58" stroke="none" /><text fill="#e1ed5e" style="font-size:6.75px; font-family:Arial;" text-anchor="middle"><textPath startOffset="22.145653131862435" xlink:href="#id58">October</textPath></text><path d="M 79.83685265289637 94.1308016681162 l -4.939632870217471 -1.437855137539493 a26.14464773226327,26.14464773226327 0 0,0 0.12913424166662404,-0.4298458918722654 l 4.914222308547217 1.522438633002482" fill="#ff0000" stroke="none" /><line stroke="#e1ed5e" stroke-width="0.3" x1="26.387840678322718" x2="22.05771365940052" y1="57.49999999999999" y2="54.99999999999999" /><path d="M 25.521815274538284 56.99999999999999 a86.0,86.0 0 0,1 29.574782752854787,-30.34633250058573" fill="none" id="id59" stroke="none" /><text fill="#e1ed5e" style="font-size:6.75px; font-family:Arial;" text-anchor="middle"><textPath startOffset="21.40746469413373" xlink:href="#id59">November</textPath></text><path d="M 84.83555147118756 85.47280134310135 l -15.453129988811893 -14.8037489653393 a42.39977125765371,42.39977125765371 0 0,0 0.5080162893625007,-0.5212694666783362 l 15.19672689829859 15.066841124085368" fill="#ffeb16" stroke="none" /><path d="M 86.13680546590413 84.22622945171909 l -5.078253171628305 -5.778119907236 a28.6925499632794,28.6925499632794 0 0,0 0.3727579241863022,-0.32197941682839243 l 4.978315767679154 5.864443456529104" fill="#ff2703" stroke="none" /><line stroke="#e1ed5e" stroke-width="0.3" x1="56.869717070023135" x2="54.33264160355391" y1="26.7553504044142" y2="22.446841604673864" /><path d="M 56.362301976729285 25.89364864446614 a86.0,86.0 0 0,1 42.16139366436587,-11.88097634709845" fill="none" id="id60" stroke="none" /><text fill="#e1ed5e" style="font-size:6.75px; font-family:Arial;" text-anchor="middle"><textPath startOffset="22.145653131862474" xlink:href="#id60">December</textPath></text><path d="M 91.26138138417902 80.90454125486306 l -3.677190223030149 -8.03532426449719 a29.83675075873286,29.83675075873286 0 0,0 0.4675654655731634,-0.20913608555825214 l 3.538711354601367 8.097264100965287" fill="#ff3905" stroke="none" /></svg>