<?xml version="1.0" encoding="utf-8" ?>
<svg baseProfile="full" height="200mm" version="1.1" viewBox="0,0,200,200" width="200mm" xmlns="http://www.w3.org/2000/svg" xmlns:ev="http://www.w3.org/2001/xml-events" xmlns:xlink="http://www.w3.org/1999/xlink"><defs /><rect fill="#1a1a1a" height="200" width="200" x="0" y="0" /><text alignment-baseline="middle" fill="#e1ed5e" style="dominant-baseline: central; font-size:9.0px; font-family:Arial;" text-anchor="middle" x="100.0" y="100.0">2017</text><line stroke="#e1ed5e" stroke-width="0.3" x1="100.0" x2="100.0" y1="15.0" y2="10.0" /><path d="M 100.0 14.0 a86.0,86.0 0 0,1 42.46469731375804,11.215312516191453" fill="none" id="id13" stroke="none" /><text fill="#e1ed5e" style="font-size:6.75px; font-family:Arial;" text-anchor="middle"><textPath startOffset="22.20632615414155" xlink:href="#id13">January</textPath></text><line stroke="#e1ed5e" stroke-width="0.3" x1="143.23703022742887" x2="145.7803849466894" y1="26.81831364943548" y2="22.513508569990506" /><path d="M 143.74570117128098 25.957352633546492 a86.0,86.0 0 0,1 28.547481713284135,27.462654790039103" fill="none" id="id14" stroke="none" /><text fill="#e1ed5e" style="font-size:6.75px; font-family:Arial;" text-anchor="middle"><textPath startOffset="19.985693538727396" xlink:href="#id14">February</textPath></text><path d="M 115.4437574822437 85.77008943001954 l 6.5311653278691235 -6.017829445987429 a29.88090039246884,29.88090039246884 0 0,0 0.3452757383024457,0.3812620940018221 l -6.633784706787605 5.904514564716058" fill="red" stroke="none" /><line stroke="#e1ed5e" stroke-width="0.3" x1="172.23445277983987" x2="176.4835382374775" y1="55.19839476539836" y2="52.563006222186495" /><path d="M 173.08426987136738 54.67131705675599 a86.0,86.0 0 0,1 12.851231095245387,41.99856678651699" fill="none" id="id15" stroke="none" /><text fill="#e1ed5e" style="font-size:6.75px; font-family:Arial;" text-anchor="middle"><textPath startOffset="22.20632615414155" xlink:href="#id15">March</textPath></text><path d="M 118.3937258080291 89.86733742301442 l 22.16695357373506 -12.211243293858217 a46.30787018936842,46.30787018936842 0 0,0 0.3786041073312978,0.701495910886192 l -22.373865780284824 11.827866399639568" fill="red" stroke="none" /><path d="M 118.56541770881063 90.18545643968196 l 8.664281357928303 -4.580342233069349 a30.800474805915407,30.800474805915407 0 0,0 0.24374992223488745,0.4708472657158027 l -8.741840713323308 4.430522245093201" fill="red" stroke="none" /><path d="M 118.89224826269711 90.83032412892265 l 9.663057544181171 -4.69013027838859 a31.741136026064193,31.741136026064193 0 0,0 0.23434300280930923,0.49358612883316866 l -9.742358740832238 4.523101733914881" fill="red" stroke="none" /><path d="M 119.04729006885535 91.15688171328212 l 11.785080731547016 -5.471479803733197 a33.9932759184026,33.9932759184026 0 0,0 0.24183412671595247,0.5328494418903453 l -11.877517175226314 5.267808353000788" fill="red" stroke="none" /><path d="M 119.196687751892 91.48605970444005 l 11.95795182878315 -5.3034819987321695 a34.0812665002428,34.0812665002428 0 0,0 0.2332283150672532,0.5383231072239283 l -12.047470853693083 5.096859746921639" fill="red" stroke="none" /><path d="M 119.34039704204932 91.81776055985345 l 9.984891362565937 -4.224255155400301 a31.84169669102442,31.84169669102442 0 0,0 0.20921255219566187,0.5066247897325796 l -10.056125601647796 4.051755795214419" fill="red" stroke="none" /><path d="M 119.7369772167798 92.82701384747503 l 8.905838840509064 -3.236638416204908 a30.47574765864801,30.47574765864801 0 0,0 0.1749408328698894,0.49458129230908504 l -8.960232754188764 3.0828594974692085" fill="red" stroke="none" /><path d="M 119.85752413597 93.16781622104841 l 10.370731476493075 -3.568155973745591 a31.967397522224704,31.967397522224704 0 0,0 0.17454611004628082,0.5218706523901525 l -10.430614880311126 3.389112218433124" fill="red" stroke="none" /><path d="M 119.97218684219823 93.5106431181261 l 10.687644358737131 -3.4726261584862037 a32.23765430930531,32.23765430930531 0 0,0 0.16693657725300998,0.5292345694255066 l -10.745836419758346 3.288141422634278" fill="red" stroke="none" /><path d="M 120.37134235888165 94.90015583598534 l 8.594585513882036 -2.1516032671252194 a29.859813585766624,29.859813585766624 0 0,0 0.12053013249520841,0.49967521304454743 l -8.630348446638063 2.0033428224212657" fill="red" stroke="none" /><path d="M 120.78858239683441 97.02765380044208 l 10.680699799049165 -1.527123728319108 a31.78932134469097,31.78932134469097 0 0,0 0.07278846464232708,0.5423586074292873 l -10.705404262749328 1.343046778825156" fill="red" stroke="none" /><path d="M 120.91429891909075 98.10471618934814 l 10.874650856525276 -0.985476481645306 a31.91921220359793,31.91921220359793 0 0,0 0.04487767697077673,0.5476213300308705 l -10.890003017315548 0.7981412344066667" fill="red" stroke="none" /><path d="M 120.96714384426684 98.82574320788733 l 12.891369208260366 -0.7219761530167137 a33.91157037812242,33.91157037812242 0 0,0 0.027624028966929438,0.5830995914529755 l -12.901886845460792 0.49996545494073835" fill="red" stroke="none" /><path d="M 120.98425023603335 99.18683210126433 l 10.890088491008768 -0.42200556491996116 a31.89826206506455,31.89826206506455 0 0,0 0.016538953509444242,0.5488473490175485 l -10.895739138973857 0.2344880684774136" fill="red" stroke="none" /><line stroke="#e1ed5e" stroke-width="0.3" x1="184.98032266829074" x2="189.97916517819016" y1="98.17113171792111" y2="98.06355123074" /><path d="M 185.9800911702706 98.14961562048488 a86.0,86.0 0 0,1 -9.607161424134198,41.387399972396054" fill="none" id="id16" stroke="none" /><text fill="#e1ed5e" style="font-size:6.75px; font-family:Arial;" text-anchor="middle"><textPath startOffset="21.466115282336823" xlink:href="#id16">April</textPath></text><path d="M 120.92983693683757 101.71520430193887 l 7.52729121345077 0.616863012847161 a28.55252494128368,28.55252494128368 0 0,0 -0.0443589358818217,0.4894971610853932 l -7.515557681291872 -0.7463415624811248" fill="red" stroke="none" /><path d="M 120.8583938346157 102.4346265915055 l 41.58192568545732 4.853511866853938 a62.86422244772483,62.86422244772483 0 0,0 -0.1347045301199061,1.073727642025081 l -41.49221964609057 -5.568557263166414" fill="red" stroke="none" /><path d="M 120.64145759157962 103.86396538481128 l 10.761613028025224 2.0145137542024427 a31.948542397544664,31.948542397544664 0 0,0 -0.10584105885366756,0.5396812788436541 l -10.725342036195892 -2.1994587601140414" fill="red" stroke="none" /><path d="M 120.49622156327973 104.57218783832717 l 61.488664689839204 13.716563514981502 a84.0,84.0 0 0,0 -0.3269577362777887,1.4085253706057403 l -61.24344638763086 -14.772957542935806" fill="red" stroke="none" /><path d="M 120.02730092923936 106.31721596034902 l 10.409449226947384 3.283454871290652 a31.915022175891252,31.915022175891252 0 0,0 -0.16976929933501766,0.5224961776811653 l -10.35138767659612 -3.462149948949613" fill="red" stroke="none" /><path d="M 119.12269723197855 108.67885076344098 l 8.029632686671507 3.6442549357698204 a29.817913308699865,29.817913308699865 0 0,0 -0.21614491802159663,0.465556924263913 l -7.965713151810079 -3.7819319273125642" fill="red" stroke="none" /><line stroke="#e1ed5e" stroke-width="0.3" x1="174.80103733775053" x2="179.2010983576182" y1="140.37084112569926" y2="142.7455964860345" /><path d="M 175.68104954172406 140.8457921977663 a86.0,86.0 0 0,1 -30.038265399797805,32.042727171017184" fill="none" id="id17" stroke="none" /><text fill="#e1ed5e" style="font-size:6.75px; font-family:Arial;" text-anchor="middle"><textPath startOffset="22.206326154141568" xlink:href="#id17">May</textPath></text><path d="M 118.12598468904814 110.60418214915192 l 5.401376315689119 3.1599485098478475 a27.257806379920762,27.257806379920762 0 0,0 -0.24041271562267613,0.40294553989717113 l -5.346182724368216 -3.2524561436311226" fill="red" stroke="none" /><path d="M 116.71984013943494 112.70617746262583 l 17.07789656658939 12.97828105136337 a42.44971631950649,42.44971631950649 0 0,0 -0.44712323147151156,0.5779670494950805 l -16.85196651789981 -13.270326094971702" fill="red" stroke="none" /><path d="M 116.0416608686014 113.55231037782055 l 33.470529856639146 28.2765614385433 a64.81598219453589,64.81598219453589 0 0,0 -0.7273510335080674,0.8460735742790919 l -32.9788363135603 -28.84851211198392" fill="red" stroke="none" /><path d="M 114.0293411484842 115.62618273729858 l 3.562426312536939 3.9679072565626132 a26.3324637109818,26.3324637109818 0 0,0 -0.3398864597938757,0.29991028284704013 l -3.4935974998364756 -4.028640681181942" fill="red" stroke="none" /><line stroke="#e1ed5e" stroke-width="0.3" x1="143.8653032363475" x2="146.44561519142675" y1="172.8068346515853" y2="177.08958963109032" /><path d="M 144.38136562736335 173.6633856474863 a86.0,86.0 0 0,1 -40.68145358897372,12.25698825130547" fill="none" id="id18" stroke="none" /><text fill="#e1ed5e" style="font-size:6.75px; font-family:Arial;" text-anchor="middle"><textPath startOffset="21.466115282336833" xlink:href="#id18">June</textPath></text><path d="M 107.59598834532513 119.57807347666477 l 6.372535234313325 16.42471754538761 a38.61762049081341,38.61762049081341 0 0,0 -0.6217984519677251,0.2351109693556439 l -6.088866561585325 -16.531976764849887" fill="red" stroke="none" /><path d="M 106.91757812671514 119.82793768551818 l 1.648957213423395 4.726425965118871 a26.005812850621854,26.005812850621854 0 0,0 -0.4239322313494226,0.1438208298932205 l -1.5673552491367455 -4.7541097819102145" fill="red" stroke="none" /><path d="M 105.88484417918355 120.15858648285463 l 4.749968186844927 16.27105859897316 a37.95020783669797,37.95020783669797 0 0,0 -0.6286521176352171,0.177663367879989 l -4.469184901105105 -16.350410760191668" fill="red" stroke="none" /><line stroke="#e1ed5e" stroke-width="0.3" x1="102.19456741930631" x2="102.32365962044197" y1="184.97166512339345" y2="189.96999836594603" /><path d="M 102.22038585953345 185.97133177190398 a86.0,86.0 0 0,1 -42.740103519485714,-10.115201625700543" fill="none" id="id19" stroke="none" /><text fill="#e1ed5e" style="font-size:6.75px; font-family:Arial;" text-anchor="middle"><textPath startOffset="22.20632615414155" xlink:href="#id19">July</textPath></text><path d="M 97.2962882734958 120.8252237178851 l -0.881205346565381 6.787446421792947 a27.84441025885542,27.84441025885542 0 0,0 -0.47477558137905784,-0.06579956941418427 l 0.9979095191312698 -6.771272286886158" fill="red" stroke="none" /><path d="M 92.7421414339146 119.70592522655815 l -5.621288190156157 15.262447420754578 a37.26472201385831,37.26472201385831 0 0,0 -0.6000148679988254,-0.22687428184579295 l 5.883173278915265 -15.163424888802151" fill="red" stroke="none" /><line stroke="#e1ed5e" stroke-width="0.3" x1="58.666819895761336" x2="56.23545636021788" y1="174.27360380694188" y2="178.64263932499728" /><path d="M 58.180547188652646 175.14741091055294 a86.0,86.0 0 0,1 -31.652253787137756,-30.449443065178592" fill="none" id="id20" stroke="none" /><text fill="#e1ed5e" style="font-size:6.75px; font-family:Arial;" text-anchor="middle"><textPath startOffset="22.20632615414155" xlink:href="#id20">August</textPath></text><path d="M 85.70375840098266 115.38237550388516 l -12.0681907647806 12.98505209992633 a38.72717705594822,38.72717705594822 0 0,0 -0.4843924594190351,-0.4580233046335826 l 12.289919058590451 -12.775394158546815" fill="red" stroke="none" /><path d="M 83.95833913139862 113.55231037782056 l -5.196359913482354 4.389986981972494 a27.802509981788656,27.802509981788656 0 0,0 -0.30570051275213733,-0.36823596073413356 l 5.2711564261280275 -4.2998897641245994" fill="red" stroke="none" /><line stroke="#e1ed5e" stroke-width="0.3" x1="26.63291911575756" x2="22.317208475507996" y1="142.92168965132927" y2="145.44649492493687" /><path d="M 25.769776987707644 143.4266507060508 a86.0,86.0 0 0,1 -11.730757126820373,-40.83630448921669" fill="none" id="id21" stroke="none" /><text fill="#e1ed5e" style="font-size:6.75px; font-family:Arial;" text-anchor="middle"><textPath startOffset="21.46611528233685" xlink:href="#id21">September</textPath></text><path d="M 81.02952815118164 109.00673069616217 l -15.439128369496975 7.3301324561517465 a38.090860909694854,38.090860909694854 0 0,0 -0.2761140903275794,-0.5947251863029668 l 15.563017076664382 -7.063287202569953" fill="red" stroke="none" /><line stroke="#e1ed5e" stroke-width="0.3" x1="15.007084014347285" x2="10.007500721073583" y1="101.09737516637583" y2="101.16192664675087" /><path d="M 14.007167355692545 101.11028546245083 a86.0,86.0 0 0,1 10.666146001902534,-42.60595125391555" fill="none" id="id22" stroke="none" /><text fill="#e1ed5e" style="font-size:6.75px; font-family:Arial;" text-anchor="middle"><textPath startOffset="22.20632615414155" xlink:href="#id22">October</textPath></text><line stroke="#e1ed5e" stroke-width="0.3" x1="26.266209847984243" x2="21.928928074336255" y1="57.711370442889674" y2="55.22380399835377" /><path d="M 25.398753493254645 57.213857153982495 a86.0,86.0 0 0,1 29.58750427330803,-30.492523968695096" fill="none" id="id23" stroke="none" /><text fill="#e1ed5e" style="font-size:6.75px; font-family:Arial;" text-anchor="middle"><textPath startOffset="21.46611528233685" xlink:href="#id23">November</textPath></text><path d="M 86.65592168130627 83.78471172551755 l -10.868248226087692 -13.206740384441627 a38.10370752456612,38.10370752456612 0 0,0 0.5100391755832289,-0.41241620914117166 l 10.639305651939962 13.391862690846933" fill="red" stroke="none" /><line stroke="#e1ed5e" stroke-width="0.3" x1="56.762969772571076" x2="54.21961505331055" y1="26.818313649435495" y2="22.513508569990535" /><path d="M 56.25429882871897 25.957352633546506 a86.0,86.0 0 0,1 42.265352541879196,-11.944610805530505" fill="none" id="id24" stroke="none" /><text fill="#e1ed5e" style="font-size:6.75px; font-family:Arial;" text-anchor="middle"><textPath startOffset="22.20632615414155" xlink:href="#id24">December</textPath></text><path d="M 92.91201910852362 80.23233633223022 l -4.976660922441953 -13.879405264998413 a35.744661557561315,35.744661557561315 0 0,0 0.5809664880125217,-0.20268780009154816 l 4.737012430366145 13.96301391826217" fill="red" stroke="none" /></svg>