<?xml version="1.0" encoding="utf-8" ?>
<svg baseProfile="full" height="200mm" version="1.1" viewBox="0,0,200,200" width="200mm" xmlns="http://www.w3.org/2000/svg" xmlns:ev="http://www.w3.org/2001/xml-events" xmlns:xlink="http://www.w3.org/1999/xlink"><defs /><rect fill="#1a1a1a" height="200" width="200" x="0" y="0" /><text alignment-baseline="middle" fill="#e1ed5e" style="dominant-baseline: central; font-size:9.0px; font-family:Arial;" text-anchor="middle" x="100.0" y="100.0">2020</text><line stroke="#e1ed5e" stroke-width="0.3" x1="100.0" x2="100.0" y1="15.0" y2="10.0" /><path d="M 100.0 14.0 a86.0,86.0 0 0,1 42.35913384403234,11.155469271406648" fill="none" id="id49" stroke="none" /><text fill="#e1ed5e" style="font-size:6.75px; font-family:Arial;" text-anchor="middle"><textPath startOffset="22.145653131862478" xlink:href="#id49">January</textPath></text><path d="M 103.58742460773223 79.30868818359171 l 9.846014080411313 -56.78919273939027 a78.63641561776092,78.63641561776092 0 0,0 1.3280764427458696,0.24201976842228293 l -10.819425256708238 56.611804797036626" fill="red" stroke="none" /><line stroke="#e1ed5e" stroke-width="0.3" x1="143.13028292997686" x2="145.6673583964461" y1="26.7553504044142" y2="22.446841604673864" /><path d="M 143.63769802327073 25.89364864446614 a86.0,86.0 0 0,1 29.32050498858742,28.57503671076993" fill="none" id="id50" stroke="none" /><text fill="#e1ed5e" style="font-size:6.75px; font-family:Arial;" text-anchor="middle"><textPath startOffset="20.669276256404974" xlink:href="#id50">February</textPath></text><line stroke="#e1ed5e" stroke-width="0.3" x1="172.87174338648825" x2="177.1583165268699" y1="56.24261187166439" y2="53.66864786411523" /><path d="M 173.72905801456457 55.72781907015455 a86.0,86.0 0 0,1 12.242430191666344,42.057860355516425" fill="none" id="id51" stroke="none" /><text fill="#e1ed5e" style="font-size:6.75px; font-family:Arial;" text-anchor="middle"><textPath startOffset="22.145653131862474" xlink:href="#id51">March</textPath></text><path d="M 120.592083275326 95.88100663000786 l 15.512790923060205 -3.1029926456602097 a36.82008993595171,36.82008993595171 0 0,0 0.11865485735572817,0.6208523524553891 l -15.563772072698091 2.8362377281715063" fill="red" stroke="none" /><path d="M 120.7213421655516 96.59031103205396 l 15.175177080734073 -2.4970696138026547 a36.37925082986207,36.37925082986207 0 0,0 0.09610793110326311,0.6170818608608235 l -15.215806503975601 2.23619957101039" fill="red" stroke="none" /><path d="M 120.77682067341334 96.94652285012252 l 15.34815572500194 -2.2556503488055286 a36.51302171257993,36.51302171257993 0 0,0 0.08581513517401923,0.6209155693574487 l -15.38461537673117 1.9918464712479942" fill="red" stroke="none" /><path d="M 120.98066250479742 99.09900007780936 l 21.278280225360483 -0.9137809076818558 a42.29789202940542,42.29789202940542 0 0,0 0.024926173963686408,0.725698358111334 l -21.290831086321017 0.5483762850064019" fill="red" stroke="none" /><line stroke="#e1ed5e" stroke-width="0.3" x1="184.99686870605535" x2="189.99668451229388" y1="99.2704041080226" y2="99.22748670261217" /><path d="M 185.99683186730306 99.26182062694052 a86.0,86.0 0 0,1 -10.086455211305974,41.156179273409016" fill="none" id="id52" stroke="none" /><text fill="#e1ed5e" style="font-size:6.75px; font-family:Arial;" text-anchor="middle"><textPath startOffset="21.40746469413373" xlink:href="#id52">April</textPath></text><path d="M 120.9064616781168 101.97986365728391 l 14.396823049222492 1.3633941110818573 a35.46123637220403,35.46123637220403 0 0,0 -0.06259348533141557,0.6055351903489711 l -14.37129717140941 -1.6103338237137597" fill="red" stroke="none" /><path d="M 118.5362547648365 109.86951160357373 l 10.541839362532519 5.612935689085122 a32.94300733463919,32.94300733463919 0 0,0 -0.2700615195387683,0.4968827782884598 l -10.443932493378412 -5.793073300848185" fill="red" stroke="none" /><line stroke="#e1ed5e" stroke-width="0.3" x1="174.33088141563837" x2="178.70328620479359" y1="141.23008692659167" y2="143.65538615756765" /><path d="M 175.20536237346943 141.71514677278685 a86.0,86.0 0 0,1 -30.301960400862466,31.631185727798858" fill="none" id="id53" stroke="none" /><text fill="#e1ed5e" style="font-size:6.75px; font-family:Arial;" text-anchor="middle"><textPath startOffset="22.145653131862474" xlink:href="#id53">May</textPath></text><path d="M 116.35404254752997 113.17365903436017 l 9.957436204359524 8.0210057563069 a33.786206204601825,33.786206204601825 0 0,0 -0.36771166161530305,0.4485484380908196 l -9.818277723505593 -8.190756476096212" fill="red" stroke="none" /><path d="M 116.1254893667686 113.45245675266167 l 13.22279790741999 11.030928299473869 a38.219865378353106,38.219865378353106 0 0,0 -0.4246143987998092,0.500194694108456 l -13.031488945113066 -11.256289776031883" fill="red" stroke="none" /><path d="M 115.89218393027572 113.72728997021213 l 11.944346801671136 10.317242285306898 a36.78331108773809,36.78331108773809 0 0,0 -0.41685814618338823,0.47430804876224775 l -11.765477591529162 -10.52076261188044" fill="red" stroke="none" /><path d="M 115.6541949942343 113.99807769240083 l 15.4955318585587 13.856200138114257 a41.787154443239345,41.787154443239345 0 0,0 -0.48274570205739625,0.5306220911609625 l -15.255388455659423 -14.120159804832893" fill="red" stroke="none" /><path d="M 114.39649973595853 115.28858382429668 l 14.360033883942735 15.249858353140985 a41.94680770281828,41.94680770281828 0 0,0 -0.5284703098373178,0.4891442291818001 l -14.09613380279145 -15.494120328455166" fill="red" stroke="none" /><path d="M 112.7482090630111 116.68781488649013 l 9.490756258893548 12.423704600260455 a36.63402988228754,36.63402988228754 0 0,0 -0.5030149057481563,0.3774717629127869 l -9.276088364234624 -12.584795390437257" fill="red" stroke="none" /><line stroke="#e1ed5e" stroke-width="0.3" x1="143.1302829299769" x2="145.66735839644613" y1="173.24464959558577" y2="177.55315839532614" /><path d="M 143.63769802327073 174.10635135553383 a86.0,86.0 0 0,1 -40.68552437913181,11.842963189579606" fill="none" id="id54" stroke="none" /><text fill="#e1ed5e" style="font-size:6.75px; font-family:Arial;" text-anchor="middle"><textPath startOffset="21.407464694133747" xlink:href="#id54">June</textPath></text><path d="M 108.07796709384702 119.3841803445677 l 8.03258219521263 19.275273109637368 a41.882014514264576,41.882014514264576 0 0,0 -0.66601485254266,0.27086244243658153 l -7.700512881479528 -19.41032280865324" fill="red" stroke="none" /><path d="M 107.407793817531 119.65005319985036 l 7.6391970547617865 20.263877778963472 a42.65599395738396,42.65599395738396 0 0,0 -0.6873929096264161,0.25242019779872354 l -7.290214993481243 -20.392028825770915" fill="red" stroke="none" /><path d="M 107.06938296918513 119.77432235084164 l 7.044719538795654 19.705334346524328 a41.92673589188244,41.92673589188244 0 0,0 -0.6798005508656564,0.23646991982463297 l -6.705413215884976 -19.823362698917553" fill="red" stroke="none" /><path d="M 104.64783097203109 120.47920084513623 l 4.570446510489226 20.138230629191433 a41.650358693730894,41.650358693730894 0 0,0 -0.6986105568202826,0.15225891929168148 l -4.224073537049807 -20.213721006616833" fill="red" stroke="none" /><path d="M 103.94208987418118 120.62667999033965 l 3.8630377413546007 20.213045827139283 a41.57887951763076,41.57887951763076 0 0,0 -0.7022183039413812,0.12796756710058566 l -3.515484703862162 -20.27638156817123" fill="red" stroke="none" /><path d="M 101.80034050326958 120.92268563240118 l 2.051481204216273 23.84132126042034 a44.92942069030973,44.92942069030973 0 0,0 -0.7690012782325879,0.05952556243919309 l -1.6419109312084494 -23.873024589854587" fill="red" stroke="none" /><path d="M 101.44090949804482 120.95050786540614 l 1.4230376773418345 20.690655514710265 a41.73953379079541,41.73953379079541 0 0,0 -0.7152479511416927,0.043027540623341305 l -1.0676453740676766 -20.712035033158298" fill="red" stroke="none" /><path d="M 101.08105385017728 120.97215588758144 l 1.0769118397156197 20.891801991172194 a41.91953942009398,41.91953942009398 0 0,0 -0.7189684869807568,0.03087560036195176 l -0.7181175921340333 -20.907210159959977" fill="red" stroke="none" /><path d="M 100.72087961077811 120.9876233191556 l 0.735500504510474 21.413294687378965 a42.42592239229545,42.42592239229545 0 0,0 -0.7280827413548179,0.01875282873001605 l -0.3678044490849123 -21.422765233459028" fill="red" stroke="none" /><line stroke="#e1ed5e" stroke-width="0.3" x1="101.45913802915013" x2="101.54496967792366" y1="184.9874750549273" y2="189.98673829345242" /><path d="M 101.47630435890484 185.9873277026323 a86.0,86.0 0 0,1 -42.54439059252881,-10.42667462771756" fill="none" id="id55" stroke="none" /><text fill="#e1ed5e" style="font-size:6.75px; font-family:Arial;" text-anchor="middle"><textPath startOffset="22.145653131862474" xlink:href="#id55">July</textPath></text><path d="M 100.0 121.0 l 3.2272676912692126e-15 26.352640561475866 a47.352640561475866,47.352640561475866 0 0,0 -0.8128710426344203,-0.006977520259769345 l 0.452378117785565 -26.34875743941053" fill="red" stroke="none" /><path d="M 99.63950707515114 120.99690560180557 l -0.35575039107555945 20.72067678540674 a41.723730474652584,41.723730474652584 0 0,0 -0.716032235731693,-0.018442450451245946 l 0.7113959408779963 -20.711516617605447" fill="red" stroke="none" /><path d="M 99.27912038922189 120.98762331915562 l -1.7909628575604397 52.14192948598605 a73.17267827588212,73.17267827588212 0 0,0 -1.2549958925150178,-0.05389492353957454 l 2.6857845106762963 -52.10350199402065" fill="red" stroke="none" /><path d="M 98.19965949673042 120.92268563240118 l -2.2157702922126896 25.750609494918336 a46.845764205138735,46.845764205138735 0 0,0 -0.8006173917517578,-0.07581929939765567 l 2.657487247349463 -25.708778440015497" fill="red" stroke="none" /><path d="M 92.59220618246901 119.65005319985036 l -7.67523933125084 20.359484199430746 a42.75816848125894,42.75816848125894 0 0,0 -0.6845943927797251,-0.2648158178897641 l 8.023605986524093 -20.224728493402942" fill="red" stroke="none" /><path d="M 91.59046798132341 119.24265499422711 l -24.843697805569466 56.8472424614946 a83.03884505799904,83.03884505799904 0 0,0 -1.301284330996908,-0.5820479295864375 l 25.81589553942201 -56.41239078099831" fill="red" stroke="none" /><line stroke="#e1ed5e" stroke-width="0.3" x1="58.13341422392154" x2="55.67067388415222" y1="173.97424548756322" y2="178.32567169271397" /><path d="M 57.64086615596768 174.84453072859336 a86.0,86.0 0 0,1 -31.369924170532247,-30.572349798747897" fill="none" id="id56" stroke="none" /><text fill="#e1ed5e" style="font-size:6.75px; font-family:Arial;" text-anchor="middle"><textPath startOffset="22.145653131862474" xlink:href="#id56">August</textPath></text><path d="M 89.34428304082925 118.09573695890944 l -24.06318639420576 40.864551212389074 a68.42307966836674,68.42307966836674 0 0,0 -1.007015839093031,-0.6046840774602048 l 24.76113498985622 -40.44545313439295" fill="red" stroke="none" /><path d="M 88.72937992617639 117.7192867562869 l -10.717653614171493 16.84993163642609 a40.96968440275399,40.96968440275399 0 0,0 -0.5901865797013799,-0.38255181053047127 l 11.005325826129882 -16.663465984191724" fill="red" stroke="none" /><line stroke="#e1ed5e" stroke-width="0.3" x1="26.387840678322732" x2="22.057713659400548" y1="142.50000000000003" y2="145.00000000000006" /><path d="M 25.521815274538298 143.00000000000003 a86.0,86.0 0 0,1 -11.493303480769221,-40.785679425670985" fill="none" id="id57" stroke="none" /><text fill="#e1ed5e" style="font-size:6.75px; font-family:Arial;" text-anchor="middle"><textPath startOffset="21.40746469413373" xlink:href="#id57">September</textPath></text><path d="M 80.16572619554312 106.89939002012753 l -41.876100614965445 14.56668156914456 a65.33729823355912,65.33729823355912 0 0,0 -0.3594004981452425,-1.0625037114829885 l 42.11998653468305 -13.84567618318741" fill="red" stroke="none" /><path d="M 79.94057633289273 106.21446072829308 l -29.25198417603486 9.06233947213072 a51.623595068886544,51.623595068886544 0 0,0 -0.254980440723209,-0.8487469592736133 l 29.403240936761698 -8.558854909266383" fill="red" stroke="none" /><path d="M 79.73907114497094 105.5222062557868 l -24.95706791670441 6.802159839849233 a46.86744319575969,46.86744319575969 0 0,0 -0.204901156817019,-0.7780430670591459 l 25.070158554326163 -6.3727362684172855" fill="red" stroke="none" /><path d="M 79.64726062577567 105.17358676015961 l -25.01091920324779 6.357677857026844 a46.8063199066647,46.8063199066647 0 0,0 -0.19126505170764507,-0.780426680326124 l 25.11637178147173 -5.927395352092621" fill="red" stroke="none" /><path d="M 79.0935383218832 101.97986365728391 l -62.7193850343504 5.9395909718517395 a84.0,84.0 0 0,0 -0.12362550920903681,-1.4367158104973519 l 62.812104166257186 -4.862054113978725" fill="red" stroke="none" /><line stroke="#e1ed5e" stroke-width="0.3" x1="15.003131293944662" x2="10.003315487706104" y1="100.72959589197737" y2="100.7725132973878" /><path d="M 14.003168132696942 100.73817937305945 a86.0,86.0 0 0,1 10.791469493833604,-42.45332614584628" fill="none" id="id58" stroke="none" /><text fill="#e1ed5e" style="font-size:6.75px; font-family:Arial;" text-anchor="middle"><textPath startOffset="22.145653131862435" xlink:href="#id58">October</textPath></text><line stroke="#e1ed5e" stroke-width="0.3" x1="26.387840678322718" x2="22.05771365940052" y1="57.49999999999999" y2="54.99999999999999" /><path d="M 25.521815274538284 56.99999999999999 a86.0,86.0 0 0,1 29.574782752854787,-30.34633250058573" fill="none" id="id59" stroke="none" /><text fill="#e1ed5e" style="font-size:6.75px; font-family:Arial;" text-anchor="middle"><textPath startOffset="21.40746469413373" xlink:href="#id59">November</textPath></text><path d="M 84.83555147118756 85.47280134310135 l -15.312715104307486 -14.669234682297269 a42.205322210001896,42.205322210001896 0 0,0 0.5056864823676028,-0.5188788794567771 l 15.05864182078908 14.929936253821776" fill="red" stroke="none" /><path d="M 86.13680546590413 84.22622945171909 l -7.4649702353504335 -8.49376580214336 a32.307954638940146,32.307954638940146 0 0,0 0.41972728535209236,-0.36255043232048645 l 7.318063470235493 8.620660366928558" fill="red" stroke="none" /><line stroke="#e1ed5e" stroke-width="0.3" x1="56.869717070023135" x2="54.33264160355391" y1="26.7553504044142" y2="22.446841604673864" /><path d="M 56.362301976729285 25.89364864446614 a86.0,86.0 0 0,1 42.16139366436587,-11.88097634709845" fill="none" id="id60" stroke="none" /><text fill="#e1ed5e" style="font-size:6.75px; font-family:Arial;" text-anchor="middle"><textPath startOffset="22.145653131862474" xlink:href="#id60">December</textPath></text><path d="M 91.26138138417902 80.90454125486306 l -5.4054247862242715 -11.811828681756587 a33.98991585525847,33.98991585525847 0 0,0 0.5326488450490885,-0.2382470533706673 l 5.201862538319564 11.9028794860371" fill="red" stroke="none" /></svg>